<svg width="9" height="17" viewBox="0 0 9 17" fill="none" xmlns="http://www.w3.org/2000/svg">
<path d="M0.220737 1.28094C0.151055 1.21126 0.0957804 1.12853 0.0580683 1.03749C0.0203562 0.946443 0.000945091 0.848861 0.000945091 0.750315C0.000945091 0.651769 0.0203562 0.554187 0.0580683 0.463142C0.0957804 0.372097 0.151055 0.289371 0.220737 0.219688C0.290421 0.150007 0.373146 0.0947323 0.46419 0.0570202C0.555236 0.0193081 0.652817 -0.000102997 0.751363 -0.000102997C0.849909 -0.000102997 0.947491 0.0193081 1.03854 0.0570202C1.12958 0.0947323 1.21231 0.150007 1.28199 0.219688L8.78199 7.71969C8.85172 7.78934 8.90704 7.87206 8.94478 7.96311C8.98253 8.05416 9.00195 8.15175 9.00195 8.25032C9.00195 8.34888 8.98253 8.44647 8.94478 8.53752C8.90704 8.62857 8.85172 8.71129 8.78199 8.78094L1.28199 16.2809C1.14126 16.4217 0.950386 16.5007 0.751363 16.5007C0.552341 16.5007 0.361468 16.4217 0.220737 16.2809C0.0800076 16.1402 0.000945091 15.9493 0.000945091 15.7503C0.000945091 15.5513 0.0800076 15.3604 0.220737 15.2197L7.19105 8.25032L0.220737 1.28094Z" fill="white"/>
</svg>
