<svg width="18" height="18" viewBox="0 0 18 18" fill="none" xmlns="http://www.w3.org/2000/svg">
<path d="M18 11.2506V17.2506C18 17.4495 17.921 17.6403 17.7803 17.7809C17.6397 17.9216 17.4489 18.0006 17.25 18.0006H0.75C0.551088 18.0006 0.360322 17.9216 0.21967 17.7809C0.0790178 17.6403 0 17.4495 0 17.2506V11.2506C0 11.0517 0.0790178 10.8609 0.21967 10.7203C0.360322 10.5796 0.551088 10.5006 0.75 10.5006C0.948912 10.5006 1.13968 10.5796 1.28033 10.7203C1.42098 10.8609 1.5 11.0517 1.5 11.2506V16.5006H16.5V11.2506C16.5 11.0517 16.579 10.8609 16.7197 10.7203C16.8603 10.5796 17.0511 10.5006 17.25 10.5006C17.4489 10.5006 17.6397 10.5796 17.7803 10.7203C17.921 10.8609 18 11.0517 18 11.2506ZM5.78063 5.03122L8.25 2.5609V11.2506C8.25 11.4495 8.32902 11.6403 8.46967 11.7809C8.61032 11.9216 8.80109 12.0006 9 12.0006C9.19891 12.0006 9.38968 11.9216 9.53033 11.7809C9.67098 11.6403 9.75 11.4495 9.75 11.2506V2.5609L12.2194 5.03122C12.3601 5.17195 12.551 5.25101 12.75 5.25101C12.949 5.25101 13.1399 5.17195 13.2806 5.03122C13.4214 4.89048 13.5004 4.69961 13.5004 4.50059C13.5004 4.30157 13.4214 4.1107 13.2806 3.96996L9.53063 0.219965C9.46097 0.150233 9.37825 0.0949133 9.2872 0.05717C9.19616 0.0194268 9.09856 0 9 0C8.90144 0 8.80384 0.0194268 8.7128 0.05717C8.62175 0.0949133 8.53903 0.150233 8.46937 0.219965L4.71937 3.96996C4.57864 4.1107 4.49958 4.30157 4.49958 4.50059C4.49958 4.69961 4.57864 4.89048 4.71937 5.03122C4.86011 5.17195 5.05098 5.25101 5.25 5.25101C5.44902 5.25101 5.63989 5.17195 5.78063 5.03122Z" fill="#5A5A5A"/>
</svg>
