<svg width="45" height="45" viewBox="0 0 45 45" fill="none" xmlns="http://www.w3.org/2000/svg">
<path d="M5.2583 0.451565C5.38249 0.451058 5.50669 0.450552 5.63464 0.450031C5.77266 0.449971 5.91067 0.449921 6.04869 0.44988C6.19517 0.44948 6.34164 0.449037 6.48812 0.448556C6.89117 0.447363 7.29421 0.446799 7.69726 0.446343C8.1318 0.445749 8.56633 0.444591 9.00086 0.443522C10.0507 0.441076 11.1006 0.439616 12.1505 0.438329C12.4472 0.437959 12.7438 0.437562 13.0405 0.437157C14.8835 0.434639 16.7265 0.43244 18.5694 0.431199C18.9964 0.430907 19.4233 0.430611 19.8502 0.430311C19.9563 0.430236 20.0624 0.430162 20.1717 0.430085C21.889 0.428824 23.6064 0.425512 25.3237 0.421354C27.0878 0.417117 28.8518 0.414771 30.6159 0.414251C31.606 0.413911 32.596 0.412744 33.5861 0.409453C34.4297 0.406653 35.2732 0.405566 36.1167 0.406679C36.5467 0.407195 36.9767 0.406921 37.4066 0.404439C37.8013 0.40218 38.1958 0.402281 38.5905 0.40416C38.7988 0.404567 39.0071 0.402541 39.2153 0.400391C40.6139 0.411992 41.8003 0.792496 42.8943 1.66215C42.9781 1.72387 43.062 1.78559 43.1484 1.84917C44.1003 2.63815 44.6832 3.76928 44.9337 4.9537C44.9433 5.15023 44.9472 5.34706 44.9477 5.54382C44.9485 5.72603 44.9485 5.72603 44.9493 5.91193C44.9493 6.04693 44.9494 6.18193 44.9494 6.31693C44.9498 6.46021 44.9503 6.60349 44.9508 6.74676C44.952 7.141 44.9526 7.53525 44.953 7.92949C44.9536 8.35453 44.9548 8.77957 44.9559 9.20461C44.9584 10.2316 44.9599 11.2585 44.9612 12.2855C44.9616 12.5756 44.962 12.8658 44.9624 13.156C44.965 14.9587 44.9672 16.7614 44.9685 18.5641C44.9688 18.9817 44.9691 19.3993 44.9694 19.8169C44.9695 19.9207 44.9696 20.0245 44.9696 20.1314C44.9709 21.8112 44.9743 23.491 44.9786 25.1709C44.9829 26.8964 44.9853 28.6219 44.9858 30.3474C44.9862 31.3159 44.9874 32.2843 44.9907 33.2527C44.9936 34.0779 44.9947 34.903 44.9936 35.7281C44.993 36.1487 44.9933 36.5692 44.9959 36.9898C44.9982 37.3758 44.9981 37.7618 44.9961 38.1478C44.9957 38.3515 44.9978 38.5553 45 38.759C44.9881 40.127 44.5991 41.2875 43.7101 42.3576C43.6466 42.4405 43.5831 42.5234 43.5177 42.6089C42.7009 43.5466 41.338 44.2515 40.0798 44.3794C39.7984 44.3889 39.5186 44.3895 39.237 44.3864C39.1297 44.3864 39.0225 44.3865 38.912 44.3865C38.5683 44.3863 38.2246 44.384 37.881 44.3817C37.6674 44.3812 37.4538 44.3809 37.2402 44.3807C36.4524 44.3792 35.6646 44.375 34.8768 44.3711C33.1143 44.365 31.3519 44.3588 29.536 44.3524C29.536 38.296 29.536 32.2396 29.536 25.9996C31.3868 25.9996 33.2376 25.9996 35.1445 25.9996C35.1781 25.3742 35.2118 24.7488 35.2464 24.1045C35.2838 23.6566 35.323 23.2101 35.3679 22.763C35.3778 22.661 35.3878 22.559 35.398 22.4539C35.4341 22.0835 35.471 21.7132 35.5077 21.3428C35.5898 20.5097 35.6718 19.6765 35.7563 18.8181C33.8046 18.8181 31.8528 18.8181 29.8419 18.8181C29.8325 18.0034 29.8325 18.0034 29.8228 17.1723C29.82 17.0025 29.8173 16.8327 29.8144 16.6578C29.8135 16.5207 29.8127 16.3836 29.8121 16.2465C29.8097 16.1428 29.8097 16.1428 29.8073 16.037C29.807 15.4175 29.9279 14.8498 30.3837 14.3919C31.0111 14.0209 31.5761 14.0029 32.2885 14.0109C32.374 14.0111 32.4596 14.0113 32.5478 14.0115C32.8653 14.0125 33.1827 14.0153 33.5002 14.0179C34.211 14.022 34.9219 14.0261 35.6543 14.0304C35.6543 12.0225 35.6543 10.0147 35.6543 7.946C34.6427 7.94189 33.6311 7.93778 32.5888 7.93354C32.2727 7.93172 31.9565 7.9299 31.6308 7.92803C31.3753 7.92745 31.1199 7.92694 30.8644 7.92652C30.7358 7.9255 30.6071 7.92448 30.4745 7.92343C28.2386 7.92301 26.0467 8.34004 24.3713 9.89295C22.8825 11.4291 22.3022 13.3775 22.2638 15.4576C22.2606 15.6022 22.2606 15.6022 22.2574 15.7498C22.2507 16.0556 22.2447 16.3615 22.2387 16.6673C22.2343 16.8756 22.2298 17.0838 22.2254 17.2921C22.2144 17.8007 22.2043 18.3094 22.1941 18.8181C20.9827 18.8181 19.7712 18.8181 18.5231 18.8181C18.5231 21.188 18.5231 23.5579 18.5231 25.9996C19.7345 25.9996 20.946 25.9996 22.1941 25.9996C22.1941 32.056 22.1941 38.1125 22.1941 44.3524C17.891 44.3648 17.891 44.3648 13.501 44.3774C12.5965 44.381 11.692 44.3846 10.76 44.3884C9.65225 44.3902 9.65225 44.3902 9.13301 44.3905C8.77174 44.3909 8.41049 44.3924 8.04922 44.3946C7.58727 44.3973 7.12536 44.3981 6.66341 44.3975C6.49458 44.3977 6.32575 44.3984 6.15692 44.4C4.54605 44.4141 2.99349 44.0469 1.77431 42.9432C0.798617 41.9228 0.0555444 40.701 0.0523168 39.2739C0.0517994 39.1524 0.051282 39.0309 0.0507488 38.9057C0.0506875 38.7707 0.0506367 38.6357 0.0505952 38.5007C0.0501857 38.3575 0.0497332 38.2142 0.0492411 38.0709C0.0480214 37.6767 0.0474449 37.2824 0.0469791 36.8882C0.0463715 36.4631 0.0451878 36.0381 0.0440944 35.6131C0.0415938 34.5861 0.040102 33.5592 0.0387858 32.5322C0.0384072 32.242 0.038002 31.9519 0.0375873 31.6617C0.0350134 29.859 0.0327648 28.0562 0.0314965 26.2535C0.0311978 25.8359 0.030896 25.4184 0.0305886 25.0008C0.0305125 24.897 0.0304363 24.7932 0.030358 24.6863C0.0290687 23.0065 0.0256825 21.3266 0.0214314 19.6468C0.0171006 17.9213 0.014702 16.1958 0.0141697 14.4703C0.0138222 13.5018 0.0126299 12.5334 0.00926458 11.5649C0.00640193 10.7398 0.00529085 9.9147 0.00642923 9.08957C0.00695627 8.66899 0.00667592 8.24845 0.00413847 7.82787C0.0018291 7.44186 0.00193236 7.05591 0.00385334 6.66989C0.00426958 6.46615 0.0021981 6.2624 0 6.05867C0.0118608 4.69066 0.400864 3.53015 1.28995 2.4601C1.35304 2.37807 1.41614 2.29604 1.48114 2.21152C2.39854 1.15251 3.8374 0.454639 5.2583 0.451565Z" fill="white"/>
</svg>
