<svg width="601" height="780" viewBox="0 0 601 780" fill="none" xmlns="http://www.w3.org/2000/svg">
<g clip-path="url(#clip0_8_500)">
<g opacity="0.2">
<path fill-rule="evenodd" clip-rule="evenodd" d="M560.248 541.634C520.712 438.213 477.958 343.269 461.014 320.663C458.071 316.766 454.613 313.287 450.734 310.321C447.854 299.866 442.263 280.425 435.316 262.057C449.721 256.373 462.686 247.558 473.274 236.251C483.861 224.943 491.807 211.424 496.539 196.67C509.699 157.788 500.888 116.646 474.682 94.3226C461.093 83.0207 443.888 77.0011 426.223 77.3683C416.446 77.4635 406.732 78.9282 397.362 81.7198C390.563 60.9703 378.95 42.1267 363.474 26.7314C346.777 9.83091 324.079 0.221901 300.33 0H297.45C283.157 0.826242 269.172 4.49539 256.313 10.7931C243.454 17.0907 231.978 25.8905 222.558 36.6778C209.54 51.361 199.9 68.7236 194.318 87.5408C184.05 84.607 173.426 83.1046 162.747 83.0761C147.608 83.0755 132.66 86.4582 118.994 92.9768C105.329 99.4955 93.2912 108.986 83.7597 120.755C74.2282 132.523 67.4436 146.274 63.9016 161.001C60.3596 175.729 60.1495 191.063 63.2866 205.882C72.1539 245.442 104.912 276.469 153.654 292.406C150.604 326.314 152.976 350.559 160.77 365.874C122.59 428.04 19.5717 698.631 4.71765 767.805C-8.72442 829.971 12.6247 853.594 26.5186 862.128C27.9192 862.989 29.3717 863.762 30.8676 864.445C34.1899 866.077 37.8412 866.927 41.5423 866.931C48.1982 866.916 54.5763 864.26 59.2775 859.545C63.9787 854.831 66.6187 848.442 66.6187 841.782C66.677 837.186 65.449 832.664 63.0736 828.729C60.6982 824.794 57.27 821.603 53.1766 819.516C51.3128 816.577 48.2064 804.37 53.7978 778.486C57.0171 763.566 65.5457 735.705 78.0277 699.366C87.0079 704.678 95.7058 709.934 103.613 714.738C170.541 755.259 228.319 790.185 296.602 790.185C373.075 790.185 450.113 746.386 545.111 648.503C571.317 725.024 578.999 764.188 577.474 775.378C576.991 783.012 573.877 790.242 568.663 795.836C566.019 797.887 563.812 800.446 562.172 803.363C560.532 806.28 559.491 809.496 559.112 812.822C558.732 816.148 559.022 819.516 559.963 822.728C560.904 825.94 562.478 828.931 564.592 831.525C566.706 834.119 569.317 836.264 572.272 837.833C575.227 839.402 578.466 840.364 581.798 840.661C585.13 840.959 588.487 840.586 591.673 839.565C594.859 838.545 597.808 836.897 600.348 834.718C614.807 822.906 623.843 805.331 627.176 782.612C633.501 741.243 587.923 613.69 560.248 541.634ZM112.649 194.636C111.134 187.138 111.312 179.396 113.172 171.976C115.032 164.556 118.526 157.646 123.399 151.752C128.271 145.858 134.399 141.128 141.335 137.909C148.27 134.69 155.836 133.063 163.481 133.148C171.761 133.262 179.959 134.811 187.711 137.726C187.711 143.113 187.88 148.539 188.219 154.002C188.717 160.373 191.599 166.322 196.29 170.66C200.981 174.997 207.134 177.404 213.521 177.399H214.933C218.224 177.191 221.442 176.333 224.399 174.874C227.357 173.415 229.996 171.384 232.165 168.898C234.333 166.413 235.989 163.522 237.035 160.393C238.081 157.264 238.497 153.958 238.259 150.667C235.379 107.717 248.652 83.3022 260.286 70.3604C265.205 64.5456 271.237 59.7748 278.027 56.3292C284.816 52.8836 292.227 50.8328 299.822 50.2978H301.234C311.849 50.6773 321.881 55.2495 329.134 63.0135C343.437 77.3694 352.064 96.4201 353.421 116.646C353.391 117.192 353.391 117.739 353.421 118.285C353.421 119.076 353.421 119.811 353.421 120.715C353.421 121.619 353.42 121.958 353.816 122.636C354.211 123.314 354.268 124.388 354.55 125.123C354.832 125.858 355.058 126.31 355.284 126.875C355.514 127.455 355.778 128.022 356.075 128.57C356.075 129.079 356.64 129.588 356.979 130.096C357.309 130.655 357.687 131.185 358.108 131.679C358.582 132.327 359.092 132.95 359.633 133.544C360.198 134.165 360.763 134.73 361.384 135.296C361.978 135.838 362.6 136.347 363.248 136.821L365.281 138.178L367.258 139.251C368.072 139.668 368.923 140.008 369.8 140.269C370.482 140.537 371.18 140.763 371.89 140.947C372.666 141.164 373.459 141.315 374.261 141.399C374.967 141.556 375.685 141.651 376.407 141.682H378.215H379.909H381.83L384.202 141.173C385.01 140.988 385.803 140.743 386.574 140.438C387.189 140.247 387.792 140.02 388.381 139.76L389.963 139.026C400.992 132.455 413.415 128.583 426.223 127.723C431.927 127.439 437.542 129.225 442.036 132.752C452.429 141.569 455.31 161.801 448.927 180.79C446.168 189.873 441.058 198.066 434.115 204.537C427.172 211.007 418.643 215.527 409.392 217.637C394.142 203.848 372.85 198.366 335.969 198.366C316.822 198.366 292.027 199.835 257.858 203.056C251.442 203.668 245.509 206.727 241.287 211.599C237.066 216.471 234.881 222.783 235.187 229.224C235.492 235.665 238.263 241.741 242.926 246.192C247.589 250.643 253.786 253.127 260.23 253.128H262.546C295.021 250.076 318.291 248.663 335.969 248.663C364.208 248.663 373.697 252.506 376.634 255.728C377.303 257.062 378.098 258.33 379.006 259.514C384.199 269.793 388.561 280.47 392.052 291.445C384.315 290.71 376.012 290.315 367.258 290.315C362.74 290.315 358.052 290.315 353.477 290.597C310.384 292.462 247.522 303.482 202.79 328.575C202.437 301.418 205.146 274.308 210.867 247.759C212.186 241.249 210.878 234.48 207.227 228.932C203.576 223.384 197.879 219.506 191.381 218.146C189.689 217.806 187.968 217.635 186.242 217.637C180.47 217.658 174.879 219.662 170.407 223.314C165.935 226.967 162.852 232.045 161.674 237.7C161.674 238.773 161.222 240.073 160.883 241.656C125.358 227.753 115.36 206.786 112.649 194.636ZM298.297 740.508C244.02 740.508 193.754 710.104 130.158 671.674C119.709 665.344 108.018 658.28 95.7057 650.99C132.643 549.264 182.627 426.458 204.598 391.023C219.621 366.948 290.446 343.382 356.188 340.556C360.198 340.556 364.096 340.556 367.823 340.556C405.495 340.556 419.388 348.638 421.026 350.785C436.784 371.865 487.616 489.641 526.643 595.323C433.509 695.693 362.909 740.508 298.297 740.508Z" fill="#EE3A3D"/>
<path d="M265.991 441.041L265.482 441.719C264.474 443.154 263.009 444.204 261.326 444.697C259.643 445.19 257.843 445.096 256.22 444.432C252.881 442.976 249.398 441.877 245.828 441.154H244.416C231.256 441.154 219.396 447.314 207.366 452.061C206.379 452.474 205.319 452.68 204.249 452.666C203.18 452.651 202.125 452.416 201.15 451.977C200.176 451.537 199.301 450.9 198.583 450.108C197.864 449.316 197.317 448.384 196.974 447.37C196.367 445.641 196.378 443.755 197.007 442.034C197.635 440.313 198.841 438.863 200.419 437.932C213.949 430.188 229.04 425.573 244.585 424.426C248.186 424.076 251.819 424.451 255.272 425.528C258.726 426.606 261.929 428.364 264.692 430.699C266.114 431.979 267.027 433.729 267.266 435.628C267.504 437.527 267.052 439.448 265.991 441.041Z" fill="black"/>
<path d="M412.95 451.439C412.95 452.004 412.498 452.569 412.328 453.078C411.636 455.027 410.208 456.628 408.35 457.537C406.491 458.446 404.352 458.589 402.389 457.938C388.166 453.009 373.639 449.007 358.899 445.957C356.888 445.546 355.118 444.364 353.967 442.664C352.816 440.963 352.377 438.879 352.743 436.858C352.842 436.23 352.974 435.607 353.138 434.993C353.561 433.048 354.706 431.336 356.341 430.203C357.977 429.07 359.981 428.6 361.949 428.889C378.02 430.878 393.728 435.14 408.601 441.549C410.453 442.328 411.936 443.787 412.745 445.627C413.554 447.466 413.627 449.546 412.95 451.439Z" fill="black"/>
<path d="M246.393 482.972C243.682 478.564 238.147 471.669 232.951 476.981C228.122 482.904 224.652 489.815 222.788 497.228C220.924 504.64 220.71 512.372 222.163 519.876C223.01 527.166 231.708 533.835 238.542 528.805C253.622 518.972 253.396 497.609 246.393 482.972ZM240.066 502.978C238.203 502.978 236.678 500.096 236.678 496.535C236.678 492.975 238.203 490.093 240.066 490.093C241.93 490.093 243.512 493.031 243.512 496.535C243.512 500.039 241.817 502.978 240.066 502.978Z" fill="black"/>
<path d="M387.592 485.911C387.16 484.225 386.345 482.662 385.211 481.343C384.076 480.024 382.653 478.985 381.052 478.307C379.45 477.628 377.714 477.329 375.978 477.433C374.242 477.536 372.553 478.039 371.043 478.903C362.402 488.51 360.086 502.356 359.747 515.298C359.747 522.928 360.086 532.253 367.259 537C374.996 540.052 381.153 532.535 385.446 527.562C395.443 515.977 393.409 498.909 387.592 485.911ZM380.814 502.583C378.894 502.583 377.369 499.7 377.369 496.14C377.369 492.58 378.894 489.697 380.814 489.697C382.734 489.697 384.203 492.58 384.203 496.14C384.203 499.7 382.678 502.583 380.814 502.583Z" fill="black"/>
<path d="M328.796 590.351C314.275 593.463 299.389 594.528 284.572 593.515H283.895C275.762 592.385 265.765 589.333 263.506 580.291C261.247 571.249 266.838 563.337 270.171 555.877C277.714 538.936 284.388 521.62 290.165 503.997C290.529 503.038 291.084 502.164 291.799 501.429C292.513 500.693 293.369 500.112 294.316 499.72C295.263 499.329 296.281 499.135 297.305 499.151C298.33 499.167 299.34 499.393 300.274 499.815L301.799 500.493C303.413 501.266 304.698 502.59 305.423 504.227C306.147 505.864 306.264 507.706 305.752 509.422C299.72 529.202 292.011 548.43 282.709 566.897C282.2 567.953 281.947 569.114 281.97 570.285C281.993 571.457 282.291 572.607 282.841 573.642C283.391 574.677 284.177 575.567 285.136 576.241C286.094 576.915 287.198 577.354 288.357 577.522C301.047 578.877 313.87 578.248 326.367 575.657C327.347 575.522 328.343 575.581 329.299 575.832C330.256 576.083 331.153 576.52 331.94 577.118C332.727 577.717 333.388 578.465 333.886 579.32C334.383 580.175 334.707 581.119 334.839 582.1C335.045 583.982 334.539 585.873 333.42 587.401C332.302 588.928 330.652 589.98 328.796 590.351Z" fill="black"/>
<path d="M315.241 695.806C315.372 697.635 314.83 699.45 313.717 700.907C312.604 702.364 310.997 703.364 309.198 703.718C297.507 705.865 284.968 707.674 274.124 701.74C272.663 700.879 271.601 699.476 271.168 697.836C270.734 696.196 270.965 694.451 271.809 692.98C272.448 691.422 273.591 690.124 275.056 689.294C276.52 688.464 278.221 688.15 279.885 688.403C288.92 689.503 298.049 689.617 307.109 688.742C308.1 688.657 309.098 688.77 310.046 689.074C310.993 689.379 311.871 689.869 312.628 690.515C313.384 691.162 314.005 691.953 314.454 692.842C314.903 693.73 315.17 694.7 315.241 695.693V695.806Z" fill="black"/>
<path d="M390.697 646.075C365.846 665.007 334.669 670.998 305.244 670.998C272.654 670.396 240.379 664.498 209.681 653.535C207.337 652.643 205.443 650.856 204.415 648.567C203.388 646.277 203.311 643.674 204.202 641.328C205.093 638.982 206.88 637.087 209.167 636.059C211.455 635.031 214.058 634.954 216.402 635.846C217.418 636.298 321.566 674.954 379.231 631.042C380.205 630.171 381.349 629.512 382.59 629.106C383.832 628.701 385.144 628.558 386.444 628.686C387.743 628.814 389.002 629.211 390.14 629.851C391.279 630.492 392.272 631.362 393.057 632.406C393.842 633.451 394.401 634.647 394.7 635.919C394.998 637.191 395.03 638.512 394.792 639.797C394.554 641.081 394.053 642.303 393.319 643.384C392.585 644.465 391.634 645.381 390.527 646.075H390.697Z" fill="black"/>
<path fill-rule="evenodd" clip-rule="evenodd" d="M87.8543 402.666C86.4135 402.665 85.0029 402.254 83.7879 401.479C68.5385 392.041 53.741 367.57 52.1031 364.857C51.5839 363.982 51.242 363.012 51.0972 362.004C50.9525 360.996 51.0075 359.97 51.2593 358.983C51.511 357.997 51.9545 357.069 52.5644 356.254C53.1743 355.439 53.9388 354.752 54.814 354.233C55.6892 353.713 56.6583 353.371 57.6656 353.227C58.6728 353.082 59.6987 353.137 60.6846 353.389C61.6706 353.641 62.5975 354.084 63.4121 354.695C64.2267 355.305 64.913 356.07 65.4322 356.945C69.3292 363.501 81.7543 381.981 91.9206 388.311C93.365 389.191 94.4815 390.521 95.099 392.097C95.7164 393.672 95.8008 395.407 95.3396 397.035C94.8783 398.663 93.8971 400.095 92.5452 401.112C91.1934 402.129 89.5455 402.675 87.8543 402.666Z" fill="black"/>
<path fill-rule="evenodd" clip-rule="evenodd" d="M75.8822 453.415C58.0347 453.415 33.2968 441.83 30.6987 440.474C29.0099 439.485 27.7545 437.897 27.1819 436.025C26.6092 434.152 26.7615 432.133 27.608 430.368C28.4544 428.603 29.9331 427.221 31.7508 426.497C33.5686 425.772 35.5927 425.758 37.4201 426.458C44.3106 429.736 64.982 438.326 76.9556 437.761C77.9802 437.708 79.0048 437.862 79.9685 438.214C80.9322 438.566 81.8147 439.11 82.5636 439.812C83.3124 440.513 83.9121 441.359 84.3265 442.298C84.7409 443.237 84.9614 444.251 84.9753 445.277C85.0362 447.337 84.2805 449.336 82.8731 450.84C81.4657 452.343 79.5212 453.229 77.4638 453.302L75.8822 453.415Z" fill="black"/>
<path fill-rule="evenodd" clip-rule="evenodd" d="M517.775 384.525C516.444 384.528 515.134 384.193 513.968 383.55C512.803 382.908 511.819 381.979 511.111 380.852C510.574 379.984 510.213 379.019 510.05 378.012C509.887 377.005 509.926 375.975 510.162 374.982C510.398 373.99 510.828 373.054 511.427 372.228C512.026 371.402 512.782 370.703 513.652 370.171C523.875 363.784 536.243 345.361 540.197 338.805C540.72 337.929 541.41 337.165 542.228 336.556C543.046 335.947 543.976 335.506 544.964 335.257C545.953 335.007 546.981 334.955 547.99 335.103C548.998 335.252 549.968 335.597 550.843 336.121C551.718 336.644 552.482 337.334 553.091 338.153C553.699 338.972 554.141 339.902 554.39 340.891C554.639 341.88 554.691 342.909 554.543 343.918C554.395 344.928 554.049 345.898 553.526 346.773C551.888 349.486 537.091 373.9 521.841 383.338C520.62 384.099 519.213 384.51 517.775 384.525Z" fill="black"/>
<path fill-rule="evenodd" clip-rule="evenodd" d="M539.181 428.716C538.241 428.773 537.298 428.773 536.357 428.716C535.473 428.682 534.605 428.469 533.806 428.09C533.007 427.712 532.293 427.175 531.706 426.513C531.12 425.851 530.673 425.076 530.393 424.237C530.114 423.397 530.007 422.51 530.08 421.628C530.152 420.746 530.402 419.888 530.815 419.105C531.228 418.322 531.795 417.632 532.482 417.074C533.168 416.517 533.961 416.104 534.811 415.861C535.662 415.618 536.552 415.55 537.43 415.661C547.427 416.396 563.806 410.01 569.341 407.467C570.921 406.717 572.734 406.627 574.381 407.215C576.028 407.803 577.375 409.022 578.124 410.603C578.873 412.184 578.963 413.999 578.375 415.647C577.787 417.295 576.569 418.642 574.989 419.391C563.773 424.654 551.7 427.852 539.351 428.829L539.181 428.716Z" fill="black"/>
</g>
</g>
<defs>
<clipPath id="clip0_8_500">
<rect width="601" height="780" fill="white"/>
</clipPath>
</defs>
</svg>
