<svg width="45" height="45" viewBox="0 0 45 45" fill="none" xmlns="http://www.w3.org/2000/svg">
<path d="M6.99222 0.0215362C7.13027 0.0212095 7.26833 0.0208076 7.40639 0.0203372C7.7844 0.019272 8.16241 0.0192916 8.54042 0.0194979C8.94866 0.0195336 9.35689 0.0185689 9.76512 0.0177414C10.5645 0.0162923 11.3638 0.0158108 12.1632 0.0157133C12.8132 0.0156303 13.4632 0.015271 14.1132 0.0147178C15.9575 0.0131801 17.8018 0.0123741 19.6461 0.0125051C19.7951 0.0125155 19.7951 0.0125155 19.9472 0.0125262C20.0467 0.0125334 20.1462 0.0125405 20.2487 0.0125479C21.8605 0.0126188 23.4722 0.0109482 25.084 0.00848523C26.7403 0.00597429 28.3966 0.00477064 30.0529 0.00492139C30.9822 0.00497929 31.9116 0.00450297 32.8409 0.00261991C33.6323 0.00102661 34.4237 0.000652444 35.2151 0.00183565C35.6185 0.00240435 36.0218 0.0024215 36.4252 0.000900736C36.7953 -0.000480003 37.1654 -0.000215681 37.5354 0.00129965C37.6685 0.00156617 37.8016 0.00125648 37.9347 0.000276216C39.6275 -0.0113547 41.2055 0.465087 42.4836 1.61669C42.5617 1.68671 42.6398 1.75672 42.7203 1.82886C43.8458 2.89263 44.6816 4.34983 44.7704 5.92427C44.777 6.28036 44.7781 6.63608 44.7773 6.99222C44.7777 7.13027 44.7781 7.26833 44.7785 7.40639C44.7796 7.7844 44.7796 8.16241 44.7794 8.54042C44.7793 8.94866 44.7803 9.35689 44.7811 9.76512C44.7826 10.5645 44.7831 11.3638 44.7831 12.1632C44.7832 12.8132 44.7836 13.4632 44.7841 14.1132C44.7857 15.9575 44.7865 17.8018 44.7864 19.6461C44.7863 19.7951 44.7863 19.7951 44.7863 19.9472C44.7863 20.0467 44.7863 20.1462 44.7863 20.2487C44.7862 21.8605 44.7879 23.4722 44.7904 25.084C44.7929 26.7403 44.7941 28.3966 44.7939 30.0529C44.7939 30.9822 44.7944 31.9116 44.7962 32.8409C44.7978 33.6323 44.7982 34.4237 44.797 35.2151C44.7965 35.6185 44.7964 36.0218 44.798 36.4252C44.7993 36.7953 44.7991 37.1654 44.7976 37.5354C44.7973 37.6685 44.7976 37.8016 44.7986 37.9347C44.8102 39.6275 44.3338 41.2055 43.1822 42.4836C43.1122 42.5617 43.0421 42.6398 42.97 42.7203C41.9062 43.8458 40.449 44.6816 38.8746 44.7704C38.5185 44.777 38.1628 44.7781 37.8066 44.7773C37.6686 44.7777 37.5305 44.7781 37.3925 44.7785C37.0145 44.7796 36.6365 44.7796 36.2584 44.7794C35.8502 44.7793 35.442 44.7803 35.0337 44.7811C34.2344 44.7826 33.4351 44.7831 32.6357 44.7832C31.9857 44.7832 31.3357 44.7836 30.6857 44.7841C28.8414 44.7857 26.9971 44.7865 25.1528 44.7864C25.0037 44.7863 25.0037 44.7864 24.8517 44.7863C24.7522 44.7863 24.6527 44.7863 24.5502 44.7863C22.9384 44.7862 21.3266 44.7879 19.7149 44.7904C18.0586 44.7929 16.4023 44.7941 14.746 44.7939C13.8166 44.7939 12.8873 44.7944 11.9579 44.7962C11.1666 44.7978 10.3752 44.7982 9.58379 44.797C9.18039 44.7965 8.77702 44.7964 8.37362 44.798C8.00355 44.7993 7.63351 44.7991 7.26344 44.7976C7.13034 44.7973 6.99724 44.7976 6.86414 44.7986C5.17137 44.8102 3.59333 44.3338 2.31527 43.1822C2.23715 43.1122 2.15903 43.0421 2.07855 42.97C0.953102 41.9062 0.117221 40.449 0.0285061 38.8746C0.0218612 38.5185 0.0207358 38.1628 0.0215361 37.8066C0.0212095 37.6686 0.0208073 37.5305 0.0203369 37.3925C0.0192717 37.0145 0.0192919 36.6365 0.0194981 36.2584C0.0195338 35.8502 0.0185688 35.442 0.0177413 35.0337C0.0162923 34.2344 0.0158108 33.4351 0.0157133 32.6357C0.0156303 31.9857 0.0152706 31.3357 0.0147174 30.6857C0.0131797 28.8414 0.0123738 26.9971 0.0125048 25.1528C0.0125118 25.0534 0.012519 24.9541 0.0125262 24.8517C0.0125333 24.7522 0.0125401 24.6527 0.0125475 24.5502C0.0126184 22.9384 0.0109478 21.3266 0.00848489 19.7149C0.00597395 18.0586 0.00477054 16.4023 0.00492129 14.746C0.00497919 13.8166 0.00450324 12.8873 0.00262018 11.9579C0.00102688 11.1666 0.000652167 10.3752 0.00183538 9.58379C0.00240407 9.18039 0.00242143 8.77702 0.000900673 8.37363C-0.000480067 8.00355 -0.000215591 7.63351 0.00129974 7.26344C0.00156626 7.13034 0.0012567 6.99724 0.000276428 6.86414C-0.0113545 5.17137 0.465087 3.59333 1.61669 2.31527C1.68671 2.23715 1.75672 2.15903 1.82886 2.07855C3.24661 0.578606 4.97294 0.0169988 6.99222 0.0215362ZM7.00919 7.58088C6.47906 8.19576 6.13802 8.91478 5.80817 9.65036C5.77654 9.72037 5.74491 9.79039 5.71232 9.86252C5.22344 11.1253 5.34635 12.6636 5.34896 13.9895C5.34872 14.1938 5.34841 14.3981 5.34803 14.6024C5.34724 15.153 5.34754 15.7036 5.3481 16.2543C5.3485 16.7742 5.34819 17.2941 5.34794 17.814C5.34744 18.9065 5.34801 19.9989 5.34895 21.0913C5.34973 22.0255 5.34959 22.9596 5.34879 23.8937C5.34785 24.9827 5.34749 26.0716 5.34802 27.1606C5.3483 27.7355 5.34833 28.3104 5.34775 28.8853C5.34725 29.426 5.34761 29.9668 5.34861 30.5075C5.34884 30.7048 5.34878 30.9022 5.34839 31.0996C5.34394 33.5927 5.59654 35.6956 7.37997 37.5935C9.18017 39.3541 11.5411 39.4545 13.9097 39.4499C14.1158 39.4501 14.322 39.4505 14.5281 39.4508C15.0842 39.4516 15.6402 39.4513 16.1962 39.4508C16.5444 39.4505 16.8925 39.4505 17.2407 39.4507C17.3278 39.4507 17.3278 39.4507 17.4166 39.4508C17.5346 39.4508 17.6526 39.4509 17.7706 39.4509C18.8733 39.4514 19.976 39.4509 21.0787 39.4499C22.0218 39.4491 22.965 39.4493 23.9082 39.4501C25.0073 39.451 26.1065 39.4514 27.2056 39.4508C27.3231 39.4508 27.4406 39.4507 27.5582 39.4507C27.616 39.4507 27.6738 39.4506 27.7333 39.4506C28.1378 39.4504 28.5424 39.4507 28.9469 39.4511C29.4927 39.4516 30.0386 39.4513 30.5845 39.4503C30.7839 39.45 30.9832 39.4501 31.1826 39.4505C33.6033 39.4548 35.7818 39.2196 37.5935 37.4189C39.3479 35.5474 39.4406 33.297 39.44 30.8589C39.4403 30.6547 39.4405 30.4505 39.4409 30.2462C39.4416 29.6938 39.4419 29.1413 39.4419 28.5889C39.442 28.1849 39.4422 27.7809 39.4425 27.3769C39.4432 26.2891 39.4436 25.2012 39.4435 24.1134C39.4435 24.0518 39.4435 23.9901 39.4435 23.9267C39.4435 23.865 39.4435 23.8033 39.4435 23.7397C39.4434 22.7407 39.4443 21.7418 39.4455 20.7428C39.4468 19.7139 39.4474 18.685 39.4473 17.656C39.4473 17.0796 39.4475 16.5033 39.4484 15.9269C39.4493 15.3844 39.4493 14.8419 39.4487 14.2994C39.4486 14.1013 39.4488 13.9032 39.4493 13.7052C39.4555 11.2168 39.2204 9.09664 37.4189 7.20533C35.933 5.77661 34.0641 5.35642 32.0571 5.35988C31.9279 5.35958 31.9279 5.35958 31.7961 5.35928C31.5103 5.35873 31.2245 5.3588 30.9387 5.35887C30.7326 5.35861 30.5266 5.35831 30.3205 5.35798C29.7626 5.35721 29.2048 5.35701 28.6469 5.35695C28.2978 5.35689 27.9487 5.35671 27.5996 5.35647C26.443 5.3557 25.2863 5.3553 24.1297 5.35537C24.0364 5.35537 24.0364 5.35537 23.9412 5.35538C23.8477 5.35538 23.8477 5.35538 23.7524 5.35539C22.7438 5.35542 21.7351 5.35459 20.7265 5.35336C19.688 5.3521 18.6495 5.3515 17.611 5.35157C17.0291 5.3516 16.4472 5.35135 15.8653 5.35042C15.3177 5.34957 14.77 5.34957 14.2224 5.35021C14.0223 5.3503 13.8222 5.35009 13.6221 5.34956C11.0531 5.34319 8.89783 5.64627 7.00919 7.58088Z" fill="white"/>
<path d="M11.4421 7.97942C11.5211 7.97898 11.6002 7.97854 11.6817 7.97808C11.8115 7.97801 11.8115 7.97801 11.944 7.97795C12.0823 7.97737 12.0823 7.97737 12.2234 7.97679C12.5334 7.97562 12.8434 7.97508 13.1535 7.97455C13.3753 7.97386 13.5972 7.97313 13.8191 7.97238C14.4858 7.97029 15.1526 7.96896 15.8193 7.96784C16.0077 7.96751 16.1962 7.96716 16.3846 7.96681C17.5558 7.9646 18.727 7.96268 19.8982 7.96159C20.1694 7.96134 20.4406 7.96108 20.7118 7.96082C20.7792 7.96075 20.8466 7.96069 20.916 7.96062C22.0068 7.95951 23.0975 7.95661 24.1882 7.95297C25.3091 7.94926 26.4299 7.94721 27.5508 7.94676C28.1797 7.94646 28.8086 7.94544 29.4375 7.94256C30.0296 7.93984 30.6217 7.93938 31.2138 7.94041C31.4306 7.94042 31.6474 7.9397 31.8642 7.93817C33.4642 7.92744 34.6101 8.03388 35.8186 9.1774C36.3825 9.77472 36.8173 10.6124 36.8198 11.4421C36.8204 11.5607 36.8204 11.5607 36.8211 11.6817C36.8211 11.7682 36.8212 11.8548 36.8212 11.944C36.8216 12.0362 36.822 12.1284 36.8224 12.2234C36.8236 12.5334 36.8241 12.8434 36.8246 13.1535C36.8253 13.3753 36.826 13.5972 36.8268 13.8191C36.8289 14.4858 36.8302 15.1526 36.8313 15.8193C36.8317 16.0077 36.832 16.1962 36.8324 16.3846C36.8346 17.5558 36.8365 18.727 36.8376 19.8982C36.8378 20.1694 36.8381 20.4406 36.8384 20.7118C36.8384 20.7792 36.8385 20.8466 36.8386 20.916C36.8397 22.0068 36.8426 23.0975 36.8462 24.1882C36.8499 25.3091 36.852 26.4299 36.8524 27.5508C36.8527 28.1797 36.8537 28.8086 36.8566 29.4375C36.8593 30.0296 36.8598 30.6217 36.8588 31.2138C36.8588 31.4306 36.8595 31.6474 36.861 31.8642C36.8717 33.4642 36.7653 34.6101 35.6218 35.8186C35.0245 36.3825 34.1868 36.8173 33.3571 36.8198C33.2385 36.8204 33.2385 36.8204 33.1175 36.8211C33.0309 36.8211 32.9444 36.8212 32.8552 36.8212C32.763 36.8216 32.6708 36.822 32.5758 36.8224C32.2658 36.8236 31.9558 36.8241 31.6457 36.8246C31.4238 36.8253 31.2019 36.826 30.9801 36.8268C30.3133 36.8289 29.6466 36.8302 28.9799 36.8313C28.7915 36.8317 28.603 36.832 28.4146 36.8324C27.2434 36.8346 26.0722 36.8365 24.901 36.8376C24.6298 36.8378 24.3586 36.8381 24.0874 36.8384C23.9863 36.8385 23.9863 36.8385 23.8831 36.8386C22.7924 36.8397 21.7017 36.8426 20.611 36.8462C19.4901 36.8499 18.3692 36.852 17.2484 36.8524C16.6195 36.8527 15.9906 36.8537 15.3617 36.8566C14.7696 36.8593 14.1775 36.8598 13.5854 36.8588C13.3686 36.8588 13.1518 36.8595 12.935 36.861C11.335 36.8717 10.1891 36.7653 8.98059 35.6218C8.4167 35.0245 7.9819 34.1868 7.97942 33.3571C7.97898 33.278 7.97854 33.199 7.97808 33.1175C7.97804 33.0309 7.97799 32.9444 7.97795 32.8552C7.97757 32.763 7.97718 32.6708 7.97679 32.5758C7.97562 32.2658 7.97508 31.9558 7.97455 31.6457C7.97386 31.4238 7.97313 31.2019 7.97238 30.9801C7.97029 30.3133 7.96896 29.6466 7.96784 28.9799C7.96751 28.7915 7.96716 28.603 7.96681 28.4146C7.9646 27.2434 7.96268 26.0722 7.96159 24.901C7.96134 24.6298 7.96108 24.3586 7.96082 24.0874C7.96075 24.02 7.96069 23.9526 7.96062 23.8831C7.95951 22.7924 7.95661 21.7017 7.95297 20.611C7.94926 19.4901 7.94721 18.3692 7.94676 17.2484C7.94646 16.6195 7.94544 15.9906 7.94256 15.3617C7.93984 14.7696 7.93938 14.1775 7.94041 13.5854C7.94042 13.3686 7.9397 13.1518 7.93817 12.935C7.92744 11.335 8.03388 10.1891 9.1774 8.98059C9.77472 8.4167 10.6124 7.9819 11.4421 7.97942ZM29.4727 11.6589C29.0284 12.3575 28.9728 13.024 29.0361 13.842C29.195 14.4641 29.572 15.0162 30.1085 15.3708C30.8374 15.785 31.5826 15.9156 32.4134 15.7034C33.196 15.3776 33.6622 14.8661 34.0135 14.104C34.2104 13.5131 34.1992 12.7655 33.9589 12.1883C33.6191 11.5445 33.1497 11.0478 32.4625 10.7785C31.3051 10.4504 30.2614 10.7739 29.4727 11.6589ZM15.6758 16.1997C13.8936 18.1111 13.2198 20.471 13.285 23.034C13.3424 24.3227 13.6994 25.4454 14.2786 26.5911C14.3253 26.6835 14.372 26.7759 14.4202 26.8711C15.5817 28.9964 17.6574 30.5618 19.9655 31.2464C22.4574 31.8473 24.8803 31.5131 27.115 30.2586C27.4889 30.0269 27.8282 29.7577 28.1629 29.4727C28.2377 29.4109 28.3126 29.3491 28.3897 29.2854C30.0452 27.8654 31.2311 25.8044 31.4811 23.6221C31.6772 21.0462 31.1754 18.6362 29.4727 16.6363C29.4109 16.5615 29.3491 16.4866 29.2854 16.4095C27.6745 14.5315 25.421 13.4712 22.9726 13.2416C20.1484 13.1178 17.6458 14.2034 15.6758 16.1997Z" fill="white"/>
<path d="M26.306 17.0124C26.6265 17.2744 26.9146 17.5621 27.2019 17.8597C27.2663 17.9214 27.3307 17.9831 27.397 18.0467C28.5163 19.1833 28.9773 20.7981 28.992 22.3514C28.9754 24.112 28.4401 25.7201 27.176 26.9754C27.0981 27.0506 27.0202 27.1258 26.9399 27.2032C26.8783 27.2676 26.8166 27.332 26.753 27.3984C25.6053 28.5286 23.9676 28.9778 22.3992 28.9934C20.6598 28.9761 19.0621 28.4239 17.8243 27.1773C17.7491 27.0994 17.6739 27.0215 17.5964 26.9413C17.5321 26.8796 17.4677 26.8179 17.4013 26.7544C16.8387 26.183 16.5116 25.4872 16.1993 24.7582C16.1592 24.6651 16.1191 24.572 16.0779 24.4761C15.6059 23.1383 15.641 21.346 16.1993 20.0428C16.2223 19.9873 16.2452 19.9318 16.2689 19.8746C16.6536 18.9638 17.15 18.2817 17.8584 17.5978C17.9201 17.5334 17.9818 17.469 18.0453 17.4027C20.1582 15.3221 23.9803 15.281 26.306 17.0124Z" fill="white"/>
</svg>
