<svg width="45" height="45" viewBox="0 0 45 45" fill="none" xmlns="http://www.w3.org/2000/svg">
<path d="M5.17246 0.412223C5.32803 0.411864 5.48361 0.411394 5.63918 0.410823C6.06519 0.409585 6.49118 0.409947 6.91719 0.41058C7.37722 0.410986 7.83724 0.409913 8.29727 0.409035C9.19792 0.407561 10.0986 0.407489 10.9992 0.407938C11.7314 0.408285 12.4635 0.408161 13.1956 0.407702C13.352 0.407606 13.352 0.407606 13.5116 0.407508C13.7234 0.407377 13.9352 0.407245 14.1469 0.407112C16.1326 0.405935 18.1182 0.406401 20.1039 0.407385C21.9198 0.408237 23.7357 0.407127 25.5516 0.405075C27.417 0.402983 29.2823 0.40216 31.1477 0.40273C32.1946 0.403029 33.2416 0.402838 34.2885 0.401336C35.1798 0.400074 36.071 0.400019 36.9622 0.401514C37.4168 0.402244 37.8713 0.402428 38.3258 0.401115C38.7423 0.399927 39.1588 0.400337 39.5753 0.401993C39.7256 0.402315 39.8758 0.402065 40.0261 0.401169C41.4521 0.393269 42.6194 0.694761 43.6985 1.65685C44.786 2.79698 44.9938 3.96277 44.9879 5.4579C44.9883 5.61002 44.9887 5.76214 44.9893 5.91426C44.9906 6.3308 44.9902 6.74733 44.9896 7.16387C44.9892 7.61367 44.9903 8.06347 44.9912 8.51328C44.9927 9.39391 44.9927 10.2745 44.9923 11.1552C44.9919 11.8711 44.9921 12.5869 44.9925 13.3028C44.9926 13.4047 44.9927 13.5067 44.9927 13.6117C44.9929 13.8188 44.993 14.0259 44.9931 14.233C44.9943 16.1745 44.9939 18.116 44.9928 20.0575C44.992 21.8331 44.9931 23.6086 44.9952 25.3842C44.9973 27.2081 44.9982 29.032 44.9976 30.8559C44.9973 31.8796 44.9975 32.9033 44.999 33.927C45.0003 34.7984 45.0004 35.6698 44.9989 36.5413C44.9981 36.9857 44.9979 37.4301 44.9993 37.8746C45.0005 38.2818 45.0001 38.689 44.9984 39.0962C44.998 39.2432 44.9983 39.3901 44.9992 39.537C45.0073 40.9313 44.6989 42.0727 43.715 43.1279C42.5489 44.1911 41.3567 44.3943 39.8275 44.3886C39.672 44.3889 39.5164 44.3894 39.3608 44.39C38.9348 44.3912 38.5088 44.3908 38.0828 44.3902C37.6228 44.3898 37.1628 44.3909 36.7027 44.3918C35.8021 44.3932 34.9014 44.3933 34.0008 44.3928C33.2686 44.3925 32.5365 44.3926 31.8044 44.3931C31.7001 44.3931 31.5958 44.3932 31.4884 44.3933C31.2766 44.3934 31.0648 44.3935 30.8531 44.3937C28.8674 44.3948 26.8818 44.3944 24.8961 44.3934C23.0802 44.3925 21.2643 44.3937 19.4484 44.3957C17.583 44.3978 15.7177 44.3986 13.8523 44.3981C12.8054 44.3978 11.7584 44.3979 10.7115 44.3994C9.82023 44.4007 8.929 44.4008 8.03775 44.3993C7.58321 44.3985 7.12869 44.3984 6.67415 44.3997C6.25766 44.4009 5.84119 44.4004 5.4247 44.3988C5.27443 44.3985 5.12416 44.3987 4.97389 44.3996C3.5479 44.4075 2.38064 44.106 1.30146 43.1439C0.214028 42.0038 0.00623602 40.838 0.0121009 39.3429C0.0117346 39.1908 0.011254 39.0386 0.0106696 38.8865C0.00940399 38.47 0.00977325 38.0535 0.010421 37.6369C0.0108363 37.1871 0.00973848 36.7373 0.0088407 36.2875C0.00733335 35.4069 0.00725943 34.5262 0.00771916 33.6456C0.0080738 32.9297 0.00794701 32.2139 0.00747825 31.498C0.00741261 31.396 0.0073468 31.2941 0.00727917 31.1891C0.00714484 30.982 0.00700984 30.7749 0.00687432 30.5678C0.00567057 28.6263 0.00614738 26.6848 0.0071537 24.7433C0.00802486 22.9677 0.00689006 21.1922 0.0047915 19.4166C0.00265208 17.5927 0.00180944 15.7688 0.00239283 13.9449C0.00269912 12.9212 0.00250315 11.8975 0.000967147 10.8738C-0.000324216 10.0024 -0.000379696 9.13096 0.00114883 8.25953C0.00189538 7.81509 0.00208358 7.37067 0.000740965 6.92623C-0.000474038 6.51899 -5.52062e-05 6.11178 0.001639 5.70454C0.00196867 5.55761 0.00171308 5.41068 0.000796172 5.26375C-0.00728294 3.86945 0.30106 2.72813 1.28502 1.67293C2.45106 0.609662 3.64334 0.406488 5.17246 0.412223ZM7.05027 7.79181C6.2668 8.75785 6.06632 9.88522 6.18584 11.0799C6.32255 11.6847 6.60817 12.2087 6.97524 12.7094C7.03855 12.796 7.10187 12.8827 7.1671 12.972C7.8477 13.7328 8.79922 14.1338 9.80938 14.2477C11.0062 14.3047 11.9668 13.9504 12.8683 13.2078C13.7062 12.4407 14.0984 11.5067 14.1675 10.3981C14.1675 9.46593 13.8506 8.65363 13.2904 7.90671C13.1954 7.77936 13.1954 7.77936 13.0985 7.64943C12.5333 7.00576 11.7237 6.70999 10.9222 6.44877C9.37558 6.34839 8.15149 6.67207 7.05027 7.79181ZM26.0961 19.2272C26.0218 19.2814 25.9476 19.3356 25.871 19.3914C25.6286 19.5945 25.4396 19.8139 25.241 20.058C24.8682 20.5136 24.8682 20.5136 24.7805 20.5994C24.7515 19.7504 24.7226 18.9013 24.6928 18.0266C22.493 18.0266 20.2932 18.0266 18.0268 18.0266C18.0268 24.5359 18.0268 31.0451 18.0268 37.7517C20.2265 37.7517 22.4263 37.7517 24.6928 37.7517C24.696 36.9031 24.6993 36.0545 24.7027 35.1802C24.7054 34.6416 24.7081 34.103 24.7111 33.5644C24.7159 32.7102 24.7204 31.8559 24.7231 31.0016C24.7252 30.3793 24.7281 29.7571 24.7321 29.1348C24.7342 28.8056 24.7359 28.4765 24.7364 28.1474C24.7369 27.8368 24.7387 27.5262 24.7414 27.2156C24.7425 27.0489 24.7424 26.8822 24.7422 26.7154C24.7548 25.5445 24.9927 24.6833 25.7782 23.794C26.6418 23.0702 27.5148 22.8101 28.6416 22.8924C29.0893 22.9506 29.4764 23.1325 29.8677 23.3438C29.9269 23.3747 29.9862 23.4057 30.0472 23.4376C30.7255 23.8484 31.1353 24.588 31.3588 25.3163C31.4283 25.6631 31.4581 25.9922 31.4604 26.3453C31.4616 26.4968 31.4616 26.4968 31.463 26.6514C31.4635 26.761 31.464 26.8706 31.4645 26.9836C31.4653 27.1011 31.4662 27.2186 31.4671 27.3361C31.4695 27.6541 31.4713 27.9722 31.4731 28.2902C31.475 28.6229 31.4774 28.9557 31.4797 29.2884C31.4841 29.918 31.4881 30.5476 31.4919 31.1772C31.497 32.0284 31.5028 32.8795 31.5086 33.7306C31.5177 35.071 31.5258 36.4113 31.5342 37.7517C33.734 37.7517 35.9337 37.7517 38.2002 37.7517C38.2053 35.514 38.2053 35.514 38.2087 33.2763C38.2098 32.363 38.211 31.4496 38.2134 30.5363C38.2152 29.8709 38.2163 29.2055 38.2167 28.5402C38.2169 28.1884 38.2174 27.8366 38.2187 27.4848C38.2199 27.1526 38.2203 26.8203 38.22 26.4881C38.2201 26.3672 38.2204 26.2464 38.2211 26.1255C38.2348 23.5738 37.531 21.5262 35.7032 19.6966C34.4298 18.5142 32.6812 17.7145 30.9202 17.5978C30.8584 17.5933 30.7965 17.5889 30.7328 17.5844C28.988 17.5167 27.4531 18.2148 26.0961 19.2272ZM6.79982 18.0266C6.79982 24.5359 6.79982 31.0451 6.79982 37.7517C8.9996 37.7517 11.1994 37.7517 13.4658 37.7517C13.4658 31.2424 13.4658 24.7331 13.4658 18.0266C11.266 18.0266 9.06626 18.0266 6.79982 18.0266Z" fill="white"/>
</svg>
