<svg width="67" height="51" viewBox="0 0 67 51" fill="none" xmlns="http://www.w3.org/2000/svg">
<path d="M66.92 48.6901C66.5463 48.1649 66.0574 47.7324 65.4906 47.4256C64.9237 47.1188 64.2943 46.9458 63.6502 46.9201C62.1145 46.7787 60.5678 47.0227 59.1502 47.63C57.6863 48.3822 56.1805 49.0499 54.6402 49.63C54.313 49.7264 53.9786 49.7967 53.6402 49.8401H53.2701H52.8902C52.2735 49.7894 51.6774 49.5941 51.1502 49.2701C50.5181 48.8635 50.034 48.2638 49.7701 47.5601C49.9801 47.4501 50.1802 47.3301 50.3802 47.2001C51.7119 46.3039 52.834 45.1304 53.67 43.76C54.2092 43.0121 54.5312 42.1296 54.6002 41.2101C54.6067 40.8473 54.5233 40.4886 54.3575 40.1658C54.1918 39.843 53.9489 39.5663 53.6502 39.3601C53.3106 39.1613 52.9236 39.0577 52.5301 39.0601C52.0764 39.0208 51.6195 39.0788 51.19 39.2301C50.5793 39.542 50.0902 40.0487 49.8001 40.6701C49.3963 41.425 49.0616 42.2149 48.8001 43.0301C48.4728 43.9177 48.297 44.8541 48.2801 45.8001C48.279 46.3948 48.3875 46.9847 48.6002 47.5401C48.0909 47.8142 47.5502 48.0257 46.9901 48.1701C46.6894 48.2533 46.3813 48.3069 46.0702 48.3301C45.8241 48.3549 45.5762 48.3549 45.3302 48.3301C43.99 48.1902 42.7462 47.5683 41.8302 46.5801C41.362 46.0694 41.0196 45.4565 40.8302 44.7901C41.2999 44.5022 41.6886 44.0996 41.96 43.6202C42.1627 43.2699 42.3049 42.8878 42.3802 42.4902C42.4099 42.3707 42.4107 42.2458 42.3829 42.1259C42.3551 42.006 42.2993 41.8943 42.2201 41.8001C42.0576 41.6166 41.8335 41.4992 41.5902 41.4701C41.1722 41.375 40.7381 41.375 40.3202 41.4701C39.6602 41.6401 39.5801 42.3401 39.5301 42.9301C39.4777 43.5427 39.5387 44.1597 39.71 44.7502C39.5073 44.8706 39.2885 44.9614 39.0601 45.0201L38.7201 45.0901H38.6302C38.2993 45.0444 37.9801 44.9357 37.69 44.7701C37.8034 44.6634 37.9034 44.5534 37.9901 44.4401C38.2898 44.1695 38.5211 43.8318 38.6654 43.4546C38.8096 43.0775 38.8627 42.6716 38.8202 42.2701C38.7877 42.105 38.7223 41.9482 38.6278 41.809C38.5333 41.6698 38.4116 41.5512 38.2701 41.4601C37.831 41.2526 37.3385 41.1862 36.8602 41.2701C36.4823 41.2688 36.1178 41.4103 35.8397 41.6662C35.5616 41.922 35.3904 42.2734 35.3602 42.6501C35.3425 43.0084 35.4101 43.3659 35.5579 43.6928C35.7058 44.0197 35.9293 44.3067 36.21 44.5301C36.3219 44.6246 36.4425 44.7083 36.5702 44.7801L36.2401 45.0901C35.779 45.5131 35.2686 45.879 34.7201 46.1801C33.6247 46.7741 32.4331 47.1703 31.2 47.3501C29.9622 47.5339 28.7112 47.6142 27.46 47.5901H27.3302C27.4863 47.5535 27.6299 47.4757 27.7459 47.3649C27.862 47.2541 27.9462 47.1144 27.9901 46.9601C27.9901 46.8401 27.9901 46.7101 27.9901 46.5901V45.9301V44.7502V41.7502L28.0501 36.9701V35.8702C28.0609 35.8411 28.0609 35.8091 28.0501 35.7801C28.0129 35.6873 27.9693 35.597 27.92 35.51L27.5802 34.8001L26.44 32.4101L24.8602 29.0601L22.9901 25.13L20.9901 20.9902L19.1102 16.9902L17.4801 13.5601L16.3001 11.0701L15.7301 9.87016V9.8101C15.7334 9.78688 15.7334 9.76337 15.7301 9.74015L13.8402 5.74015L13.5802 5.1901L12.0201 1.90006C11.8148 1.45713 11.5106 1.06728 11.1309 0.760415C10.7513 0.453548 10.3063 0.23783 9.83017 0.130044C9.15392 -0.0351761 8.44554 -0.0143857 7.78012 0.190102C7.56012 0.270102 7.35022 0.370132 7.14022 0.470132L3.24008 2.32011C2.67359 2.55216 2.1574 2.89175 1.72006 3.32011C1.32207 3.74309 1.05544 4.27245 0.952481 4.84403C0.849525 5.41562 0.914841 6.00481 1.14023 6.54008C1.36023 7.04008 1.61018 7.54005 1.84018 8.01005L2.73007 9.90006L2.79013 10.01L4.67001 14.01L4.94003 14.5801V14.6401L5.27011 15.3401L6.32016 17.5601L7.8602 20.7901L9.70004 24.6701L11.7 28.8001L13.6102 32.8001L15.2901 36.3201L16.5401 38.9701L17.21 40.3702L17.2601 40.4902C17.2567 40.5203 17.2624 40.5508 17.2767 40.5776C17.291 40.6043 17.3132 40.6261 17.3402 40.6401L19.71 42.5201L23.45 45.5201L24.3202 46.2101L24.46 46.2901C24.95 46.6901 25.46 47.0901 25.94 47.4701C26.0459 47.5406 26.1602 47.5976 26.2801 47.6401H25.4801L23.4801 47.5701C22.8401 47.5701 22.2102 47.5701 21.5702 47.5701C21.5102 47.5701 21.0101 47.5701 21.0101 47.6601C21.0101 47.7501 21.5402 47.7402 21.5702 47.7402H22.5702H23.5702L25.7401 47.8201C27.2901 47.8868 28.8429 47.8635 30.3902 47.7502C32.908 47.6815 35.3328 46.7853 37.2901 45.2001C37.5168 45.2596 37.7473 45.303 37.9801 45.3301C38.5837 45.4035 39.1953 45.3765 39.7901 45.2502C40.0851 46.0271 40.5738 46.7156 41.21 47.2502C42.4829 48.2018 44.0418 48.6919 45.6302 48.6401C46.6913 48.6537 47.7457 48.4707 48.7401 48.1001C49.1126 48.8057 49.7112 49.3656 50.44 49.6901C51.1932 49.9928 51.9984 50.1456 52.8101 50.1401C53.646 50.1541 54.48 50.0567 55.2901 49.8501C56.9738 49.2456 58.6171 48.5342 60.21 47.7201C60.9052 47.4152 61.6446 47.2228 62.4002 47.1501C62.6592 47.1179 62.921 47.1179 63.18 47.1501C63.5242 47.2045 63.8601 47.3019 64.18 47.4401C64.8039 47.7091 65.3332 48.1583 65.7 48.7301C65.77 48.8501 66.1401 48.8201 66.2601 48.8201C66.4846 48.8041 66.7062 48.7605 66.92 48.6901ZM16.1502 12.7901L17.6302 15.9301L19.43 19.7101L21.3602 23.7801L23.2401 27.7801L24.92 31.3201L26.2301 34.0701L26.9801 35.6501C27.0281 35.7293 27.0684 35.813 27.1002 35.9001C27.1002 35.9001 27.1002 35.9602 27.1002 35.9902C27.0607 36.1304 27.0104 36.2674 26.95 36.4001C26.8606 36.5927 26.739 36.7686 26.5902 36.9201C26.5167 37.0011 26.4326 37.0717 26.3402 37.13L26.21 37.2001H26.1402L25.9002 37.1001L25.71 36.9902L25.4002 36.3301L24.5001 34.4401L23.18 31.6701L21.5702 28.26L19.8001 24.5301L18.0101 20.7701L16.3502 17.2801L14.94 14.2801L13.94 12.1501C13.79 11.8301 13.6401 11.5001 13.4801 11.1501L14.5802 10.63L15.0702 10.4001L15.2 10.6701L16.1502 12.7901ZM21.8602 39.1701H21.42H21.2701H21.17H21.0401H20.95L20.6502 38.5501L19.7601 36.6601L18.44 33.88L16.8202 30.4801L15.0501 26.7502L13.2701 22.9902L11.6102 19.4902L10.2 16.4902L9.20004 14.3501C9.04004 14.0301 8.90008 13.7001 8.74008 13.3501L9.32016 13.0701L12.5401 11.5501L12.6202 11.7201L13.5201 13.6001L14.8402 16.38L16.45 19.7901L18.2201 23.51L20.0101 27.2801L21.67 30.7701L23.0802 33.7701L24.0802 35.9001C24.2402 36.2401 24.3901 36.5801 24.5601 36.9001C24.3509 37.3596 24.0632 37.7792 23.71 38.1401C23.4047 38.4822 23.0298 38.7551 22.6102 38.9401C22.3838 39.037 22.1448 39.1009 21.9002 39.13L21.8602 39.1701ZM2.43002 6.65006C2.30448 6.40278 2.21062 6.14083 2.15023 5.87016C2.05626 5.34285 2.12238 4.79943 2.34018 4.3101C2.54856 3.83644 2.8977 3.4384 3.34018 3.17008C3.47018 3.09008 3.6201 3.03012 3.7601 2.96012L7.57016 1.15006L8.13022 0.880044H8.24008C8.3393 0.832691 8.44326 0.795839 8.55014 0.770058H8.66H8.87021H9.10019H9.25009H9.39023C9.61989 0.829749 9.83898 0.9242 10.0401 1.05009C10.4443 1.30814 10.7668 1.67582 10.9701 2.11015L12.4901 5.32011L9.42001 6.78007L4.19003 9.27006L3.71005 9.49015L2.43002 6.65006ZM4.23007 10.4501L4.04013 10.0401L7.1102 8.58012L12.3402 6.10014L12.8202 5.87016L14.5001 9.39005L14.69 9.80009L11.6202 11.26L6.39022 13.7402L5.91 13.9701L4.23007 10.4501ZM17.2301 37.9301L15.9002 35.13L14.2801 31.7101L12.5001 27.9701L10.7 24.1901L9.03012 20.6701L7.62021 17.6701L6.62021 15.5301L6.17001 14.5301L7.7601 13.7701L7.84018 13.9401L8.73007 15.8301L10.0501 18.6101L11.67 22.01L13.44 25.7402L15.2301 29.5002L16.8902 33.0002L18.2901 36.0002L19.2901 38.13C19.4501 38.47 19.5901 38.81 19.7701 39.13C19.7532 39.55 19.5946 39.9518 19.3202 40.2701C19.2185 40.3886 19.0873 40.4782 18.94 40.5301H18.8402H18.7401H18.6202L18.44 40.3901L18.18 39.8301L17.2301 37.9301ZM22.9901 44.0401L19.2501 41.0401L19.0601 40.9001C19.2586 40.8888 19.456 40.8621 19.6502 40.8201C19.8908 40.7679 20.1148 40.6578 20.3031 40.4992C20.4913 40.3406 20.6379 40.1383 20.7301 39.9101C20.7931 39.7691 20.8402 39.6216 20.8702 39.4701C21.5384 39.5439 22.2142 39.5068 22.8702 39.3601C23.3742 39.2423 23.8497 39.025 24.2686 38.7211C24.6876 38.4172 25.0417 38.0327 25.3101 37.5901L25.43 37.3901H25.6302C26.1125 37.4952 26.6145 37.4641 27.0802 37.3001V38.8601L27.0201 43.6401V44.3901C26.4893 44.3808 25.9641 44.501 25.4901 44.7402C25.2054 44.8807 24.9453 45.0664 24.7201 45.2901L22.9901 44.0401ZM25.44 46.0401C25.4447 45.9774 25.4618 45.9163 25.4901 45.8601C25.6124 45.6117 25.8033 45.4034 26.0401 45.26C26.2197 45.1468 26.4108 45.053 26.6102 44.9801H26.7H26.8101H26.91V46.8901C26.9119 47.0007 26.8881 47.1104 26.8402 47.2101L26.16 46.6701L25.44 46.0401ZM36.5201 42.6401C36.5598 42.2927 36.7316 41.9741 37.0001 41.7502C37.0628 41.7011 37.1297 41.6576 37.2 41.6202C36.93 41.6902 36.9201 41.4601 37.0601 41.5301L37.2301 41.6101L37.3902 41.5301C37.3347 41.5743 37.2695 41.6052 37.2 41.6202H37.2701C37.5183 41.8558 37.6822 42.1664 37.7364 42.5043C37.7906 42.8422 37.7322 43.1887 37.5702 43.4902C37.4278 43.782 37.2534 44.0569 37.0501 44.3101C36.8361 44.0696 36.6805 43.7829 36.5955 43.4725C36.5106 43.162 36.4985 42.836 36.5601 42.5201L36.5201 42.6401ZM40.7501 42.5301C40.7648 42.2628 40.8707 42.0087 41.0501 41.8101C41.4301 42.1201 41.3102 42.6501 41.1502 43.0801C41.0402 43.4085 40.8816 43.7186 40.68 44.0002C40.6284 43.4677 40.6657 42.9303 40.7901 42.4101L40.7501 42.5301ZM49.42 45.5801C49.4852 44.7163 49.6668 43.8652 49.96 43.0501C50.1936 42.3054 50.4846 41.5798 50.8302 40.88C51.0941 40.2858 51.5339 39.7867 52.0902 39.4501C52.1533 39.4177 52.2206 39.394 52.2901 39.38L52.44 39.4401C52.7255 39.6026 52.9636 39.8371 53.1302 40.1202C53.9702 41.5202 53.01 43.1801 52.2 44.3501C51.4841 45.4027 50.5909 46.323 49.5601 47.0701C49.4456 46.5416 49.4118 45.9988 49.46 45.4601L49.42 45.5801Z" fill="white"/>
</svg>
