<svg width="67" height="50" viewBox="0 0 67 50" fill="none" xmlns="http://www.w3.org/2000/svg">
<g clip-path="url(#clip0_8_396)">
<path d="M66.8901 46.46C66.5024 45.9218 65.9977 45.4784 65.4141 45.1632C64.8304 44.8479 64.1828 44.669 63.52 44.64C61.9333 44.4889 60.3342 44.74 58.8701 45.3699C57.3549 46.1222 55.7991 46.7899 54.21 47.3699C53.8834 47.4712 53.5489 47.5449 53.21 47.59C53.0835 47.5999 52.9566 47.5999 52.8301 47.59H52.4399C51.8014 47.5403 51.1842 47.3379 50.6401 47C49.9896 46.5816 49.4916 45.9644 49.2202 45.2401C49.4302 45.1301 49.6401 44.9999 49.8501 44.8699C51.2253 43.9437 52.3818 42.7289 53.2397 41.31C53.8107 40.5432 54.157 39.6325 54.2397 38.68C54.2595 38.3893 54.2183 38.0977 54.1182 37.8241C54.0181 37.5504 53.8619 37.3009 53.6592 37.0916C53.4565 36.8823 53.2117 36.718 52.9414 36.6092C52.6711 36.5004 52.381 36.4496 52.0898 36.46C51.6222 36.4197 51.1516 36.481 50.71 36.64C50.0791 36.9567 49.5747 37.4786 49.2798 38.1199C48.8704 38.9 48.5356 39.717 48.2798 40.56C47.941 41.4764 47.7584 42.4432 47.7397 43.42C47.7355 44.0364 47.8513 44.6477 48.0801 45.22C47.5506 45.5009 46.9902 45.7189 46.4102 45.8699C46.0821 45.9543 45.7476 46.0112 45.4102 46.04C45.1577 46.0697 44.9024 46.0697 44.6499 46.04C43.2644 45.9006 41.9771 45.2607 41.0298 44.2401C40.5587 43.7085 40.2165 43.0753 40.0298 42.39C40.5125 42.0911 40.9117 41.6749 41.1899 41.18C41.397 40.8155 41.5454 40.4206 41.6299 40.01C41.6561 39.8871 41.6556 39.7601 41.6279 39.6375C41.6003 39.515 41.5466 39.3998 41.4702 39.3C41.2963 39.1119 41.0634 38.9885 40.8101 38.95C40.3747 38.86 39.9251 38.86 39.4897 38.95C38.8197 39.13 38.7302 39.86 38.6802 40.46C38.6267 41.0964 38.6911 41.7371 38.8701 42.3501C38.6607 42.4738 38.4354 42.5679 38.2002 42.63L37.8599 42.69H37.73C37.3767 42.6471 37.0362 42.5314 36.73 42.3501C36.83 42.2401 36.94 42.13 37.04 42.01C37.3462 41.7306 37.5824 41.3833 37.73 40.996C37.8776 40.6088 37.9327 40.1923 37.8901 39.78C37.8574 39.6085 37.7899 39.4456 37.6919 39.3011C37.5939 39.1566 37.4671 39.0338 37.3198 38.94C36.8689 38.7246 36.3625 38.6548 35.8701 38.7401C35.4783 38.7365 35.1 38.8823 34.812 39.148C34.524 39.4137 34.3478 39.7792 34.3198 40.17C34.303 40.5389 34.3728 40.9065 34.5239 41.2435C34.675 41.5804 34.9033 41.8773 35.1899 42.1101C35.3068 42.2056 35.4305 42.2924 35.5601 42.3699L35.23 42.69C34.7478 43.1208 34.2217 43.4996 33.6602 43.82C32.524 44.4244 31.2928 44.8302 30.02 45.02C28.7791 45.2067 27.5248 45.2903 26.27 45.27L24.96 45.2H25.0098H24.1899L22.1899 45.1199C21.5399 45.1199 20.8799 45.1199 20.1899 45.1199C20.1199 45.1199 19.6099 45.12 19.6099 45.21C19.6099 45.3 20.1499 45.3 20.1899 45.3H21.1899H22.2397L24.48 45.38C26.08 45.4516 27.6826 45.4283 29.2798 45.31C31.8819 45.237 34.388 44.3093 36.4102 42.67C36.6424 42.7368 36.8799 42.7836 37.1201 42.81C37.7435 42.8883 38.3753 42.8613 38.9897 42.7301C39.3068 43.508 39.8121 44.1952 40.46 44.7301C41.7735 45.7192 43.3865 46.2274 45.0298 46.17C46.1223 46.1876 47.2084 45.9976 48.23 45.6101C48.6171 46.3403 49.2361 46.9207 49.9897 47.26C50.7685 47.5719 51.6011 47.7283 52.4399 47.72C53.3029 47.7357 54.1641 47.6347 55 47.42C56.7371 46.7922 58.4338 46.0575 60.0801 45.22C60.8006 44.904 61.5669 44.7047 62.3501 44.63C62.6178 44.6145 62.8862 44.6314 63.1499 44.68C63.494 44.7396 63.8298 44.8404 64.1499 44.9801C64.7894 45.2603 65.3321 45.7229 65.71 46.31C65.79 46.44 66.16 46.4 66.29 46.4C66.4867 46.4456 66.6884 46.4658 66.8901 46.46ZM36.1099 41.9C35.8912 41.6684 35.7262 41.3917 35.626 41.0893C35.5258 40.787 35.4927 40.4663 35.5298 40.15C35.5697 39.7869 35.749 39.4536 36.0298 39.22C36.0918 39.1728 36.1591 39.1326 36.23 39.1001C35.96 39.1601 35.9401 38.92 36.1001 39L36.2598 39.08L36.4399 39L36.25 39.09H36.3198C36.5751 39.3319 36.7431 39.6515 36.7974 39.9989C36.8516 40.3463 36.7894 40.7018 36.6201 41.01C36.494 41.3297 36.3219 41.6295 36.1099 41.9ZM39.8999 40.03C39.9161 39.7552 40.0255 39.4942 40.21 39.29C40.6 39.6 40.4798 40.1501 40.3198 40.6001C40.2009 40.9346 40.0362 41.2509 39.8301 41.54C39.7783 41.036 39.8017 40.527 39.8999 40.03ZM48.8599 43.18C48.921 42.2877 49.1096 41.4088 49.4199 40.57C49.6555 39.7973 49.9533 39.0448 50.3101 38.32C50.5885 37.7122 51.0407 37.2007 51.6099 36.8501C51.6619 36.807 51.7274 36.7833 51.7949 36.7833C51.8625 36.7833 51.928 36.807 51.98 36.8501C52.2766 37.0136 52.5222 37.2558 52.6899 37.55C53.5599 39 52.5599 40.71 51.6899 41.92C50.9515 43.0065 50.0274 43.9544 48.96 44.72C48.8507 44.2145 48.8169 43.6955 48.8599 43.18Z" fill="white"/>
<path d="M26.2701 3.65C28.5901 5.71 29.4901 8.46006 29.8501 11.4601C30.1 14.7865 29.8197 18.1314 29.0201 21.37C28.4001 24.52 28.0199 27.71 27.3799 30.87C26.5599 35.19 25.67 39.49 24.75 43.79C24.4879 44.4034 24.134 44.9733 23.7002 45.4801C18.5302 40.7001 13.9199 35.81 9.37993 30.87C7.61993 28.96 5.83026 27.08 3.97026 25.26C1.63465 22.8352 0.234163 19.661 0.0181143 16.3012C-0.197934 12.9415 0.784273 9.61394 2.79009 6.91001C6.55009 1.73001 11.6098 -0.650001 18.0298 0.149999C19.1998 0.299999 20.35 0.590072 21.5 0.850072C23.3061 1.35353 24.9501 2.31844 26.2701 3.65ZM28.0098 18.1001C28.7229 14.8277 28.466 11.4184 27.2701 8.29001C26.0101 5.29001 24.0599 2.94005 20.8199 2.08005C19.0765 1.62025 17.2829 1.37843 15.48 1.36008C13.26 1.2648 11.0655 1.86237 9.20024 3.07004C8.08024 3.82004 7.03001 4.67997 5.96001 5.49997C5.62935 5.71473 5.33545 5.98154 5.08989 6.29001C3.23989 9.01001 1.59013 11.77 1.58013 15.29C1.48556 16.7848 1.69364 18.2833 2.19194 19.6958C2.69025 21.1082 3.46843 22.4055 4.48003 23.51C6.00003 25.1 7.47979 26.69 8.98979 28.3C11.8698 31.41 14.7002 34.56 17.6202 37.63C19.4002 39.5 21.3098 41.25 23.4898 43.37C23.7898 41.96 24.03 40.99 24.21 40C25.4833 32.6933 26.7498 25.3934 28.0098 18.1001Z" fill="white"/>
<path d="M24.9303 10.55C26.3103 13.08 25.9303 15.67 24.9303 18.22C24.4369 19.4763 23.6646 20.6041 22.672 21.5187C21.6795 22.4333 20.4927 23.1107 19.2003 23.4999C18.0946 23.6211 16.9826 23.6779 15.8703 23.67C13.1426 23.4501 10.5563 22.3639 8.4899 20.57C4.8999 17.57 4.72031 10.8 9.16031 7.57C10.5046 6.55168 12.0129 5.77039 13.6203 5.25994C17.3503 4.14994 20.5002 5.43 23.0802 8.19C23.7889 8.89996 24.4101 9.69226 24.9303 10.55ZM23.7799 11.55C23.6932 11.1077 23.4896 10.6968 23.1901 10.36C22.6 9.60358 21.9547 8.89164 21.2599 8.23004C20.2644 7.24754 19.011 6.56723 17.6447 6.26812C16.2783 5.96901 14.8552 6.06327 13.5402 6.53997C12.0086 6.99079 10.6451 7.88632 9.6232 9.11297C8.60128 10.3396 7.96674 11.8422 7.79996 13.43C7.57111 14.5495 7.64724 15.7099 8.02017 16.79C8.3931 17.8701 9.04925 18.8302 9.92007 19.57C11.1353 20.5806 12.5731 21.2888 14.1149 21.6364C15.6567 21.9841 17.2589 21.9613 18.7902 21.57C20.1098 21.1928 21.3 20.4593 22.2301 19.45C24.1701 17.09 24.1899 14.37 23.7799 11.57V11.55Z" fill="white"/>
<path d="M21.3198 45.1799C20.6698 45.5199 20.3801 45.8099 20.1401 45.7799C17.6201 45.4399 15.0198 46.32 12.5298 45.36C13.8689 44.8612 15.2917 44.6235 16.7202 44.6599C18.1302 44.4999 19.5898 44.0299 21.3198 45.1799Z" fill="white"/>
<path d="M19.48 46.74C19.7758 46.8193 20.0612 46.9334 20.3301 47.08C20.2126 47.4141 20.0324 47.7229 19.7998 47.99C19.5698 48.19 19.1701 48.1899 18.8501 48.2999C17.2501 48.7999 15.6601 49.2999 14.0601 49.8099C13.6646 49.8991 13.2635 49.9625 12.8599 49.9999C14.7999 48.7499 16.5899 47.34 18.8599 46.85C19.0591 46.7796 19.2687 46.7425 19.48 46.74Z" fill="white"/>
</g>
<defs>
<clipPath id="clip0_8_396">
<rect width="66.89" height="50" fill="white"/>
</clipPath>
</defs>
</svg>
