<svg width="78" height="50" viewBox="0 0 78 50" fill="none" xmlns="http://www.w3.org/2000/svg">
<path d="M77.23 0.139949C77.123 0.0710691 77.003 0.024909 76.8775 0.00426819C76.7519 -0.0163726 76.6235 -0.0110502 76.5 0.0199542C76.1619 0.0869601 75.828 0.173786 75.5 0.279964L73.61 0.760005C72.36 1.07001 71.11 1.36996 69.85 1.64996C64.83 2.78329 59.7667 3.67334 54.6601 4.32C49.5601 4.98 44.4201 5.39996 39.2801 5.58996C36.6934 5.68329 34.1067 5.71332 31.5201 5.67999H29.64C29.1058 5.65629 28.5714 5.72394 28.06 5.88C27.8108 5.95558 27.5809 6.08401 27.3859 6.25659C27.1909 6.42917 27.0353 6.64184 26.93 6.88C26.8659 7.09755 26.8497 7.32636 26.8825 7.55078C26.9153 7.77519 26.9963 7.98988 27.12 8.17999C27.3824 8.61968 27.721 9.00906 28.12 9.32995C28.63 9.76995 29.12 10.18 29.68 10.6L32.68 13.09L38.88 18.15L41.82 20.55C41.74 20.66 41.67 20.7899 41.6 20.8899C40.78 22.07 39.9901 23.28 39.2901 24.53C38.9748 25.072 38.7006 25.6369 38.47 26.22C38.2858 26.5988 38.2064 27.0201 38.24 27.44C38.3 27.79 38.64 27.91 38.95 27.96C39.4937 28.04 40.0463 28.04 40.59 27.96C42.0655 27.7321 43.5226 27.3978 44.95 26.96L45.95 26.6399H46.1C46.68 28.2799 47.32 29.89 47.92 31.51L50.11 37.3899L52.11 42.74C52.3357 43.6058 52.7602 44.4071 53.35 45.08C53.7174 45.4027 54.1942 45.5731 54.6829 45.5564C55.1716 45.5397 55.6355 45.3371 55.98 44.99C56.3109 44.636 56.551 44.2071 56.68 43.74C56.87 43.2 57.03 42.65 57.21 42.11C57.6 40.95 57.9901 39.79 58.4001 38.6399C59.2001 36.3699 60.06 34.11 60.96 31.88C62.7667 27.4 64.7667 23.01 66.96 18.71C69.1533 14.41 71.54 10.18 74.12 6.01995C74.76 5.01995 75.4 4.01995 76.06 3.01995C76.4 2.50995 76.74 2.01999 77.06 1.48999C77.34 0.939986 77.73 0.479949 77.23 0.139949ZM45.63 26.33H45.5201L45.33 26.3899L44.86 26.53C44.2534 26.71 43.6434 26.88 43.0301 27.04L42.56 27.15H42.47L42.2 27.21L41.32 27.38H41.1501H41.0401H40.6601H39.88C39.797 27.3894 39.7131 27.3894 39.63 27.38H39.5401L39.47 27.33C39.4097 27.21 39.3742 27.0791 39.3656 26.9451C39.357 26.8111 39.3755 26.6767 39.42 26.55C39.5386 26.1075 39.7029 25.6785 39.9101 25.27C40.1601 24.74 40.45 24.27 40.75 23.72C41.41 22.6 42.13 21.5099 42.87 20.4499C42.9242 20.4105 42.9687 20.3592 43 20.3C43.48 20.06 43.95 19.81 44.42 19.56L48.48 17.43L54.2 14.38C56.38 13.22 58.56 12.04 60.73 10.86C62.9 9.67998 65.07 8.48001 67.22 7.26001L67.72 6.97998C67.7031 7.01446 67.6793 7.04512 67.6501 7.07L66.3 8.25L63.51 10.72L57.82 15.72L52.6 20.41L48.6 24.06L46.6 25.91C46.4749 25.9464 46.3658 26.0239 46.2901 26.13L45.63 26.33ZM76.2801 1.09997L75.76 1.88L74.76 3.33996C72.21 7.26996 69.83 11.3399 67.61 15.4499C65.39 19.5599 63.35 23.83 61.49 28.15C59.63 32.47 57.96 36.81 56.49 41.24C56.3 41.8 56.12 42.37 55.93 42.93C55.8049 43.4151 55.6342 43.8871 55.42 44.34C55.3399 44.5069 55.2278 44.6564 55.09 44.78C54.98 44.87 55 44.88 54.87 44.85C54.499 44.7201 54.1845 44.4657 53.98 44.13C53.54 43.3929 53.2036 42.5988 52.98 41.77L52.05 39.27C50.6833 35.57 49.31 31.8733 47.93 28.18C47.66 27.48 47.39 26.77 47.14 26.06L47.83 25.43L49.6 23.83L52.14 21.53L55.2801 18.6999L58.8 15.55L62.5 12.25L66.21 8.96997L67.98 7.40997L68.42 7.01995C68.54 6.91995 68.7201 6.77997 68.64 6.59997C68.56 6.41997 68.2 6.39999 68 6.42999C67.7055 6.49862 67.4247 6.61696 67.17 6.77996C65.79 7.5733 64.4101 8.34664 63.0301 9.09997L58.73 11.48L54.45 13.79L50.45 15.93L46.98 17.76L44.2801 19.19L42.73 20L30.89 10.34L29.37 9.09997C28.9916 8.79213 28.6553 8.43572 28.37 8.03997C28.2203 7.8642 28.112 7.65701 28.0531 7.43371C27.9943 7.21041 27.9864 6.97675 28.0301 6.75C28.0829 6.58143 28.1899 6.43504 28.3346 6.33374C28.4793 6.23243 28.6535 6.18192 28.83 6.19C29.35 6.19 29.8301 6.19 30.4001 6.19H32.26C33.51 6.19 34.7601 6.19 36.0201 6.19C41.0334 6.10333 46.0334 5.79334 51.0201 5.26001C56.0201 4.72001 61.0201 3.95999 65.89 2.98999C68.3601 2.48999 70.8301 1.98997 73.2801 1.34997L75.0301 0.909969L75.95 0.669979L76.37 0.559993H76.43C76.48 0.809993 76.4201 0.899971 76.2801 1.09997Z" fill="white"/>
<path d="M36.0999 29.37C35.8419 29.3603 35.587 29.4301 35.37 29.57C33.2328 31.0586 31.0125 32.4241 28.7199 33.66C26.4899 34.88 24.2 35.99 21.87 37C20.72 37.5 19.5399 37.9999 18.3399 38.4499C18.5624 37.7834 18.7197 37.0968 18.8099 36.4C19.0999 34.13 18.81 31.4 17.04 29.72C15.27 28.04 12.0399 28.26 10.0999 29.72C9.14021 30.4803 8.40719 31.4892 7.98055 32.6369C7.5539 33.7847 7.44989 35.0273 7.67989 36.23C7.90466 37.4478 8.54429 38.5503 9.48995 39.35C10.4711 40.16 11.7332 40.5484 13 40.43C14.4032 40.2372 15.7749 39.8606 17.0799 39.31C16.6977 40.2725 16.1792 41.1751 15.54 41.99C13.9612 43.8224 11.9603 45.2433 9.70992 46.13C7.27992 47.19 4.62996 47.89 2.12996 48.86C1.4633 49.1133 0.823252 49.3833 0.209919 49.67C0.0999186 49.67 -0.120077 49.8799 0.0899235 49.9599C0.337739 50.0017 0.592329 49.9557 0.809894 49.8299C3.39989 48.6299 6.18994 47.9099 8.85994 46.8899C11.3177 46.0487 13.5798 44.7187 15.51 42.98C16.6841 41.8326 17.595 40.4439 18.1799 38.91C18.8999 38.63 19.6299 38.35 20.3499 38.05C22.7499 37.07 25.1065 35.99 27.4199 34.81C29.8542 33.5773 32.221 32.2153 34.51 30.73C35.07 30.37 35.62 29.99 36.16 29.61C36.16 29.61 36.3 29.5099 36.28 29.4499C36.26 29.3899 36.1499 29.38 36.0999 29.37ZM15.5899 39.48C14.4481 40.0051 13.1639 40.1353 11.9399 39.85C10.8858 39.5049 9.98907 38.7959 9.40999 37.85C8.82079 36.7954 8.54107 35.596 8.60299 34.3896C8.6649 33.1832 9.0659 32.0187 9.75997 31.03C10.0619 30.5898 10.4294 30.1987 10.8499 29.87C11.0582 29.7016 11.2827 29.5542 11.52 29.43L11.6899 29.34H11.7999L12 29.2699H12.0999H12.15C12.3682 29.2014 12.5925 29.1546 12.8199 29.13C13.0893 29.105 13.3605 29.105 13.63 29.13C14.1677 29.1713 14.6915 29.321 15.1699 29.57C17.2599 30.68 17.9 33.3 17.87 35.49C17.8589 36.6927 17.6495 37.8854 17.25 39.0199L15.5899 39.48Z" fill="white"/>
</svg>
