<svg width="219" height="70" viewBox="0 0 219 70" fill="none" xmlns="http://www.w3.org/2000/svg">
<path fill-rule="evenodd" clip-rule="evenodd" d="M141.583 43.5794C138.4 35.2582 134.958 27.6191 133.594 25.8002C133.357 25.4867 133.078 25.2068 132.766 24.9681C132.534 24.1269 132.084 22.5627 131.525 21.0849C132.685 20.6275 133.728 19.9183 134.581 19.0085C135.433 18.0987 136.073 17.011 136.454 15.8239C137.513 12.6955 136.804 9.38521 134.694 7.5891C133.6 6.67976 132.215 6.19543 130.793 6.22497C130.006 6.23264 129.223 6.35049 128.469 6.5751C127.922 4.90561 126.987 3.38947 125.741 2.15078C124.397 0.790985 122.569 0.0178539 120.657 0H120.425C119.275 0.0664786 118.149 0.361695 117.113 0.8684C116.078 1.37511 115.154 2.08313 114.396 2.95106C113.348 4.13245 112.572 5.52943 112.122 7.04345C111.296 6.8074 110.44 6.68651 109.58 6.68422C108.362 6.68417 107.158 6.95634 106.058 7.48082C104.958 8.00531 103.989 8.76889 103.221 9.71579C102.454 10.6627 101.908 11.769 101.623 12.954C101.337 14.139 101.32 15.3727 101.573 16.5651C102.287 19.748 104.924 22.2444 108.848 23.5267C108.603 26.2549 108.794 28.2056 109.421 29.4379C106.347 34.4397 98.0536 56.2112 96.8577 61.7768C95.7755 66.7786 97.4943 68.6793 98.6129 69.3659C98.7256 69.4352 98.8426 69.4975 98.963 69.5524C99.2305 69.6837 99.5244 69.7521 99.8224 69.7524C100.358 69.7512 100.872 69.5375 101.25 69.1582C101.629 68.7788 101.841 68.2648 101.841 67.729C101.846 67.3591 101.747 66.9954 101.556 66.6788C101.365 66.3622 101.089 66.1054 100.759 65.9374C100.609 65.701 100.359 64.7188 100.809 62.6362C101.068 61.4358 101.755 59.1941 102.76 56.2703C103.483 56.6977 104.183 57.1206 104.82 57.5071C110.208 60.7674 114.86 63.5775 120.357 63.5775C126.514 63.5775 132.716 60.0535 140.364 52.1779C142.474 58.3347 143.093 61.4858 142.97 62.3861C142.931 63.0004 142.68 63.5821 142.26 64.0322C142.048 64.1972 141.87 64.4031 141.738 64.6378C141.606 64.8725 141.522 65.1313 141.491 65.3989C141.461 65.6664 141.484 65.9374 141.56 66.1959C141.636 66.4543 141.762 66.695 141.933 66.9037C142.103 67.1124 142.313 67.285 142.551 67.4112C142.789 67.5375 143.05 67.6148 143.318 67.6388C143.586 67.6627 143.856 67.6327 144.113 67.5506C144.369 67.4685 144.607 67.3359 144.811 67.1606C145.975 66.2103 146.703 64.7961 146.971 62.9682C147.48 59.6397 143.811 49.3769 141.583 43.5794ZM105.547 15.6602C105.425 15.0569 105.44 14.434 105.589 13.837C105.739 13.24 106.02 12.6841 106.413 12.2098C106.805 11.7356 107.298 11.355 107.857 11.096C108.415 10.837 109.024 10.7062 109.64 10.713C110.306 10.7221 110.966 10.8467 111.59 11.0813C111.59 11.5148 111.604 11.9513 111.631 12.3908C111.671 12.9035 111.903 13.3821 112.281 13.7311C112.659 14.0801 113.154 14.2737 113.668 14.2733H113.782C114.047 14.2566 114.306 14.1875 114.544 14.0702C114.782 13.9528 114.995 13.7894 115.169 13.5894C115.344 13.3894 115.477 13.1568 115.561 12.9051C115.646 12.6533 115.679 12.3873 115.66 12.1226C115.428 8.66677 116.497 6.70241 117.433 5.66113C117.829 5.19327 118.315 4.80942 118.862 4.53219C119.408 4.25496 120.005 4.08996 120.616 4.04691H120.73C121.585 4.07745 122.392 4.44532 122.976 5.07001C124.128 6.22507 124.822 7.75787 124.931 9.3852C124.929 9.42912 124.929 9.47314 124.931 9.51707C124.931 9.58073 124.931 9.63984 124.931 9.71259C124.931 9.78534 124.931 9.81262 124.963 9.86719C124.995 9.92175 125 10.0081 125.022 10.0673C125.045 10.1264 125.063 10.1628 125.081 10.2082C125.1 10.2549 125.121 10.3005 125.145 10.3446C125.145 10.3856 125.191 10.4265 125.218 10.4674C125.245 10.5124 125.275 10.555 125.309 10.5947C125.347 10.6469 125.388 10.697 125.432 10.7448C125.477 10.7948 125.523 10.8403 125.573 10.8857C125.62 10.9294 125.67 10.9703 125.723 11.0085L125.886 11.1176L126.045 11.204C126.111 11.2375 126.18 11.2649 126.25 11.2859C126.305 11.3075 126.361 11.3257 126.418 11.3405C126.481 11.3579 126.545 11.3701 126.609 11.3768C126.666 11.3895 126.724 11.3971 126.782 11.3996H126.928H127.064H127.219L127.41 11.3586C127.475 11.3438 127.539 11.324 127.601 11.2995C127.65 11.2841 127.699 11.2659 127.746 11.245L127.873 11.1859C128.761 10.6572 129.762 10.3456 130.793 10.2764C131.252 10.2537 131.704 10.3973 132.066 10.6811C132.902 11.3905 133.134 13.0183 132.621 14.5462C132.398 15.277 131.987 15.9362 131.428 16.4568C130.869 16.9775 130.182 17.3411 129.438 17.5109C128.21 16.4014 126.496 15.9603 123.526 15.9603C121.985 15.9603 119.989 16.0785 117.238 16.3377C116.721 16.3869 116.244 16.633 115.904 17.0251C115.564 17.4171 115.388 17.9249 115.413 18.4431C115.437 18.9614 115.66 19.4503 116.036 19.8084C116.411 20.1665 116.91 20.3663 117.429 20.3664H117.615C120.23 20.1209 122.103 20.0072 123.526 20.0072C125.8 20.0072 126.564 20.3164 126.8 20.5756C126.854 20.683 126.918 20.785 126.991 20.8803C127.409 21.7073 127.761 22.5664 128.042 23.4494C127.419 23.3903 126.75 23.3584 126.045 23.3584C125.682 23.3584 125.304 23.3584 124.936 23.3812C121.467 23.5312 116.406 24.4179 112.804 26.4368C112.776 24.2518 112.994 22.0706 113.455 19.9345C113.561 19.4106 113.455 18.8661 113.162 18.4196C112.868 17.9732 112.409 17.6612 111.886 17.5518C111.75 17.5244 111.611 17.5107 111.472 17.5109C111.007 17.5126 110.557 17.6738 110.197 17.9677C109.837 18.2615 109.589 18.6701 109.494 19.1251C109.494 19.2115 109.458 19.3161 109.43 19.4434C106.57 18.3248 105.765 16.6378 105.547 15.6602ZM120.493 59.5806C116.124 59.5806 112.077 57.1343 106.957 54.0422C106.116 53.533 105.174 52.9646 104.183 52.378C107.157 44.1932 111.181 34.3124 112.95 31.4614C114.159 29.5243 119.861 27.6282 125.154 27.4008C125.477 27.4008 125.791 27.4008 126.091 27.4008C129.124 27.4008 130.242 28.051 130.374 28.2238C131.643 29.9199 135.735 39.396 138.877 47.8991C131.379 55.9747 125.695 59.5806 120.493 59.5806Z" fill="#EE3A3D"/>
<path d="M117.893 35.4855L117.852 35.5401C117.77 35.6556 117.652 35.7401 117.517 35.7797C117.382 35.8194 117.237 35.8118 117.106 35.7583C116.837 35.6412 116.557 35.5528 116.269 35.4946H116.156C115.096 35.4946 114.141 35.9903 113.173 36.3722C113.093 36.4055 113.008 36.422 112.922 36.4208C112.836 36.4197 112.751 36.4008 112.672 36.3654C112.594 36.33 112.523 36.2788 112.466 36.2151C112.408 36.1513 112.364 36.0763 112.336 35.9948C112.287 35.8557 112.288 35.7039 112.339 35.5654C112.389 35.4269 112.486 35.3103 112.613 35.2354C113.703 34.6123 114.918 34.241 116.169 34.1487C116.459 34.1206 116.752 34.1507 117.03 34.2374C117.308 34.3241 117.566 34.4655 117.788 34.6534C117.903 34.7564 117.976 34.8972 117.995 35.05C118.014 35.2028 117.978 35.3574 117.893 35.4855Z" fill="black"/>
<path d="M129.724 36.3222C129.724 36.3677 129.688 36.4131 129.674 36.4541C129.618 36.6109 129.503 36.7398 129.354 36.8129C129.204 36.886 129.032 36.8975 128.874 36.8451C127.729 36.4486 126.559 36.1266 125.373 35.8811C125.211 35.8481 125.068 35.753 124.975 35.6162C124.883 35.4793 124.847 35.3116 124.877 35.149C124.885 35.0985 124.895 35.0484 124.909 34.999C124.943 34.8425 125.035 34.7048 125.167 34.6136C125.298 34.5224 125.46 34.4847 125.618 34.5079C126.912 34.6679 128.177 35.0108 129.374 35.5265C129.523 35.5891 129.642 35.7065 129.708 35.8546C129.773 36.0026 129.779 36.1699 129.724 36.3222Z" fill="black"/>
<path d="M116.315 38.8594C116.096 38.5048 115.651 37.95 115.233 38.3775C114.844 38.854 114.564 39.4101 114.414 40.0065C114.264 40.6029 114.247 41.2249 114.364 41.8287C114.432 42.4153 115.133 42.9518 115.683 42.5472C116.897 41.756 116.879 40.0371 116.315 38.8594ZM115.805 40.4691C115.655 40.4691 115.533 40.2372 115.533 39.9507C115.533 39.6643 115.655 39.4324 115.805 39.4324C115.955 39.4324 116.083 39.6688 116.083 39.9507C116.083 40.2327 115.946 40.4691 115.805 40.4691Z" fill="black"/>
<path d="M127.682 39.0959C127.648 38.9603 127.582 38.8345 127.491 38.7284C127.399 38.6223 127.285 38.5387 127.156 38.4841C127.027 38.4295 126.887 38.4055 126.747 38.4138C126.608 38.4221 126.472 38.4626 126.35 38.5321C125.654 39.3051 125.468 40.4191 125.441 41.4604C125.441 42.0743 125.468 42.8245 126.045 43.2065C126.668 43.452 127.164 42.8473 127.51 42.4471C128.315 41.515 128.151 40.1418 127.682 39.0959ZM127.137 40.4373C126.982 40.4373 126.859 40.2054 126.859 39.919C126.859 39.6325 126.982 39.4006 127.137 39.4006C127.291 39.4006 127.41 39.6325 127.41 39.919C127.41 40.2054 127.287 40.4373 127.137 40.4373Z" fill="black"/>
<path d="M122.949 47.499C121.78 47.7494 120.581 47.8351 119.389 47.7536H119.334C118.679 47.6627 117.874 47.4171 117.693 46.6896C117.511 45.962 117.961 45.3254 118.229 44.7252C118.836 43.3622 119.374 41.9689 119.839 40.551C119.868 40.4739 119.913 40.4036 119.97 40.3444C120.028 40.2852 120.097 40.2384 120.173 40.2069C120.249 40.1754 120.331 40.1598 120.414 40.1611C120.496 40.1624 120.577 40.1806 120.653 40.2145L120.775 40.2691C120.905 40.3313 121.009 40.4379 121.067 40.5696C121.126 40.7013 121.135 40.8495 121.094 40.9875C120.608 42.579 119.987 44.1261 119.239 45.6119C119.198 45.6968 119.177 45.7902 119.179 45.8845C119.181 45.9788 119.205 46.0713 119.249 46.1546C119.293 46.2379 119.357 46.3095 119.434 46.3637C119.511 46.418 119.6 46.4533 119.693 46.4668C120.715 46.5758 121.747 46.5252 122.753 46.3167C122.832 46.3058 122.913 46.3106 122.99 46.3308C123.066 46.351 123.139 46.3861 123.202 46.4343C123.265 46.4825 123.319 46.5427 123.359 46.6114C123.399 46.6802 123.425 46.7562 123.436 46.8351C123.452 46.9865 123.411 47.1387 123.321 47.2616C123.231 47.3845 123.098 47.4692 122.949 47.499Z" fill="black"/>
<path d="M121.858 55.9838C121.868 56.131 121.824 56.277 121.735 56.3942C121.645 56.5115 121.516 56.5919 121.371 56.6204C120.43 56.7932 119.42 56.9387 118.547 56.4613C118.43 56.392 118.344 56.2791 118.309 56.1472C118.274 56.0152 118.293 55.8748 118.361 55.7565C118.412 55.6311 118.504 55.5266 118.622 55.4599C118.74 55.3931 118.877 55.3678 119.011 55.3882C119.739 55.4767 120.473 55.4859 121.203 55.4154C121.283 55.4086 121.363 55.4177 121.439 55.4422C121.516 55.4667 121.586 55.5061 121.647 55.5582C121.708 55.6102 121.758 55.6738 121.794 55.7453C121.83 55.8168 121.852 55.8948 121.858 55.9747V55.9838Z" fill="black"/>
<path d="M127.933 51.9824C125.932 53.5057 123.422 53.9877 121.053 53.9877C118.429 53.9392 115.831 53.4647 113.359 52.5826C113.17 52.5108 113.018 52.3671 112.935 52.1829C112.852 51.9987 112.846 51.7892 112.918 51.6004C112.99 51.4117 113.134 51.2592 113.318 51.1765C113.502 51.0938 113.711 51.0876 113.9 51.1594C113.982 51.1957 122.367 54.306 127.009 50.7729C127.088 50.7028 127.18 50.6497 127.28 50.6171C127.38 50.5845 127.485 50.573 127.59 50.5833C127.695 50.5936 127.796 50.6255 127.888 50.6771C127.979 50.7286 128.059 50.7986 128.123 50.8826C128.186 50.9667 128.231 51.0629 128.255 51.1653C128.279 51.2676 128.281 51.3738 128.262 51.4772C128.243 51.5806 128.203 51.6789 128.144 51.7659C128.085 51.8528 128.008 51.9265 127.919 51.9824H127.933Z" fill="black"/>
<path fill-rule="evenodd" clip-rule="evenodd" d="M103.551 32.398C103.435 32.398 103.322 32.3649 103.224 32.3026C101.996 31.5432 100.805 29.5743 100.673 29.356C100.631 29.2856 100.603 29.2076 100.592 29.1265C100.58 29.0454 100.585 28.9628 100.605 28.8834C100.625 28.804 100.661 28.7294 100.71 28.6638C100.759 28.5982 100.821 28.543 100.891 28.5012C100.961 28.4594 101.04 28.4319 101.121 28.4202C101.202 28.4086 101.284 28.413 101.364 28.4333C101.443 28.4535 101.518 28.4892 101.583 28.5383C101.649 28.5874 101.704 28.649 101.746 28.7194C102.06 29.2469 103.06 30.7338 103.878 31.2431C103.995 31.3139 104.085 31.4209 104.134 31.5477C104.184 31.6744 104.191 31.814 104.154 31.945C104.117 32.076 104.038 32.1912 103.929 32.273C103.82 32.3549 103.687 32.3988 103.551 32.398Z" fill="black"/>
<path fill-rule="evenodd" clip-rule="evenodd" d="M102.587 36.4814C101.15 36.4814 99.1585 35.5492 98.9493 35.4401C98.8134 35.3605 98.7123 35.2327 98.6662 35.0821C98.6201 34.9315 98.6324 34.769 98.7005 34.627C98.7687 34.485 98.8877 34.3738 99.034 34.3155C99.1804 34.2572 99.3433 34.2561 99.4905 34.3124C100.045 34.5761 101.709 35.2673 102.673 35.2218C102.756 35.2175 102.838 35.2299 102.916 35.2583C102.994 35.2866 103.065 35.3303 103.125 35.3868C103.185 35.4433 103.233 35.5113 103.267 35.5869C103.3 35.6624 103.318 35.744 103.319 35.8266C103.324 35.9923 103.263 36.1531 103.15 36.2741C103.037 36.3951 102.88 36.4663 102.714 36.4723L102.587 36.4814Z" fill="black"/>
<path fill-rule="evenodd" clip-rule="evenodd" d="M138.164 30.9384C138.056 30.9387 137.951 30.9117 137.857 30.86C137.763 30.8083 137.684 30.7336 137.627 30.6429C137.584 30.5731 137.555 30.4954 137.542 30.4144C137.528 30.3333 137.532 30.2505 137.551 30.1706C137.57 30.0908 137.604 30.0154 137.652 29.949C137.701 29.8826 137.762 29.8263 137.832 29.7835C138.655 29.2696 139.65 27.7873 139.969 27.2598C140.011 27.1894 140.066 27.1279 140.132 27.0789C140.198 27.0299 140.273 26.9944 140.353 26.9743C140.432 26.9543 140.515 26.9501 140.596 26.962C140.677 26.9739 140.755 27.0017 140.826 27.0438C140.896 27.0859 140.958 27.1415 141.007 27.2074C141.056 27.2732 141.091 27.3481 141.111 27.4277C141.131 27.5073 141.136 27.59 141.124 27.6712C141.112 27.7524 141.084 27.8305 141.042 27.901C140.91 28.1192 139.719 30.0836 138.491 30.8429C138.393 30.9042 138.279 30.9372 138.164 30.9384Z" fill="black"/>
<path fill-rule="evenodd" clip-rule="evenodd" d="M139.887 34.4942C139.811 34.4989 139.735 34.4989 139.66 34.4942C139.588 34.4915 139.518 34.4744 139.454 34.4439C139.39 34.4135 139.332 34.3703 139.285 34.317C139.238 34.2637 139.202 34.2014 139.179 34.1339C139.157 34.0663 139.148 33.9949 139.154 33.9239C139.16 33.853 139.18 33.7839 139.213 33.721C139.247 33.658 139.292 33.6024 139.348 33.5576C139.403 33.5127 139.467 33.4795 139.535 33.46C139.604 33.4404 139.675 33.4349 139.746 33.4439C140.551 33.503 141.869 32.9892 142.315 32.7845C142.442 32.7242 142.588 32.717 142.721 32.7643C142.853 32.8116 142.962 32.9097 143.022 33.0369C143.082 33.1641 143.09 33.3101 143.042 33.4427C142.995 33.5753 142.897 33.6837 142.77 33.744C141.867 34.1675 140.895 34.4247 139.901 34.5033L139.887 34.4942Z" fill="black"/>
<path d="M10.2582 38.3593C10.1536 37.268 10.0081 36.163 9.80351 35.0535C9.63791 34.0196 9.3683 33.005 8.99872 32.0252C8.6925 31.1956 8.21532 30.4396 7.59818 29.8062C7.32443 29.5251 6.996 29.303 6.63314 29.1536C6.27028 29.0042 5.88066 28.9307 5.48832 28.9377C4.84332 28.8974 4.1982 29.0141 3.6082 29.2779C3.0182 29.5416 2.50093 29.9444 2.10076 30.4519C1.30926 31.5113 0.768248 32.7364 0.518376 34.035C0.217849 35.4461 0.0654534 36.8847 0.063666 38.3275V41.9651C0.063666 42.7866 0.053025 43.9492 0.0318052 45.4527C0.0318052 46.9578 0 48.6039 0 50.3954C0 52.187 0.0227421 54.0331 0.063666 55.952C0.10459 57.8709 0.195525 59.667 0.341032 61.3585C0.459155 62.8488 0.656496 64.3317 0.932177 65.801C1.06086 66.7722 1.40074 67.7035 1.92796 68.5293C2.28144 68.9768 2.77172 69.2962 3.3239 69.4387C3.90315 69.5848 4.5003 69.6476 5.09728 69.6251C5.71217 69.6025 6.32243 69.5094 6.91611 69.3477C7.44051 69.2102 7.95057 69.0229 8.43938 68.7884C8.4803 68.7884 8.4985 68.7884 8.4985 68.7566C8.4985 68.7248 8.4985 68.7293 8.56216 68.7293C9.03229 68.3115 9.40352 67.7943 9.64892 67.2152C9.87775 66.6513 10.0307 66.0595 10.1036 65.4554C10.189 64.8407 10.2316 64.2208 10.231 63.6002V61.7495C10.231 58.703 10.2522 55.6867 10.2946 52.7008C10.3371 49.7149 10.3568 46.7002 10.3537 43.6567V41.4331C10.4129 40.4646 10.3628 39.4506 10.2582 38.3593Z" fill="black"/>
<path d="M38.141 32.5208C38.1226 32.0729 38.0176 31.6328 37.8318 31.2249V31.1613C37.3658 30.4469 36.7154 29.8719 35.9493 29.497C35.0864 29.069 34.1682 28.7629 33.221 28.5876C32.1716 28.3788 31.1073 28.2542 30.0381 28.2147C28.9104 28.1723 27.7842 28.1526 26.6596 28.1556C25.5319 28.1556 24.4724 28.1556 23.4766 28.1829C22.4808 28.2102 21.585 28.1829 20.8075 28.1556C18.8765 28.1132 17.3744 28.3602 16.3013 28.8968C15.3681 29.3231 14.5441 29.956 13.8914 30.7475C13.3958 31.3687 13.0573 32.1002 12.9046 32.8801C12.8013 33.4201 12.7405 33.9674 12.7227 34.517C12.6727 35.4634 12.9435 36.3991 13.4912 37.1725C14.0063 37.8309 14.6598 38.368 15.4055 38.7458C16.1851 39.1424 17.0184 39.4227 17.8791 39.5779C18.6632 39.7298 19.4559 39.8331 20.2528 39.8871L20.0709 44.1478C20.0709 46.1667 20.0602 47.9855 20.039 49.6043C20.0178 51.223 20.0072 52.8069 20.0072 54.356C20.0072 55.902 20.0072 57.4844 19.9753 59.1122C19.9435 60.7401 19.9435 62.5589 19.9435 64.5688C19.897 65.9345 20.296 67.2783 21.0803 68.3974C21.8412 69.425 23.0189 69.9389 24.6134 69.9389C26.4959 69.9389 27.8827 69.4842 28.7876 68.643C29.6925 67.8017 30.1517 66.2966 30.1517 64.1959C30.1517 62.7954 30.2063 61.3767 30.3064 59.9353C30.4064 58.4938 30.461 57.0342 30.461 55.5519L30.2154 39.678C31.1248 39.6007 32.057 39.4961 33.0255 39.3733C33.9494 39.2622 34.8415 38.9668 35.6492 38.5048C36.4681 38.0158 37.1245 37.2962 37.5363 36.4359C37.9682 35.5174 38.191 34.2078 38.141 32.5208Z" fill="black"/>
<path d="M65.3736 52.96C65.0326 51.4404 64.2807 50.0437 63.2001 48.9222C62.2619 47.9935 61.1773 47.2254 59.9898 46.6486C58.8657 46.1004 57.6857 45.6751 56.4704 45.38C55.4131 45.1404 54.3714 44.8367 53.3511 44.4706C52.5736 44.2169 51.8865 43.743 51.3731 43.1064C50.9396 42.5274 50.8896 41.6832 51.2231 40.5737C51.3165 40.2564 51.5195 39.9826 51.796 39.8011C52.0724 39.6195 52.4044 39.542 52.7327 39.5824C53.6927 39.6046 54.6466 39.7405 55.5746 39.9871C56.6629 40.2539 57.8163 40.5419 59.035 40.8511C60.1303 41.1439 61.2618 41.2786 62.3953 41.2512C63.3458 41.246 64.2565 40.869 64.9326 40.2009C65.5874 39.5415 65.9193 38.382 65.9193 36.7451C65.9443 36.0562 65.8286 35.3694 65.5792 34.7267C65.3298 34.0841 64.952 33.499 64.4688 33.0073C63.4677 32.0246 62.2804 31.2516 60.9766 30.7338C59.6094 30.1775 58.1781 29.7941 56.716 29.5925C55.4889 29.4074 54.2508 29.3041 53.0101 29.2833C52.3917 29.2833 51.5413 29.3151 50.45 29.3788C49.2797 29.4537 48.1256 29.6925 47.0216 30.0881C45.7681 30.5316 44.6061 31.2004 43.593 32.0616C42.4111 33.1124 41.5624 34.4859 41.1513 36.013C40.2055 38.8564 39.8356 41.2452 40.0417 43.1792C40.1747 44.9014 40.7257 46.5652 41.6469 48.0264C42.4736 49.2858 43.584 50.3339 44.889 51.0866C46.1153 51.7926 47.3956 52.4008 48.7176 52.9054C49.9772 53.3829 51.0776 53.7512 52.0234 54.0195C52.9692 54.2877 53.5466 54.5606 53.7512 54.8516C54.0141 55.2207 54.1555 55.6625 54.1559 56.1157C54.146 56.483 54.0021 56.8339 53.7512 57.1024C53.5006 57.3768 53.1891 57.5886 52.8418 57.7208C52.4891 57.863 52.1127 57.937 51.7324 57.9391C50.8933 57.9372 50.0599 57.8022 49.2633 57.5389C48.4418 57.2691 47.6385 57.0115 46.8533 56.7659C46.0712 56.5204 45.3119 56.3112 44.5798 56.1475C43.9091 55.9835 43.2088 55.9835 42.5381 56.1475C41.8699 56.3458 41.2852 56.7579 40.8739 57.3207C40.2714 58.1733 39.8505 59.1406 39.6371 60.1626C39.339 61.169 39.3935 62.2471 39.7917 63.2182C40.2108 64.1391 40.8455 64.9455 41.6423 65.5691C42.5507 66.2811 43.5609 66.8528 44.6389 67.2652C45.7975 67.7198 46.9836 68.101 48.1902 68.4065C49.3573 68.7057 50.544 68.923 51.7415 69.0567C52.7455 69.1702 53.7548 69.2309 54.7652 69.2386C56.3892 69.2251 57.9907 68.8574 59.4579 68.1609C61.0316 67.4365 62.4085 66.3449 63.4729 64.978C64.6281 63.4752 65.4076 61.7183 65.7465 59.8534C66.1497 57.5572 66.0222 55.1993 65.3736 52.96Z" fill="black"/>
<path d="M94.466 64.837C94.3043 63.987 94.0449 63.1584 93.693 62.3679C93.2974 61.4585 92.8381 60.4945 92.3015 59.4669C91.765 58.4393 91.233 57.448 90.6964 56.5022L89.214 53.8785C88.8372 53.2332 88.5075 52.5615 88.2274 51.8687C89.9312 50.5571 91.3578 48.9204 92.4243 47.0533C93.3339 45.4513 93.8817 43.6696 94.0295 41.8333C94.1584 40.1135 93.9164 38.386 93.3201 36.7678C92.725 35.1505 91.7953 33.677 90.5918 32.4435C89.2918 31.1359 87.7466 30.0976 86.0447 29.3879C84.1276 28.5844 82.0712 28.1657 79.9926 28.1556C76.3731 28.0737 73.7085 28.3617 71.9987 29.0196C71.2294 29.2746 70.523 29.6903 69.9265 30.2391C69.3299 30.7878 68.8568 31.4571 68.5384 32.2025C67.9321 33.6667 67.6851 35.5401 67.7972 37.8227C67.9094 40.1054 67.9609 42.8336 67.9518 46.0075C67.9518 48.1477 67.9321 50.453 67.8927 52.9236C67.8472 55.3927 67.8927 57.7299 68.0109 59.9352C68.106 61.8842 68.3446 63.8235 68.7249 65.7373C69.075 67.4061 69.6343 68.4656 70.4209 68.9794C71.2549 69.5996 72.2562 69.9545 73.2947 69.998C74.234 70.0281 75.1532 69.7217 75.8865 69.134C76.7439 68.4068 77.3935 67.4655 77.769 66.4058C78.3082 64.9523 78.5615 63.4083 78.5148 61.8587C78.5511 60.6673 78.6148 59.5851 78.6966 58.5848C78.7785 57.7617 78.8421 57.0024 78.8831 56.3112C78.924 55.6201 78.9877 55.2608 79.0695 55.2608C80.467 58.1043 81.7841 60.6476 83.0209 62.8909C83.9848 64.7612 85.2096 66.4851 86.6586 68.0109C87.8499 69.1901 89.0549 69.7161 90.2735 69.5887C91.4922 69.4614 92.7987 68.452 94.1931 66.5604C94.5068 66.044 94.6048 65.425 94.466 64.837ZM83.3801 42.9155C82.8201 43.5837 82.138 44.1392 81.3703 44.5524C80.7284 44.9165 80.0072 45.1179 79.2695 45.139C78.6102 45.139 78.2829 44.848 78.2829 44.2705L78.0373 37.2953H79.7652C80.4135 37.293 81.0585 37.3865 81.6795 37.5726C82.3596 37.7586 82.964 38.1537 83.4071 38.7021C83.8502 39.2504 84.1096 39.9243 84.1486 40.6283C84.1848 41.0391 84.1353 41.453 84.003 41.8436C83.8707 42.2342 83.6586 42.593 83.3801 42.8973V42.9155Z" fill="#EE3A3D"/>
<path d="M184.035 30.1609C183.609 29.331 182.984 28.62 182.216 28.0919C181.53 27.6305 180.723 27.3835 179.897 27.3826C179.039 27.3942 178.211 27.6991 177.55 28.2465C176.71 28.9544 176.036 29.8395 175.577 30.8384C174.932 32.2418 174.535 33.7464 174.404 35.2855C174.107 36.8375 173.89 38.4037 173.754 39.978C173.649 41.2967 173.59 42.5244 173.567 43.6521C173.544 44.7798 173.54 45.8984 173.54 46.9897C173.54 48.081 173.476 49.3041 173.349 50.6637C172.705 49.0365 171.945 47.4576 171.075 45.9393C170.359 44.6193 169.438 43.4207 168.347 42.388C167.963 41.9985 167.506 41.6887 167.002 41.4765C166.498 41.2642 165.957 41.1537 165.41 41.1512C164.423 41.1921 163.459 41.9151 162.509 43.3156C162.018 44.1796 161.599 44.9389 161.276 45.5892C160.954 46.2394 160.635 46.876 160.367 47.4717C160.07 48.0947 159.812 48.7356 159.594 49.3905C159.367 50.0681 159.112 50.8774 158.821 51.8278C158.7 50.9184 158.566 49.6421 158.421 47.9991L157.966 42.7472C157.802 40.8981 157.617 39.0974 157.411 37.3453C157.248 35.8607 157.001 34.3866 156.67 32.93C156.504 31.8559 156.171 30.8142 155.683 29.8426C155.36 29.1992 154.87 28.6543 154.265 28.2647C153.71 27.9523 153.082 27.7953 152.446 27.81C151.722 27.8165 151 27.8788 150.286 27.9965C149.377 28.1662 148.687 28.8361 148.217 30.0063C147.681 31.468 147.36 32.9996 147.262 34.5534C147.095 36.6392 147.063 38.7338 147.167 40.8238C147.273 43.1459 147.49 45.5225 147.817 47.9537C148.144 50.3848 148.546 52.7827 149.022 55.1472C149.495 57.5147 150.019 59.6458 150.595 61.5404C151.069 63.1735 151.677 64.7644 152.414 66.2966C153.051 67.5728 153.657 68.3307 154.233 68.5702C156 69.3978 157.516 69.522 158.78 68.943C160.1 68.3108 161.229 67.3415 162.054 66.1329C163.016 64.7639 163.804 63.2808 164.4 61.7177C165.037 60.0717 165.623 58.6302 166.16 57.3934C166.487 58.6727 166.847 60.0004 167.238 61.3767C167.602 62.6935 168.132 63.9586 168.815 65.1417C169.442 66.2452 170.305 67.1958 171.344 67.9245C172.497 68.6759 173.863 69.0332 175.236 68.943C176.266 68.627 177.252 68.1808 178.169 67.6153C178.958 67.1147 179.64 66.4643 180.179 65.701C180.752 64.8617 181.198 63.9423 181.502 62.9727C181.896 61.7379 182.217 60.4807 182.461 59.2077C182.862 57.6334 183.166 56.0358 183.371 54.4242C183.592 52.672 183.798 50.7365 183.989 48.6175C184.171 46.4986 184.339 44.1796 184.48 41.6696C184.621 39.1596 184.78 36.4177 184.935 33.453C184.882 32.3025 184.575 31.1781 184.035 30.1609Z" fill="#EE3A3D"/>
<path d="M192.61 64.6278C192.47 64.2139 192.227 63.8419 191.906 63.5456C191.563 63.2436 191.129 63.0645 190.673 63.0364C190.142 62.8871 189.584 62.8607 189.041 62.959C188.593 63.0413 188.167 63.2163 187.791 63.4729C187.45 63.712 187.167 64.0224 186.958 64.3823C186.74 64.7391 186.586 65.1316 186.504 65.5418C186.358 66.0299 186.358 66.5497 186.504 67.0378C186.641 67.5266 186.903 67.9716 187.263 68.3292C187.663 68.7169 188.154 68.9983 188.691 69.1477C189.347 69.3278 190.038 69.3403 190.701 69.184C191.109 69.1071 191.482 68.9015 191.765 68.5974C192.076 68.2665 192.322 67.8791 192.488 67.4561C192.665 67.0012 192.768 66.5206 192.792 66.0329C192.822 65.5572 192.76 65.0803 192.61 64.6278Z" fill="black"/>
<path d="M210.626 61.1357C210.578 59.6024 210.426 58.0741 210.171 56.5613C209.92 55.0127 209.558 53.484 209.089 51.9869C208.666 50.5983 208.107 49.255 207.42 47.9764C206.859 46.9054 206.105 45.9467 205.197 45.1481C204.457 44.478 203.498 44.1012 202.5 44.0886C201.443 44.0612 200.396 44.3087 199.463 44.8071C198.601 45.2901 197.851 45.9503 197.262 46.7441C196.628 47.5999 196.128 48.5475 195.78 49.5542C195.396 50.6385 195.092 51.7494 194.87 52.8782C194.643 54.0372 194.491 55.2098 194.416 56.3885C194.343 57.5799 194.302 58.6939 194.302 59.7306C194.302 60.1853 194.302 60.7219 194.247 61.3449C194.193 61.9678 194.197 62.618 194.211 63.3001C194.22 63.9734 194.264 64.6457 194.343 65.3145C194.413 65.9265 194.566 66.5262 194.798 67.0969C194.993 67.6045 195.322 68.0504 195.748 68.3883C196.212 68.7326 196.78 68.9076 197.358 68.8839C198.422 68.8839 199.207 68.5808 199.713 67.9745C200.23 67.3587 200.582 66.6218 200.736 65.8328C200.916 64.9584 200.98 64.064 200.927 63.1728C200.877 62.2361 200.841 61.4267 200.813 60.7446C200.799 60.6013 200.823 60.4567 200.883 60.3257C200.943 60.1947 201.037 60.0819 201.154 59.9989C201.409 59.8134 201.703 59.6903 202.014 59.6397C202.32 59.5888 202.634 59.6218 202.923 59.7352C203.062 59.7867 203.183 59.8764 203.273 59.9938C203.364 60.1112 203.419 60.2517 203.433 60.399C203.433 60.7537 203.433 61.3085 203.492 62.0133C203.551 62.7181 203.587 63.4956 203.66 64.2868C203.733 65.078 203.846 65.8374 203.987 66.5604C204.063 67.0933 204.236 67.608 204.497 68.0791C204.498 68.0941 204.502 68.1087 204.509 68.122C204.516 68.1353 204.526 68.147 204.537 68.1564C204.677 68.422 204.886 68.645 205.142 68.8021C205.372 68.9296 205.623 69.0129 205.883 69.0476C206.155 69.0796 206.43 69.0796 206.702 69.0476C206.979 69.0249 207.257 69.0112 207.534 69.0112C207.908 69.0113 208.275 68.9131 208.599 68.7263C208.924 68.5396 209.193 68.2709 209.38 67.9472C209.904 67.0826 210.246 66.1202 210.385 65.1189C210.592 63.8018 210.672 62.4681 210.626 61.1357ZM203.296 54.4333C203.296 54.6242 203.264 54.8198 203.242 55.0244C202.837 55.0244 202.423 55.0244 202.009 55.079C201.596 55.1335 201.164 55.1608 200.732 55.2108V54.4515C200.732 54.2741 200.759 53.974 200.809 53.542C200.859 53.1101 200.932 52.669 201.018 52.2143C201.094 51.8023 201.214 51.3998 201.377 51.0139C201.532 50.6728 201.709 50.5046 201.909 50.5046C202.051 50.5056 202.19 50.5451 202.31 50.6188C202.431 50.6924 202.53 50.7976 202.596 50.9229C202.79 51.2225 202.943 51.5467 203.051 51.8869C203.163 52.2466 203.239 52.6168 203.278 52.9918C203.314 53.3556 203.333 53.6421 203.333 53.8467C203.333 54.0513 203.31 54.2423 203.296 54.4333Z" fill="black"/>
<path d="M218.638 50.1044C218.574 49.4315 218.483 48.7403 218.37 48.0719C218.267 47.437 218.101 46.8139 217.874 46.2121C217.685 45.703 217.392 45.2386 217.015 44.848C216.845 44.6758 216.643 44.5399 216.419 44.4484C216.196 44.357 215.956 44.3119 215.714 44.316C215.32 44.2889 214.924 44.3575 214.562 44.5158C214.199 44.6741 213.88 44.9175 213.632 45.2254C213.146 45.8763 212.813 46.6287 212.659 47.4262C212.479 48.2953 212.389 49.1806 212.39 50.0681V52.3098C212.39 52.8145 212.39 53.5284 212.39 54.4515C212.39 55.3745 212.39 56.3885 212.39 57.4889C212.39 58.5893 212.39 59.7306 212.427 60.9083C212.463 62.086 212.513 63.1819 212.599 64.2323C212.67 65.1477 212.792 66.0585 212.963 66.9605C213.043 67.5557 213.251 68.1265 213.573 68.6338C213.793 68.9037 214.094 69.0951 214.432 69.1795C214.788 69.2708 215.156 69.3091 215.523 69.2932C215.905 69.2824 216.283 69.2259 216.651 69.1249C216.973 69.0412 217.287 68.927 217.588 68.7839C217.588 68.7839 217.624 68.7839 217.624 68.7612C217.624 68.7384 217.624 68.7612 217.66 68.7612C217.947 68.5108 218.176 68.2003 218.329 67.8517C218.471 67.505 218.567 67.1412 218.615 66.7695C218.666 66.3912 218.692 66.0099 218.693 65.6282V64.4914C218.693 62.618 218.705 60.7628 218.729 58.9258C218.753 57.0888 218.767 55.2351 218.77 53.3647V52.0006C218.733 51.4049 218.711 50.7729 218.638 50.1044Z" fill="black"/>
</svg>
