<svg width="80" height="340" viewBox="0 0 80 340" fill="none" xmlns="http://www.w3.org/2000/svg">
<path d="M40 39V296" stroke="#EE3A3D" stroke-width="2" stroke-dasharray="4 4"/>
<circle cx="40" cy="40" r="40" fill="#EE3A3D"/>
<path d="M35.198 49.65C33.898 49.69 32.858 49.47 32.078 48.99C31.318 48.49 30.728 47.87 30.308 47.13C29.888 46.39 29.598 45.59 29.438 44.73C29.278 43.87 29.168 43.08 29.108 42.36C28.988 41.2 28.968 40.05 29.048 38.91C29.128 37.77 29.278 36.53 29.498 35.19V35.13C29.618 34.75 29.738 34.37 29.858 33.99C29.998 33.59 30.168 33.21 30.368 32.85C30.568 32.49 30.808 32.15 31.088 31.83C31.388 31.51 31.748 31.23 32.168 30.99C32.728 30.67 33.318 30.43 33.938 30.27C34.578 30.09 35.208 30 35.828 30C36.128 30 36.418 30.02 36.698 30.06C36.998 30.08 37.288 30.13 37.568 30.21H37.598C38.178 30.45 38.728 30.78 39.248 31.2C39.768 31.6 40.228 32.1 40.628 32.7V32.73C41.008 33.47 41.308 34.34 41.528 35.34C41.768 36.34 41.918 37.4 41.978 38.52C42.038 39.62 42.018 40.73 41.918 41.85C41.838 42.95 41.678 43.97 41.438 44.91C41.218 45.85 40.918 46.67 40.538 47.37C40.178 48.07 39.748 48.55 39.248 48.81C38.548 49.19 37.868 49.43 37.208 49.53C36.568 49.61 35.898 49.65 35.198 49.65ZM36.518 43.71C36.618 43.47 36.708 43.09 36.788 42.57C36.888 42.03 36.958 41.45 36.998 40.83C37.058 40.19 37.078 39.54 37.058 38.88C37.058 38.22 36.998 37.62 36.878 37.08C36.758 36.54 36.578 36.11 36.338 35.79C36.098 35.45 35.778 35.29 35.378 35.31C34.998 35.35 34.688 35.57 34.448 35.97C34.228 36.37 34.058 36.85 33.938 37.41C33.818 37.97 33.748 38.55 33.728 39.15C33.708 39.73 33.718 40.22 33.758 40.62C33.818 41.08 33.868 41.61 33.908 42.21C33.968 42.79 34.128 43.33 34.388 43.83C34.708 44.21 35.058 44.4 35.438 44.4C35.818 44.4 36.178 44.17 36.518 43.71Z" fill="white"/>
<path d="M50.367 48.24C50.267 48.6 50.057 48.91 49.737 49.17C49.417 49.41 49.067 49.57 48.687 49.65C48.327 49.73 47.957 49.72 47.577 49.62C47.217 49.52 46.937 49.3 46.737 48.96C46.397 48.3 46.207 47.58 46.167 46.8C46.147 46 46.117 45.24 46.077 44.52C46.037 43.96 46.007 43.36 45.987 42.72C45.987 42.06 45.997 41.4 46.017 40.74C46.037 40.08 46.057 39.43 46.077 38.79C46.097 38.13 46.107 37.52 46.107 36.96C45.667 37.36 45.227 37.6 44.787 37.68C44.347 37.76 43.957 37.74 43.617 37.62C43.277 37.48 43.007 37.26 42.807 36.96C42.607 36.64 42.527 36.28 42.567 35.88C42.727 35.24 42.937 34.68 43.197 34.2C43.477 33.7 43.787 33.25 44.127 32.85C44.487 32.43 44.877 32.04 45.297 31.68C45.737 31.32 46.197 30.95 46.677 30.57C46.957 30.35 47.287 30.2 47.667 30.12C48.067 30.04 48.447 30.03 48.807 30.09C49.167 30.15 49.477 30.28 49.737 30.48C50.017 30.68 50.177 30.94 50.217 31.26C50.457 32.44 50.557 33.6 50.517 34.74C50.477 35.86 50.477 37 50.517 38.16C50.477 38.96 50.457 39.67 50.457 40.29C50.477 40.91 50.487 41.58 50.487 42.3C50.507 43 50.507 43.82 50.487 44.76C50.487 45.68 50.447 46.84 50.367 48.24Z" fill="white"/>
<circle cx="40" cy="170" r="40" fill="#EE3A3D"/>
<path d="M33.198 180.041C31.898 180.081 30.858 179.861 30.078 179.381C29.318 178.881 28.728 178.261 28.308 177.521C27.888 176.781 27.598 175.981 27.438 175.121C27.278 174.261 27.168 173.471 27.108 172.751C26.988 171.591 26.968 170.441 27.048 169.301C27.128 168.161 27.278 166.921 27.498 165.581V165.521C27.618 165.141 27.738 164.761 27.858 164.381C27.998 163.981 28.168 163.601 28.368 163.241C28.568 162.881 28.808 162.541 29.088 162.221C29.388 161.901 29.748 161.621 30.168 161.381C30.728 161.061 31.318 160.821 31.938 160.661C32.578 160.481 33.208 160.391 33.828 160.391C34.128 160.391 34.418 160.411 34.698 160.451C34.998 160.471 35.288 160.521 35.568 160.601H35.598C36.178 160.841 36.728 161.171 37.248 161.591C37.768 161.991 38.228 162.491 38.628 163.091V163.121C39.008 163.861 39.308 164.731 39.528 165.731C39.768 166.731 39.918 167.791 39.978 168.911C40.038 170.011 40.018 171.121 39.918 172.241C39.838 173.341 39.678 174.361 39.438 175.301C39.218 176.241 38.918 177.061 38.538 177.761C38.178 178.461 37.748 178.941 37.248 179.201C36.548 179.581 35.868 179.821 35.208 179.921C34.568 180.001 33.898 180.041 33.198 180.041ZM34.518 174.101C34.618 173.861 34.708 173.481 34.788 172.961C34.888 172.421 34.958 171.841 34.998 171.221C35.058 170.581 35.078 169.931 35.058 169.271C35.058 168.611 34.998 168.011 34.878 167.471C34.758 166.931 34.578 166.501 34.338 166.181C34.098 165.841 33.778 165.681 33.378 165.701C32.998 165.741 32.688 165.961 32.448 166.361C32.228 166.761 32.058 167.241 31.938 167.801C31.818 168.361 31.748 168.941 31.728 169.541C31.708 170.121 31.718 170.611 31.758 171.011C31.818 171.471 31.868 172.001 31.908 172.601C31.968 173.181 32.128 173.721 32.388 174.221C32.708 174.601 33.058 174.791 33.438 174.791C33.818 174.791 34.178 174.561 34.518 174.101Z" fill="white"/>
<path d="M40.747 164.741C40.687 163.941 40.947 163.201 41.527 162.521C42.127 161.841 42.867 161.281 43.747 160.841C44.627 160.401 45.567 160.131 46.567 160.031C47.587 159.931 48.487 160.071 49.267 160.451C49.747 160.611 50.207 160.861 50.647 161.201C51.087 161.521 51.467 161.901 51.787 162.341C52.107 162.761 52.347 163.221 52.507 163.721C52.687 164.201 52.737 164.681 52.657 165.161C52.617 166.541 52.387 167.711 51.967 168.671C51.567 169.631 51.077 170.471 50.497 171.191C49.937 171.911 49.337 172.541 48.697 173.081C48.057 173.621 47.487 174.151 46.987 174.671C47.487 174.671 47.907 174.661 48.247 174.641C48.607 174.601 48.957 174.581 49.297 174.581C49.657 174.561 50.047 174.581 50.467 174.641C50.907 174.681 51.447 174.791 52.087 174.971C52.447 175.231 52.687 175.611 52.807 176.111C52.947 176.591 52.977 177.081 52.897 177.581C52.817 178.061 52.637 178.501 52.357 178.901C52.077 179.281 51.717 179.501 51.277 179.561C50.477 179.801 49.557 179.971 48.517 180.071C47.477 180.171 46.477 180.221 45.517 180.221C44.577 180.201 43.747 180.121 43.027 179.981C42.307 179.841 41.857 179.641 41.677 179.381C41.397 179.141 41.167 178.841 40.987 178.481C40.827 178.101 40.717 177.711 40.657 177.311C40.597 176.891 40.597 176.481 40.657 176.081C40.717 175.661 40.847 175.301 41.047 175.001C41.547 174.281 42.157 173.521 42.877 172.721C43.617 171.901 44.317 171.111 44.977 170.351C45.657 169.571 46.217 168.841 46.657 168.161C47.097 167.481 47.277 166.911 47.197 166.451C47.237 166.311 47.167 166.131 46.987 165.911C46.807 165.671 46.637 165.531 46.477 165.491C46.297 165.451 46.027 165.491 45.667 165.611C45.327 165.711 44.947 165.841 44.527 166.001C44.107 166.141 43.677 166.281 43.237 166.421C42.797 166.541 42.387 166.581 42.007 166.541C41.647 166.501 41.347 166.351 41.107 166.091C40.887 165.811 40.767 165.361 40.747 164.741Z" fill="white"/>
<circle cx="40" cy="300" r="40" fill="#EE3A3D"/>
<path d="M33.198 310.185C31.898 310.225 30.858 310.005 30.078 309.525C29.318 309.025 28.728 308.405 28.308 307.665C27.888 306.925 27.598 306.125 27.438 305.265C27.278 304.405 27.168 303.615 27.108 302.895C26.988 301.735 26.968 300.585 27.048 299.445C27.128 298.305 27.278 297.065 27.498 295.725V295.665C27.618 295.285 27.738 294.905 27.858 294.525C27.998 294.125 28.168 293.745 28.368 293.385C28.568 293.025 28.808 292.685 29.088 292.365C29.388 292.045 29.748 291.765 30.168 291.525C30.728 291.205 31.318 290.965 31.938 290.805C32.578 290.625 33.208 290.535 33.828 290.535C34.128 290.535 34.418 290.555 34.698 290.595C34.998 290.615 35.288 290.665 35.568 290.745H35.598C36.178 290.985 36.728 291.315 37.248 291.735C37.768 292.135 38.228 292.635 38.628 293.235V293.265C39.008 294.005 39.308 294.875 39.528 295.875C39.768 296.875 39.918 297.935 39.978 299.055C40.038 300.155 40.018 301.265 39.918 302.385C39.838 303.485 39.678 304.505 39.438 305.445C39.218 306.385 38.918 307.205 38.538 307.905C38.178 308.605 37.748 309.085 37.248 309.345C36.548 309.725 35.868 309.965 35.208 310.065C34.568 310.145 33.898 310.185 33.198 310.185ZM34.518 304.245C34.618 304.005 34.708 303.625 34.788 303.105C34.888 302.565 34.958 301.985 34.998 301.365C35.058 300.725 35.078 300.075 35.058 299.415C35.058 298.755 34.998 298.155 34.878 297.615C34.758 297.075 34.578 296.645 34.338 296.325C34.098 295.985 33.778 295.825 33.378 295.845C32.998 295.885 32.688 296.105 32.448 296.505C32.228 296.905 32.058 297.385 31.938 297.945C31.818 298.505 31.748 299.085 31.728 299.685C31.708 300.265 31.718 300.755 31.758 301.155C31.818 301.615 31.868 302.145 31.908 302.745C31.968 303.325 32.128 303.865 32.388 304.365C32.708 304.745 33.058 304.935 33.438 304.935C33.818 304.935 34.178 304.705 34.518 304.245Z" fill="white"/>
<path d="M40.747 307.305C40.567 307.005 40.457 306.685 40.417 306.345C40.397 305.985 40.457 305.645 40.597 305.325C40.737 304.985 40.967 304.695 41.287 304.455C41.607 304.195 42.017 304.015 42.517 303.915C43.077 303.855 43.587 303.945 44.047 304.185C44.507 304.405 44.927 304.635 45.307 304.875C45.707 305.095 46.077 305.245 46.417 305.325C46.757 305.405 47.097 305.265 47.437 304.905C47.737 304.405 47.887 303.985 47.887 303.645C47.907 303.305 47.827 303.035 47.647 302.835C47.487 302.615 47.247 302.445 46.927 302.325C46.627 302.185 46.297 302.075 45.937 301.995C45.577 301.915 45.217 301.845 44.857 301.785C44.497 301.705 44.197 301.615 43.957 301.515C43.677 301.375 43.477 301.185 43.357 300.945C43.257 300.705 43.197 300.455 43.177 300.195C43.157 299.915 43.177 299.645 43.237 299.385C43.317 299.125 43.417 298.885 43.537 298.665C43.617 298.425 43.777 298.225 44.017 298.065C44.257 297.885 44.527 297.735 44.827 297.615C45.127 297.475 45.437 297.345 45.757 297.225C46.077 297.085 46.367 296.935 46.627 296.775C46.887 296.595 47.087 296.385 47.227 296.145C47.387 295.885 47.447 295.575 47.407 295.215C47.247 294.875 46.987 294.715 46.627 294.735C46.267 294.755 45.847 294.845 45.367 295.005C44.907 295.145 44.407 295.285 43.867 295.425C43.347 295.545 42.847 295.545 42.367 295.425C41.867 295.365 41.477 295.175 41.197 294.855C40.937 294.515 40.777 294.135 40.717 293.715C40.677 293.295 40.747 292.885 40.927 292.485C41.107 292.065 41.397 291.755 41.797 291.555C42.717 291.015 43.687 290.595 44.707 290.295C45.747 289.975 46.837 289.915 47.977 290.115C48.557 290.155 49.107 290.305 49.627 290.565C50.147 290.825 50.607 291.155 51.007 291.555C51.427 291.935 51.767 292.365 52.027 292.845C52.287 293.325 52.447 293.815 52.507 294.315C52.567 295.075 52.557 295.705 52.477 296.205C52.417 296.685 52.287 297.095 52.087 297.435C51.907 297.775 51.667 298.075 51.367 298.335C51.087 298.595 50.757 298.885 50.377 299.205C50.917 299.505 51.387 299.895 51.787 300.375C52.187 300.855 52.487 301.355 52.687 301.875C53.047 302.955 53.037 304.035 52.657 305.115C52.277 306.195 51.707 307.165 50.947 308.025C50.207 308.725 49.387 309.255 48.487 309.615C47.607 309.975 46.707 310.135 45.787 310.095C44.867 310.055 43.967 309.805 43.087 309.345C42.227 308.885 41.447 308.205 40.747 307.305Z" fill="white"/>
</svg>
