<svg width="45" height="45" viewBox="0 0 45 45" fill="none" xmlns="http://www.w3.org/2000/svg">
<g clip-path="url(#clip0_76_500)">
<path d="M19.6797 18.2344L27.0596 22.3997L19.6797 26.565V18.2344Z" fill="white"/>
<path d="M41.64 0.400391H3.35999C2.46886 0.400391 1.61413 0.746547 0.984009 1.36267C0.353887 1.97879 1.69848e-10 2.81439 1.69166e-10 3.68571V41.1297C-4.42923e-06 41.5605 0.0869423 41.987 0.255981 42.3848C0.425021 42.7825 0.672905 43.1437 0.985107 43.4477C1.29731 43.7516 1.66775 43.9921 2.07532 44.1556C2.48288 44.3191 2.91945 44.4023 3.35999 44.4004H41.64C42.0805 44.4023 42.5171 44.3191 42.9247 44.1556C43.3322 43.9921 43.7027 43.7516 44.0149 43.4477C44.3271 43.1437 44.575 42.7825 44.744 42.3848C44.9131 41.987 45 41.5605 45 41.1297V3.68571C45 2.81439 44.6461 1.97879 44.016 1.36267C43.3859 0.746547 42.5311 0.400391 41.64 0.400391ZM36.39 28.0324C36.326 28.959 35.9637 29.842 35.3551 30.5551C34.8516 31.0893 34.1914 31.4582 33.4651 31.6111C32.0181 31.8581 30.5535 31.9954 29.0848 32.0217C26.8948 32.1244 24.6899 32.1391 22.3649 32.1684C19.1999 32.1684 15.8999 32.1684 12.6149 31.787C11.7548 31.7595 10.9194 31.5008 10.2001 31.0391C9.49142 30.5248 8.99199 29.7817 8.79016 28.9417C8.51535 27.6428 8.35964 26.3224 8.32507 24.9964C8.14991 22.2658 8.24526 19.525 8.60999 16.8124C8.66877 16 8.94279 15.2166 9.40503 14.5391C9.92935 13.8296 10.7141 13.346 11.595 13.1897C13.2514 12.9232 14.9264 12.781 16.6051 12.7644C20.9251 12.6079 25.2349 12.6079 29.5349 12.7644C30.8023 12.7978 32.0656 12.9204 33.3149 13.131C34.0243 13.243 34.6817 13.5644 35.1991 14.0519C35.7165 14.5395 36.0692 15.17 36.2098 15.8591C36.4835 17.1434 36.6392 18.449 36.6749 19.7604C36.853 22.5203 36.7576 25.2905 36.39 28.0324Z" fill="white"/>
</g>
<defs>
<clipPath id="clip0_76_500">
<rect width="45" height="44" fill="white" transform="translate(0 0.400391)"/>
</clipPath>
</defs>
</svg>
