<svg width="565" height="656" viewBox="0 0 565 656" fill="none" xmlns="http://www.w3.org/2000/svg">
<g clip-path="url(#clip0_992_962)">
<path fill-rule="evenodd" clip-rule="evenodd" d="M470.757 455.528C437.537 368.548 401.611 288.698 387.374 269.686C384.901 266.408 381.995 263.482 378.736 260.988C376.316 252.195 371.618 235.844 365.781 220.397C377.885 215.616 388.779 208.203 397.675 198.693C406.572 189.183 413.249 177.813 417.225 165.405C428.282 132.704 420.879 98.1021 398.858 79.3277C387.441 69.8225 372.984 64.7599 358.14 65.0687C349.925 65.1488 341.763 66.3807 333.889 68.7285C328.176 51.2775 318.419 35.4297 305.415 22.4818C291.385 8.26804 272.312 0.186624 252.357 0H249.936C237.927 0.694891 226.176 3.78074 215.371 9.07725C204.566 14.3738 194.923 21.7746 187.008 30.847C176.069 43.1959 167.969 57.7983 163.279 73.6241C154.65 71.1567 145.723 69.8931 136.75 69.8691C124.029 69.8686 111.469 72.7135 99.9866 78.1959C88.504 83.6783 78.3891 91.6598 70.38 101.558C62.371 111.456 56.6702 123.02 53.694 135.406C50.7177 147.793 50.5412 160.689 53.1772 173.152C60.6281 206.423 88.1535 232.517 129.109 245.921C126.547 274.439 128.54 294.829 135.089 307.71C103.008 359.993 16.445 587.567 3.96367 645.744C-7.33125 698.027 10.6077 717.894 22.2822 725.071C23.4592 725.796 24.6797 726.446 25.9366 727.02C28.7282 728.393 31.7963 729.108 34.9061 729.111C40.4989 729.099 45.8582 726.865 49.8085 722.9C53.7587 718.934 55.9771 713.562 55.9771 707.961C56.026 704.095 54.9942 700.292 52.9982 696.983C51.0022 693.673 48.1216 690.989 44.6821 689.234C43.116 686.762 40.5058 676.496 45.2041 654.727C47.9092 642.179 55.0754 618.747 65.5636 588.185C73.1093 592.653 80.418 597.073 87.062 601.113C143.299 635.192 191.848 664.566 249.224 664.566C313.482 664.566 378.214 627.73 458.038 545.408C480.058 609.763 486.513 642.702 485.232 652.113C484.826 658.533 482.209 664.614 477.828 669.319C475.606 671.043 473.752 673.196 472.374 675.649C470.995 678.102 470.121 680.807 469.802 683.604C469.483 686.401 469.727 689.234 470.518 691.935C471.308 694.637 472.631 697.152 474.407 699.334C476.183 701.516 478.377 703.319 480.86 704.639C483.343 705.959 486.065 706.767 488.865 707.018C491.664 707.268 494.485 706.954 497.162 706.096C499.839 705.238 502.318 703.852 504.452 702.019C516.601 692.085 524.194 677.304 526.994 658.197C532.309 623.405 494.011 516.129 470.757 455.528ZM94.6551 163.694C93.3813 157.388 93.5315 150.877 95.0943 144.636C96.657 138.396 99.5928 132.585 103.687 127.627C107.782 122.67 112.931 118.692 118.758 115.985C124.586 113.278 130.944 111.91 137.367 111.981C144.325 112.077 151.213 113.379 157.727 115.831C157.727 120.362 157.869 124.925 158.153 129.519C158.572 134.878 160.994 139.881 164.936 143.529C168.877 147.177 174.048 149.201 179.414 149.197H180.601C183.366 149.022 186.07 148.3 188.555 147.073C191.04 145.846 193.257 144.138 195.08 142.048C196.902 139.957 198.293 137.526 199.172 134.895C200.051 132.263 200.401 129.483 200.201 126.715C197.781 90.5924 208.933 70.0593 218.709 59.1749C222.842 54.2845 227.91 50.2722 233.616 47.3743C239.321 44.4764 245.548 42.7517 251.93 42.3017H253.116C262.036 42.6209 270.465 46.4663 276.56 52.996C288.578 65.0696 295.827 81.0918 296.967 98.102C296.942 98.5611 296.942 99.0213 296.967 99.4804C296.967 100.146 296.967 100.764 296.967 101.524C296.967 102.285 296.967 102.57 297.299 103.14C297.631 103.711 297.679 104.614 297.916 105.232C298.153 105.849 298.343 106.23 298.533 106.705C298.726 107.193 298.948 107.669 299.197 108.131C299.197 108.559 299.672 108.986 299.957 109.414C300.235 109.884 300.552 110.33 300.906 110.745C301.304 111.291 301.732 111.814 302.187 112.314C302.662 112.836 303.137 113.312 303.659 113.787C304.157 114.243 304.68 114.671 305.225 115.07L306.933 116.211L308.594 117.114C309.278 117.464 309.993 117.751 310.73 117.97C311.303 118.195 311.89 118.386 312.486 118.54C313.138 118.722 313.805 118.85 314.479 118.92C315.072 119.052 315.675 119.132 316.282 119.158H317.801H319.224H320.838L322.831 118.73C323.51 118.575 324.177 118.368 324.825 118.112C325.341 117.951 325.848 117.761 326.343 117.542L327.672 116.924C336.939 111.398 347.379 108.141 358.14 107.418C362.933 107.18 367.651 108.682 371.428 111.648C380.16 119.063 382.581 136.079 377.218 152.049C374.899 159.688 370.605 166.578 364.771 172.021C358.937 177.463 351.771 181.264 343.998 183.038C331.184 171.441 313.293 166.831 282.303 166.831C266.215 166.831 245.38 168.066 216.669 170.776C211.278 171.29 206.292 173.863 202.745 177.96C199.198 182.058 197.362 187.366 197.619 192.783C197.875 198.2 200.204 203.311 204.122 207.054C208.04 210.797 213.247 212.886 218.662 212.887H220.608C247.896 210.321 267.449 209.132 282.303 209.132C306.032 209.132 314.004 212.364 316.472 215.074C317.035 216.196 317.702 217.262 318.465 218.258C322.829 226.903 326.494 235.883 329.428 245.113C322.926 244.495 315.95 244.162 308.594 244.162C304.797 244.162 300.859 244.162 297.015 244.4C260.804 245.968 207.984 255.236 170.397 276.34C170.1 253.5 172.377 230.7 177.184 208.372C178.293 202.896 177.193 197.204 174.125 192.538C171.058 187.871 166.271 184.61 160.811 183.466C159.389 183.18 157.943 183.037 156.493 183.038C151.642 183.056 146.945 184.742 143.187 187.813C139.429 190.885 136.838 195.156 135.849 199.912C135.849 200.815 135.469 201.908 135.184 203.239C105.333 191.546 96.9331 173.913 94.6551 163.694ZM250.648 622.787C205.042 622.787 162.804 597.216 109.367 564.895C100.587 559.572 90.7636 553.63 80.4178 547.499C111.455 461.945 153.455 358.662 171.916 328.861C184.54 308.613 244.052 288.793 299.292 286.416C302.662 286.416 305.937 286.416 309.069 286.416C340.723 286.416 352.397 293.213 353.774 295.019C367.014 312.748 409.727 411.801 442.52 500.682C364.262 585.095 304.94 622.787 250.648 622.787Z" fill="#EE3A3D"/>
<path d="M223.503 370.927L223.076 371.497C222.228 372.704 220.997 373.587 219.583 374.002C218.169 374.416 216.657 374.338 215.293 373.778C212.488 372.554 209.56 371.63 206.561 371.022H205.374C194.317 371.022 184.351 376.202 174.242 380.195C173.413 380.542 172.522 380.716 171.624 380.703C170.725 380.691 169.839 380.494 169.02 380.124C168.201 379.754 167.466 379.219 166.862 378.552C166.259 377.886 165.799 377.102 165.51 376.25C165 374.796 165.01 373.209 165.538 371.762C166.066 370.314 167.079 369.095 168.405 368.312C179.774 361.799 192.455 357.918 205.517 356.953C208.542 356.659 211.595 356.974 214.497 357.88C217.398 358.786 220.09 360.265 222.412 362.229C223.606 363.305 224.374 364.777 224.574 366.374C224.775 367.971 224.395 369.587 223.503 370.927Z" fill="black"/>
<path d="M346.989 379.672C346.989 380.147 346.609 380.622 346.466 381.05C345.884 382.69 344.684 384.036 343.123 384.8C341.562 385.565 339.764 385.686 338.114 385.138C326.163 380.992 313.957 377.627 301.572 375.061C299.882 374.716 298.394 373.722 297.427 372.291C296.46 370.861 296.091 369.108 296.399 367.409C296.482 366.88 296.593 366.357 296.731 365.84C297.086 364.205 298.048 362.765 299.422 361.812C300.797 360.859 302.481 360.464 304.134 360.707C317.639 362.379 330.837 365.964 343.335 371.354C344.89 372.009 346.136 373.236 346.816 374.784C347.496 376.331 347.558 378.08 346.989 379.672Z" fill="black"/>
<path d="M207.035 406.192C204.758 402.484 200.107 396.686 195.741 401.154C191.683 406.134 188.768 411.947 187.201 418.181C185.635 424.415 185.456 430.918 186.676 437.229C187.388 443.36 194.696 448.969 200.439 444.739C213.11 436.469 212.92 418.502 207.035 406.192ZM201.72 423.018C200.154 423.018 198.872 420.593 198.872 417.599C198.872 414.605 200.154 412.181 201.72 412.181C203.286 412.181 204.615 414.652 204.615 417.599C204.615 420.546 203.191 423.018 201.72 423.018Z" fill="black"/>
<path d="M325.68 408.664C325.317 407.246 324.632 405.931 323.679 404.822C322.726 403.712 321.53 402.839 320.185 402.268C318.839 401.698 317.38 401.446 315.921 401.533C314.462 401.62 313.043 402.043 311.775 402.77C304.514 410.85 302.568 422.495 302.283 433.379C302.283 439.796 302.568 447.638 308.595 451.631C315.097 454.197 320.27 447.876 323.877 443.693C332.277 433.95 330.568 419.595 325.68 408.664ZM319.985 422.685C318.371 422.685 317.09 420.261 317.09 417.266C317.09 414.272 318.371 411.848 319.985 411.848C321.598 411.848 322.832 414.272 322.832 417.266C322.832 420.261 321.551 422.685 319.985 422.685Z" fill="black"/>
<path d="M276.277 496.5C264.075 499.117 251.567 500.013 239.118 499.162H238.548C231.714 498.211 223.314 495.644 221.416 488.04C219.518 480.435 224.216 473.781 227.016 467.507C233.355 453.259 238.963 438.696 243.816 423.874C244.122 423.068 244.589 422.333 245.189 421.715C245.789 421.096 246.509 420.607 247.305 420.278C248.101 419.948 248.955 419.785 249.816 419.799C250.677 419.813 251.526 420.002 252.311 420.357L253.592 420.927C254.948 421.578 256.028 422.691 256.637 424.068C257.246 425.445 257.344 426.994 256.914 428.437C251.846 445.072 245.368 461.244 237.552 476.775C237.124 477.663 236.911 478.639 236.931 479.625C236.95 480.61 237.201 481.577 237.663 482.448C238.125 483.318 238.786 484.067 239.591 484.634C240.396 485.201 241.323 485.57 242.297 485.711C252.96 486.85 263.736 486.321 274.236 484.142C275.059 484.028 275.897 484.078 276.7 484.289C277.504 484.5 278.258 484.868 278.919 485.371C279.58 485.875 280.136 486.504 280.554 487.223C280.972 487.942 281.244 488.736 281.355 489.561C281.528 491.144 281.103 492.734 280.163 494.019C279.223 495.303 277.837 496.189 276.277 496.5Z" fill="black"/>
<path d="M264.887 585.191C264.997 586.729 264.542 588.255 263.606 589.481C262.671 590.706 261.321 591.547 259.809 591.845C249.986 593.651 239.45 595.172 230.338 590.181C229.11 589.457 228.218 588.277 227.854 586.898C227.489 585.519 227.683 584.051 228.392 582.814C228.929 581.504 229.89 580.412 231.12 579.714C232.351 579.015 233.78 578.752 235.179 578.964C242.771 579.89 250.441 579.986 258.054 579.249C258.887 579.178 259.725 579.273 260.521 579.529C261.318 579.785 262.055 580.197 262.691 580.741C263.327 581.285 263.849 581.95 264.226 582.698C264.603 583.445 264.827 584.26 264.887 585.096V585.191Z" fill="black"/>
<path d="M328.29 543.366C307.409 559.288 281.212 564.326 256.487 564.326C229.103 563.82 201.984 558.86 176.189 549.64C174.219 548.889 172.627 547.387 171.764 545.461C170.901 543.536 170.836 541.346 171.585 539.373C172.334 537.4 173.835 535.806 175.757 534.942C177.68 534.077 179.866 534.013 181.836 534.763C182.69 535.143 270.202 567.654 318.656 530.723C319.474 529.99 320.435 529.436 321.479 529.095C322.522 528.753 323.624 528.633 324.716 528.741C325.808 528.849 326.866 529.183 327.823 529.721C328.779 530.26 329.614 530.992 330.273 531.87C330.933 532.748 331.403 533.754 331.654 534.824C331.905 535.894 331.931 537.005 331.731 538.085C331.531 539.166 331.11 540.193 330.493 541.102C329.876 542.011 329.077 542.782 328.148 543.366H328.29Z" fill="black"/>
<path fill-rule="evenodd" clip-rule="evenodd" d="M73.8211 338.652C72.6104 338.652 71.4251 338.306 70.4042 337.654C57.5907 329.716 45.1568 309.136 43.7806 306.854C43.3443 306.118 43.057 305.303 42.9354 304.455C42.8137 303.607 42.86 302.744 43.0715 301.914C43.283 301.084 43.6557 300.304 44.1681 299.619C44.6806 298.933 45.323 298.356 46.0585 297.919C46.7939 297.482 47.6081 297.194 48.4545 297.073C49.3009 296.951 50.1628 296.997 50.9913 297.209C51.8198 297.421 52.5986 297.794 53.2831 298.307C53.9676 298.82 54.5443 299.464 54.9805 300.2C58.2551 305.714 68.6955 321.256 77.2379 326.579C78.4515 327.32 79.3897 328.438 79.9085 329.763C80.4274 331.088 80.4983 332.547 80.1107 333.916C79.7231 335.286 78.8987 336.49 77.7627 337.345C76.6268 338.201 75.2422 338.66 73.8211 338.652Z" fill="black"/>
<path fill-rule="evenodd" clip-rule="evenodd" d="M63.7626 381.334C48.766 381.334 27.9795 371.59 25.7965 370.45C24.3774 369.618 23.3225 368.282 22.8414 366.708C22.3602 365.133 22.4881 363.435 23.1994 361.951C23.9106 360.466 25.1531 359.304 26.6805 358.695C28.2079 358.085 29.9087 358.074 31.4442 358.662C37.2341 361.419 54.6036 368.643 64.6646 368.168C65.5255 368.123 66.3865 368.253 67.1962 368.549C68.0059 368.846 68.7475 369.303 69.3767 369.893C70.006 370.483 70.5098 371.194 70.8581 371.984C71.2063 372.774 71.3916 373.626 71.4032 374.49C71.4544 376.221 70.8194 377.903 69.6369 379.168C68.4543 380.432 66.8204 381.177 65.0915 381.239L63.7626 381.334Z" fill="black"/>
<path fill-rule="evenodd" clip-rule="evenodd" d="M435.07 323.396C433.952 323.398 432.851 323.116 431.872 322.576C430.892 322.035 430.066 321.254 429.47 320.306C429.019 319.576 428.716 318.765 428.579 317.918C428.443 317.071 428.475 316.205 428.673 315.37C428.872 314.535 429.233 313.748 429.736 313.053C430.24 312.359 430.875 311.771 431.606 311.323C440.196 305.952 450.589 290.457 453.911 284.944C454.35 284.207 454.93 283.565 455.617 283.053C456.305 282.54 457.086 282.169 457.917 281.959C458.747 281.75 459.611 281.706 460.459 281.831C461.306 281.955 462.121 282.246 462.856 282.686C463.592 283.126 464.234 283.707 464.745 284.395C465.256 285.084 465.627 285.866 465.836 286.698C466.046 287.53 466.089 288.395 465.965 289.244C465.84 290.093 465.55 290.909 465.11 291.645C463.734 293.927 451.3 314.46 438.487 322.397C437.461 323.037 436.279 323.383 435.07 323.396Z" fill="black"/>
<path fill-rule="evenodd" clip-rule="evenodd" d="M453.057 360.561C452.266 360.609 451.474 360.609 450.684 360.561C449.941 360.532 449.212 360.353 448.54 360.035C447.869 359.717 447.269 359.265 446.776 358.708C446.283 358.151 445.908 357.5 445.673 356.794C445.438 356.088 445.348 355.341 445.409 354.6C445.47 353.858 445.68 353.136 446.027 352.478C446.374 351.82 446.85 351.239 447.427 350.77C448.005 350.301 448.67 349.954 449.385 349.75C450.1 349.546 450.848 349.488 451.585 349.582C459.985 350.199 473.748 344.829 478.399 342.69C479.727 342.06 481.25 341.983 482.634 342.478C484.018 342.973 485.15 343.998 485.779 345.328C486.408 346.658 486.484 348.183 485.99 349.57C485.496 350.956 484.473 352.088 483.145 352.719C473.72 357.145 463.576 359.834 453.199 360.656L453.057 360.561Z" fill="black"/>
</g>
<defs>
<clipPath id="clip0_992_962">
<rect width="565" height="656" fill="white"/>
</clipPath>
</defs>
</svg>
