<svg width="220" height="200" viewBox="0 0 220 200" fill="none" xmlns="http://www.w3.org/2000/svg">
<path fill-rule="evenodd" clip-rule="evenodd" d="M203.937 125.044C194.791 101.197 184.956 79.1846 181.007 74.089C180.337 73.1806 179.539 72.374 178.638 71.6943C177.975 69.1465 176.676 64.7898 175.071 60.5605C178.396 59.2482 181.389 57.2147 183.834 54.6066C186.28 51.9985 188.116 48.8807 189.211 45.4776C192.243 36.484 190.23 27.0062 184.115 21.8598C180.98 19.2499 177.01 17.8569 172.931 17.9361C170.679 17.9543 168.44 18.2888 166.281 18.9298C164.773 14.1403 162.154 9.77527 158.638 6.19091C154.79 2.28104 149.55 0.0550856 144.064 0H143.402C140.101 0.188947 136.871 1.03411 133.9 2.4865C130.93 3.93889 128.279 5.96921 126.103 8.45846C123.131 11.8463 120.923 15.8349 119.631 20.1526C117.258 19.4942 114.808 19.1518 112.345 19.1338C108.851 19.1328 105.401 19.9128 102.247 21.4169C99.0938 22.921 96.3166 25.1112 94.1185 27.827C91.9205 30.5429 90.3571 33.7156 89.5433 37.1134C88.7295 40.5112 88.6857 44.048 89.4149 47.465C91.4786 56.5605 99.0453 63.7451 110.281 67.4394C109.593 75.261 110.128 80.8407 111.937 84.4076C103.122 98.8025 79.3765 161.172 75.9116 177.121C72.8033 191.465 77.746 196.917 81.0071 198.879C81.3264 199.086 81.6583 199.273 82.0008 199.439C82.798 199.813 83.6682 200.004 84.5485 200C86.0847 199.993 87.5556 199.378 88.6395 198.289C89.7234 197.201 90.332 195.727 90.332 194.191C90.3318 193.138 90.0415 192.106 89.4932 191.207C88.9449 190.308 88.1599 189.577 87.2238 189.095C86.7907 188.433 86.0772 185.605 87.3765 179.643C88.1154 176.204 90.0773 169.783 92.9563 161.376L98.867 164.943C114.332 174.267 127.657 182.344 143.427 182.344C161.084 182.344 178.867 172.153 200.752 149.656C206.816 167.312 208.6 176.357 208.217 178.93C208.109 180.686 207.398 182.35 206.205 183.643C205.309 184.404 204.666 185.42 204.362 186.555C204.057 187.691 204.106 188.892 204.502 189.999C204.898 191.105 205.621 192.065 206.577 192.751C207.532 193.436 208.673 193.814 209.848 193.834C211.186 193.847 212.485 193.386 213.517 192.535C217.035 189.471 219.25 185.178 219.708 180.535C220.854 171.108 210.383 141.707 203.937 125.044ZM100.625 45.1209C100.276 43.3955 100.317 41.6139 100.744 39.9062C101.171 38.1986 101.975 36.608 103.095 35.2505C104.216 33.893 105.626 32.8029 107.222 32.0599C108.817 31.3168 110.559 30.9392 112.319 30.9552C114.226 30.9776 116.113 31.3311 117.899 31.9998C117.899 33.2482 117.899 34.5475 117.899 35.745C118.008 37.2161 118.671 38.5912 119.754 39.5934C120.836 40.5955 122.258 41.1503 123.733 41.1462H124.064C124.824 41.098 125.566 40.8998 126.248 40.5631C126.93 40.2264 127.539 39.7581 128.039 39.1847C128.545 38.6152 128.93 37.9489 129.171 37.2263C129.411 36.5037 129.503 35.7399 129.44 34.9808C128.778 25.07 131.988 19.4394 134.536 16.4585C135.67 15.1163 137.061 14.0145 138.628 13.2181C140.194 12.4218 141.904 11.9471 143.657 11.8217H143.963C146.414 11.9074 148.732 12.9607 150.408 14.7514C153.715 18.0632 155.707 22.4633 156.014 27.1335C156 27.252 156 27.3717 156.014 27.4902C155.99 27.6763 155.99 27.8649 156.014 28.051C156.001 28.2036 156.001 28.3568 156.014 28.5094C156.061 28.6997 156.121 28.8868 156.192 29.0698L156.345 29.4776L156.549 29.8853L156.752 30.2165L157.007 30.5987C157.117 30.7504 157.236 30.8948 157.364 31.0317L157.771 31.4139L158.205 31.7706C158.342 31.9011 158.496 32.0125 158.663 32.1018L159.122 32.3311L159.708 32.5858L160.192 32.7388H160.727H161.236H162.026H162.485H163.02L163.58 32.5858L163.988 32.4076L164.345 32.2545C166.902 30.7624 169.772 29.8898 172.727 29.7068C174.044 29.6349 175.342 30.0525 176.37 30.879C178.765 32.8917 179.453 37.554 177.975 41.9362C177.339 44.0236 176.167 45.9078 174.575 47.4009C172.984 48.894 171.029 49.9437 168.905 50.4457C165.389 47.2609 160.472 46.0126 151.937 46.0126C147.53 46.0126 141.746 46.3439 133.924 47.0827C132.391 47.2248 130.976 47.9704 129.992 49.1553C129.008 50.3402 128.534 51.8673 128.676 53.4012C128.826 54.8339 129.499 56.1611 130.566 57.1292C131.633 58.0973 133.019 58.6388 134.459 58.6497H134.995C142.485 57.9363 147.733 57.605 151.912 57.605C158.434 57.605 160.625 58.4968 161.313 59.2356C161.46 59.5504 161.64 59.8491 161.848 60.1273C163.054 62.4934 164.059 64.9564 164.854 67.4904C163.071 67.312 161.16 67.2357 159.147 67.2357H155.963C146.026 67.6688 131.504 70.2164 121.185 75.9999C121.09 69.7326 121.714 63.4753 123.045 57.3503C123.346 55.8475 123.042 54.2864 122.197 53.0074C121.352 51.7285 120.036 50.8351 118.536 50.5222C118.146 50.4846 117.754 50.4846 117.364 50.5222C116.031 50.5334 114.741 50.999 113.708 51.8421C112.675 52.6851 111.961 53.855 111.682 55.159C111.682 55.4137 111.682 55.7197 111.504 56.0764C103.555 52.7643 101.262 47.6687 100.625 45.1209ZM143.453 171.057C130.918 171.057 119.326 164.051 104.65 155.184C102.103 153.707 99.5549 152.102 96.676 150.42C105.211 126.955 116.752 98.5987 121.822 90.4968C125.287 84.9172 141.644 79.4903 156.803 78.8533H159.504C168.192 78.8533 171.402 80.7388 171.784 81.2229C175.427 86.0892 187.071 113.248 196.166 137.631C174.714 160.611 158.408 170.93 143.453 170.93V171.057Z" fill="#EE3A3D"/>
<path d="M136.014 101.834V101.987C135.78 102.317 135.442 102.56 135.054 102.675C134.666 102.791 134.25 102.772 133.874 102.624C133.108 102.282 132.304 102.034 131.479 101.885H131.148C128.158 102.184 125.253 103.049 122.587 104.433C122.359 104.526 122.114 104.571 121.867 104.566C121.62 104.56 121.377 104.505 121.153 104.402C120.929 104.3 120.728 104.152 120.563 103.969C120.397 103.786 120.271 103.571 120.192 103.337C120.054 102.938 120.059 102.503 120.208 102.107C120.357 101.712 120.64 101.381 121.008 101.172C124.129 99.3818 127.611 98.3113 131.199 98.038C132.029 97.9635 132.866 98.0535 133.662 98.3027C134.457 98.5519 135.196 98.9552 135.836 99.4901C136.135 99.7981 136.317 100.202 136.35 100.63C136.382 101.058 136.263 101.484 136.014 101.834Z" fill="black"/>
<path d="M169.95 104.255L169.797 104.637C169.636 105.084 169.305 105.45 168.876 105.655C168.446 105.86 167.954 105.888 167.504 105.732C164.221 104.598 160.868 103.679 157.466 102.981C157 102.882 156.591 102.607 156.325 102.212C156.059 101.818 155.956 101.335 156.039 100.866C156.03 100.722 156.03 100.577 156.039 100.433C156.138 99.9842 156.403 99.5896 156.781 99.3294C157.16 99.0692 157.623 98.9629 158.077 99.0318C161.79 99.497 165.418 100.483 168.854 101.962C169.294 102.134 169.652 102.466 169.855 102.892C170.058 103.317 170.092 103.805 169.95 104.255Z" fill="black"/>
<path d="M131.402 111.516C130.765 110.497 129.491 108.968 128.294 110.14C127.17 111.5 126.359 113.091 125.919 114.799C125.479 116.507 125.42 118.292 125.746 120.025C125.95 121.707 127.963 123.261 129.517 122.089C133.16 119.821 133.109 114.904 131.402 111.516ZM129.925 116.127C129.491 116.127 129.16 115.465 129.16 114.65C129.16 113.834 129.491 113.172 129.925 113.172C130.358 113.172 130.714 113.834 130.714 114.65C130.714 115.465 130.485 116.127 130.026 116.127H129.925Z" fill="black"/>
<path d="M164.09 112.204C163.98 111.821 163.787 111.467 163.524 111.169C163.26 110.87 162.933 110.634 162.567 110.478C162.201 110.322 161.805 110.249 161.407 110.266C161.009 110.282 160.62 110.387 160.268 110.573C158.478 113 157.578 115.969 157.72 118.981C157.72 120.739 157.72 122.93 159.478 124.076C161.236 125.223 162.689 123.057 163.682 121.911C164.658 120.496 165.214 118.833 165.286 117.116C165.358 115.399 164.943 113.696 164.09 112.204ZM162.51 116.051C162.077 116.051 161.72 115.388 161.72 114.548C161.72 113.707 162.077 113.07 162.51 113.07C162.943 113.07 163.3 113.732 163.3 114.548C163.3 115.363 162.943 116.051 162.51 116.051Z" fill="black"/>
<path d="M150.51 136.28C147.165 137.009 143.734 137.258 140.319 137.019H140.141C138.281 136.764 135.962 136.051 135.452 133.962C135.354 131.97 135.889 129.999 136.981 128.331C138.72 124.455 140.259 120.492 141.593 116.458C141.676 116.236 141.805 116.032 141.97 115.861C142.135 115.69 142.334 115.555 142.554 115.464C142.774 115.373 143.01 115.329 143.248 115.333C143.486 115.338 143.72 115.391 143.937 115.49L144.268 115.643C144.644 115.812 144.945 116.112 145.114 116.488C145.283 116.863 145.309 117.288 145.185 117.681C143.804 122.25 142.031 126.691 139.886 130.955C139.745 131.2 139.666 131.475 139.658 131.757C139.649 132.04 139.711 132.319 139.837 132.572C139.964 132.824 140.151 133.041 140.381 133.204C140.612 133.366 140.879 133.469 141.159 133.503C144.086 133.816 147.043 133.67 149.924 133.07C150.383 133.012 150.846 133.137 151.213 133.419C151.581 133.7 151.822 134.115 151.886 134.573C151.893 134.974 151.759 135.364 151.508 135.676C151.256 135.989 150.903 136.202 150.51 136.28Z" fill="black"/>
<path d="M147.453 160.637C147.474 161.056 147.344 161.469 147.087 161.8C146.83 162.132 146.463 162.361 146.052 162.446C143.379 163.23 140.517 163.068 137.95 161.987C137.613 161.79 137.368 161.468 137.267 161.091C137.167 160.714 137.22 160.312 137.415 159.974C137.563 159.616 137.826 159.316 138.162 159.123C138.499 158.929 138.89 158.852 139.275 158.904C141.365 159.146 143.477 159.146 145.568 158.904C145.796 158.884 146.026 158.909 146.245 158.979C146.463 159.049 146.665 159.162 146.839 159.312C147.012 159.462 147.154 159.645 147.255 159.851C147.356 160.057 147.415 160.281 147.428 160.51L147.453 160.637Z" fill="black"/>
<path d="M164.803 149.146C159.03 153.155 152.106 155.167 145.083 154.879C137.559 154.743 130.107 153.383 123.02 150.853C122.754 150.751 122.51 150.598 122.304 150.402C122.097 150.206 121.931 149.971 121.815 149.711C121.699 149.451 121.636 149.17 121.628 148.885C121.621 148.6 121.669 148.317 121.771 148.051C121.873 147.785 122.027 147.542 122.223 147.335C122.419 147.128 122.654 146.962 122.914 146.846C123.174 146.73 123.455 146.667 123.74 146.659C124.024 146.652 124.308 146.701 124.574 146.803C124.803 146.803 148.854 155.796 162.153 145.681C162.613 145.464 163.134 145.414 163.626 145.539C164.119 145.663 164.553 145.956 164.854 146.365C165.155 146.774 165.304 147.276 165.276 147.783C165.249 148.291 165.045 148.772 164.701 149.146H164.803Z" fill="black"/>
<path fill-rule="evenodd" clip-rule="evenodd" d="M94.8924 92.9935C94.5585 92.9876 94.2326 92.8908 93.9498 92.7133C90.9941 90.3972 88.5116 87.534 86.6377 84.28C86.5172 84.0776 86.4376 83.8535 86.4038 83.6204C86.37 83.3873 86.3825 83.1498 86.4405 82.9215C86.4985 82.6932 86.6006 82.4786 86.7416 82.2899C86.8825 82.1011 87.0594 81.942 87.2619 81.8215C87.4643 81.7011 87.6884 81.6215 87.9215 81.5876C88.1546 81.5538 88.392 81.5664 88.6203 81.6243C88.8486 81.6823 89.0633 81.7848 89.252 81.9257C89.4407 82.0666 89.5999 82.2433 89.7204 82.4457C91.3101 85.2034 93.3811 87.6539 95.8351 89.6813C96.1712 89.8832 96.4312 90.1903 96.5753 90.5549C96.7193 90.9195 96.7392 91.3214 96.6319 91.6985C96.5246 92.0755 96.296 92.4067 95.9816 92.6408C95.6671 92.8749 95.2844 92.9989 94.8924 92.9935Z" fill="black"/>
<path fill-rule="evenodd" clip-rule="evenodd" d="M92.1413 104.713C88.4903 104.349 84.9347 103.331 81.6445 101.707C81.432 101.605 81.2419 101.462 81.0847 101.286C80.9274 101.111 80.8063 100.906 80.7283 100.683C80.6502 100.461 80.6167 100.226 80.6297 99.9902C80.6427 99.7549 80.7018 99.5244 80.8038 99.3119C80.9059 99.0995 81.0487 98.909 81.2243 98.7518C81.3999 98.5946 81.6047 98.4735 81.8271 98.3954C82.0494 98.3173 82.285 98.2838 82.5203 98.2968C82.7556 98.3098 82.9861 98.3689 83.1986 98.471C86.0591 99.8669 89.15 100.73 92.3198 101.019C92.7928 101.019 93.2465 101.207 93.5809 101.541C93.9154 101.876 94.1031 102.329 94.1031 102.802C94.1031 103.275 93.9154 103.729 93.5809 104.063C93.2465 104.398 92.7928 104.586 92.3198 104.586L92.1413 104.713Z" fill="black"/>
<path fill-rule="evenodd" clip-rule="evenodd" d="M194.129 88.8152C193.822 88.8102 193.521 88.7283 193.254 88.5769C192.987 88.4256 192.762 88.2098 192.6 87.949C192.462 87.746 192.368 87.5166 192.322 87.2754C192.277 87.0342 192.282 86.7864 192.337 86.5473C192.392 86.3082 192.496 86.0827 192.642 85.8855C192.788 85.6883 192.973 85.5236 193.186 85.4012C195.647 83.3742 197.727 80.9236 199.326 78.1654C199.441 77.9456 199.602 77.7527 199.797 77.5993C199.992 77.4459 200.217 77.3357 200.457 77.2756C200.698 77.2154 200.949 77.2068 201.193 77.2504C201.437 77.294 201.669 77.3887 201.874 77.5284C202.086 77.6513 202.271 77.8159 202.417 78.0123C202.564 78.2088 202.668 78.4331 202.726 78.6714C202.783 78.9096 202.791 79.157 202.75 79.3985C202.709 79.64 202.619 79.8705 202.486 80.0762C200.576 83.3058 198.068 86.1421 195.097 88.4329C194.815 88.6129 194.489 88.7099 194.154 88.7132L194.129 88.8152Z" fill="black"/>
<path fill-rule="evenodd" clip-rule="evenodd" d="M199.071 99.0064H198.434C198.237 98.9896 198.044 98.9341 197.868 98.8431C197.692 98.7521 197.536 98.6275 197.408 98.4761C197.281 98.3247 197.184 98.1495 197.124 97.9607C197.064 97.772 197.041 97.5731 197.058 97.3757C197.075 97.1783 197.13 96.986 197.221 96.81C197.312 96.634 197.437 96.4778 197.588 96.35C197.74 96.2223 197.915 96.1256 198.104 96.0655C198.293 96.0054 198.491 95.9831 198.689 95.9998C201.241 95.8491 203.741 95.209 206.052 94.1145C206.233 94.015 206.433 93.9539 206.638 93.9351C206.844 93.9162 207.051 93.9398 207.248 94.0047C207.444 94.0696 207.625 94.1745 207.779 94.3123C207.932 94.4502 208.056 94.6183 208.142 94.8062C208.228 94.9941 208.275 95.1977 208.278 95.4043C208.282 95.6109 208.244 95.8161 208.165 96.007C208.085 96.1979 207.968 96.3705 207.819 96.5139C207.671 96.6574 207.494 96.7687 207.3 96.8408C204.716 98.0741 201.926 98.817 199.071 99.0319V99.0064Z" fill="black"/>
<path fill-rule="evenodd" clip-rule="evenodd" d="M5.66964 62.9551L3.86051 63.7703C3.26106 64.0302 2.71941 64.4064 2.26629 64.8772C1.81316 65.3479 1.45761 65.9038 1.22068 66.5127C0.983752 67.1216 0.869914 67.7716 0.885725 68.4248C0.901535 69.078 1.04663 69.7215 1.31274 70.3182L31.351 136.102L36.8798 148.178C38.0008 150.726 45.6442 161.375 48.1156 160.254L49.4146 159.668C51.9624 158.522 48.7778 145.732 47.6313 143.261L42.1281 131.184L12.0646 65.4009C11.8045 64.8046 11.4293 64.2657 10.9605 63.8148C10.4916 63.3638 9.93832 63.0096 9.33237 62.7729C8.72642 62.5362 8.07971 62.4214 7.42931 62.4351C6.77892 62.4489 6.13751 62.591 5.54212 62.8531L5.66964 62.9551Z" fill="black"/>
<path fill-rule="evenodd" clip-rule="evenodd" d="M18.3579 107.388L19.2242 109.274L30.0012 104.357L29.135 102.471L18.3579 107.388Z" fill="white"/>
<path fill-rule="evenodd" clip-rule="evenodd" d="M49.3388 162.777L48.1921 161.503C48.1492 161.434 48.1265 161.355 48.1265 161.274C48.1265 161.193 48.1492 161.113 48.1921 161.044C48.2021 160.962 48.2332 160.884 48.2823 160.817C48.3314 160.75 48.3967 160.697 48.4723 160.662L49.1858 160.356L49.8737 160.051C49.9442 160.013 50.0229 159.993 50.1029 159.993C50.1829 159.993 50.262 160.013 50.3324 160.051C50.406 160.094 50.4691 160.153 50.5175 160.224C50.5659 160.294 50.5985 160.374 50.6127 160.458L50.8164 162.165C51.1985 165.426 51.5806 165.121 49.466 162.777H49.3388Z" fill="#231F20"/>
<path fill-rule="evenodd" clip-rule="evenodd" d="M2.86696 56.917L0.956128 57.8087C0.740223 57.95 0.585923 58.1679 0.524451 58.4185C0.462979 58.6692 0.4989 58.9339 0.624906 59.159L2.73944 63.7452L6.20437 62.1652L4.11534 57.5794C4.02806 57.3327 3.8514 57.1277 3.62021 57.005C3.38903 56.8823 3.1202 56.851 2.86696 56.917Z" fill="black"/>
<path fill-rule="evenodd" clip-rule="evenodd" d="M2.51112 68.7643C2.51112 68.7643 -0.877471 70.9806 0.21807 74.0125C1.31361 77.0443 10.8676 97.7579 10.8676 97.7579C11.1237 96.9502 11.2085 96.0978 11.1164 95.2555C11.0242 94.4132 10.7573 93.5993 10.3326 92.8661C8.95684 89.7068 2.33261 75.0317 2.33261 75.0317C2.33261 75.0317 3.32632 73.3247 5.28811 76.3311C7.24989 79.3374 2.51112 68.6877 2.51112 68.6877V68.7643Z" fill="black"/>
<path fill-rule="evenodd" clip-rule="evenodd" d="M34.1279 125.732C34.1279 125.732 43.5801 129.809 36.6756 136.153C29.7712 142.497 22.7139 134.446 22.7139 134.446C22.7139 134.446 18.3827 121.096 25.8731 118.497C33.3636 115.898 36.0132 121.834 34.1279 125.732Z" fill="#EE3A3D"/>
<path fill-rule="evenodd" clip-rule="evenodd" d="M39.1735 112.229C39.1735 112.229 26.8166 113.452 39.5809 124.509L48.3709 148.178C48.3709 148.178 66.2052 162.573 82.3581 153.783C98.5109 144.994 87.6318 138.497 87.6318 138.497C87.6318 138.497 80.4472 148.688 63.8612 143.872C47.2753 139.057 46.3071 132.051 46.3071 132.051C46.3071 132.051 53.4155 117.809 39.1735 112.229Z" fill="#EE3A3D"/>
</svg>
