<svg width="225" height="201" viewBox="0 0 225 201" fill="none" xmlns="http://www.w3.org/2000/svg">
<path fill-rule="evenodd" clip-rule="evenodd" d="M208.667 124.99C199.517 101.14 189.667 79.23 185.757 73.99C185.078 73.0872 184.277 72.283 183.377 71.6001C182.717 69.1901 181.377 64.7101 179.827 60.4701C183.151 59.1561 186.142 57.1224 188.587 54.5151C191.032 51.9078 192.869 48.7915 193.967 45.39C196.967 36.39 194.967 26.91 188.907 21.77C185.776 19.1555 181.805 17.7631 177.727 17.8501C175.471 17.8724 173.229 18.209 171.067 18.8501C169.518 14.0728 166.858 9.73068 163.307 6.18005C159.453 2.2764 154.212 0.054852 148.727 0H148.087C144.788 0.189285 141.56 1.03402 138.591 2.48486C135.623 3.93571 132.973 5.96365 130.797 8.45007C127.817 11.8343 125.609 15.8267 124.327 20.15C121.953 19.4891 119.501 19.1527 117.037 19.15C113.537 19.1387 110.079 19.9112 106.917 21.4108C103.755 22.9103 100.969 25.0988 98.7631 27.8158C96.5573 30.5328 94.988 33.7092 94.1701 37.1119C93.3522 40.5147 93.3066 44.0573 94.0367 47.48C96.0367 56.57 103.647 63.77 114.897 67.48C114.207 75.32 114.747 80.9 116.547 84.48C107.727 98.88 83.9867 161.25 80.5467 177.21C77.4467 191.56 82.3667 197 85.5467 198.98C85.8667 199.17 86.2067 199.35 86.5467 199.51C87.3155 199.887 88.1607 200.082 89.0168 200.08C90.5542 200.075 92.0269 199.46 93.1121 198.371C94.1974 197.282 94.8067 195.807 94.8067 194.27C94.8187 193.21 94.5338 192.168 93.9842 191.261C93.4346 190.354 92.6422 189.62 91.6967 189.14C91.2667 188.47 90.5567 185.65 91.8467 179.68C92.5867 176.23 94.5567 169.8 97.4367 161.42C99.5167 162.65 101.517 163.86 103.347 164.97C118.797 174.31 132.127 182.38 147.897 182.38C165.557 182.38 183.337 172.26 205.237 149.68C211.237 167.34 213.087 176.38 212.707 178.96C212.387 181.18 211.707 182.85 210.707 183.68C210.116 184.16 209.625 184.752 209.263 185.421C208.901 186.091 208.674 186.825 208.595 187.583C208.517 188.34 208.588 189.105 208.806 189.835C209.023 190.564 209.382 191.244 209.862 191.835C210.342 192.426 210.933 192.917 211.603 193.279C212.273 193.641 213.007 193.868 213.764 193.947C214.521 194.025 215.287 193.954 216.016 193.736C216.746 193.519 217.426 193.16 218.017 192.68C221.367 189.95 223.447 185.9 224.217 180.68C225.577 171.05 215.087 141.66 208.667 124.99ZM105.337 44.99C104.989 43.2643 105.03 41.4829 105.457 39.7751C105.885 38.0674 106.688 36.4766 107.807 35.1183C108.927 33.76 110.336 32.6684 111.931 31.9231C113.525 31.1778 115.266 30.7976 117.027 30.8101C118.937 30.8179 120.832 31.1562 122.627 31.8101C122.627 33.0501 122.627 34.3001 122.737 35.5701C122.853 37.0405 123.52 38.4129 124.605 39.4124C125.689 40.4118 127.112 40.9646 128.587 40.9601H128.907C129.666 40.9106 130.409 40.7114 131.091 40.3741C131.774 40.0369 132.383 39.5683 132.884 38.995C133.385 38.4217 133.767 37.755 134.01 37.0334C134.252 36.3118 134.35 35.5494 134.297 34.79C133.627 24.88 136.687 19.25 139.377 16.26C140.513 14.9208 141.904 13.8216 143.47 13.0266C145.036 12.2316 146.745 11.7568 148.497 11.63H148.817C151.268 11.7173 153.585 12.7749 155.257 14.5701C158.564 17.8774 160.557 22.2732 160.867 26.9401C160.857 27.0665 160.857 27.1936 160.867 27.3201C160.867 27.5001 160.867 27.67 160.927 27.88C160.987 28.09 160.977 28.1601 161.017 28.3201C161.057 28.4801 161.127 28.72 161.187 28.9C161.247 29.08 161.297 29.17 161.347 29.3C161.397 29.43 161.477 29.5801 161.537 29.6901C161.599 29.811 161.669 29.9279 161.747 30.04C161.825 30.1689 161.912 30.2925 162.007 30.41C162.107 30.55 162.227 30.6901 162.357 30.8401C162.483 30.9834 162.62 31.117 162.767 31.24C162.903 31.3682 163.047 31.4885 163.197 31.6001C163.348 31.7114 163.505 31.8149 163.667 31.91L164.127 32.16C164.316 32.2478 164.509 32.3246 164.707 32.39C164.864 32.4523 165.024 32.5058 165.187 32.55C165.377 32.55 165.577 32.63 165.737 32.66C165.898 32.692 166.062 32.7088 166.227 32.7101H166.647H167.037L167.487 32.66C167.669 32.633 167.849 32.5963 168.027 32.55C168.215 32.51 168.399 32.4531 168.577 32.38L169.007 32.2201L169.357 32.05C171.907 30.55 174.774 29.6697 177.727 29.48C179.048 29.4127 180.349 29.8286 181.387 30.65C183.777 32.65 184.447 37.34 182.967 41.73C182.336 43.8175 181.166 45.7021 179.576 47.1942C177.985 48.6863 176.03 49.7333 173.907 50.23C170.397 47.05 165.477 45.78 156.907 45.78C152.497 45.78 146.767 46.13 138.907 46.87C137.434 47.0201 136.074 47.7288 135.107 48.8505C134.141 49.9721 133.641 51.4215 133.71 52.9006C133.779 54.3797 134.412 55.7761 135.479 56.8027C136.546 57.8293 137.966 58.4081 139.447 58.42H139.977C147.477 57.72 152.857 57.42 156.907 57.42C163.417 57.42 165.607 58.31 166.297 59.05C166.45 59.3609 166.635 59.6557 166.847 59.9301C168.039 62.3004 169.043 64.7614 169.847 67.29C168.057 67.13 166.147 67.04 164.137 67.04C163.077 67.04 162.007 67.0401 160.947 67.1001C151.007 67.5201 136.487 70.1 126.157 75.86C126.072 69.5964 126.696 63.3434 128.017 57.2201C128.17 56.4748 128.174 55.7067 128.031 54.9596C127.887 54.2125 127.597 53.5011 127.178 52.866C126.759 52.2308 126.22 51.6844 125.59 51.2578C124.96 50.8313 124.252 50.533 123.507 50.38C122.762 50.227 121.993 50.2224 121.246 50.3662C120.499 50.5101 119.788 50.7996 119.153 51.2184C118.518 51.6372 117.971 52.177 117.545 52.807C117.118 53.437 116.82 54.1448 116.667 54.89L116.487 55.8101C108.267 52.5901 105.967 47.7101 105.337 44.9401V44.99ZM148.167 170.93C135.627 170.93 124.037 163.93 109.357 155.04C106.937 153.58 104.247 151.96 101.357 150.28C109.877 126.82 121.427 98.4701 126.497 90.3501C129.967 84.7901 146.317 79.3501 161.497 78.7101C162.427 78.7101 163.327 78.65 164.187 78.65C172.887 78.65 176.087 80.52 176.467 81.02C180.117 85.88 191.847 113.02 200.857 137.43C179.407 160.55 163.087 170.88 148.167 170.88V170.93Z" fill="#EE3A3D"/>
<path d="M140.727 101.78L140.617 101.94C140.383 102.27 140.044 102.512 139.656 102.626C139.268 102.741 138.852 102.721 138.477 102.57C137.71 102.232 136.909 101.98 136.087 101.82H135.757C132.757 101.82 129.977 103.23 127.207 104.33C126.979 104.424 126.734 104.47 126.488 104.467C126.242 104.463 125.999 104.408 125.774 104.307C125.549 104.206 125.347 104.06 125.181 103.878C125.015 103.697 124.887 103.483 124.807 103.25C124.667 102.85 124.671 102.414 124.817 102.017C124.963 101.619 125.242 101.285 125.607 101.07C128.731 99.2886 132.211 98.2229 135.797 97.9501C136.627 97.8746 137.465 97.9638 138.261 98.2126C139.057 98.4615 139.797 98.865 140.437 99.4C140.763 99.6954 140.972 100.099 141.026 100.536C141.079 100.973 140.973 101.415 140.727 101.78Z" fill="black"/>
<path d="M174.657 104.19C174.657 104.32 174.567 104.45 174.517 104.57C174.358 105.022 174.027 105.392 173.596 105.6C173.165 105.808 172.669 105.837 172.217 105.68C168.948 104.541 165.607 103.619 162.217 102.92C161.75 102.828 161.339 102.556 161.071 102.163C160.804 101.77 160.701 101.288 160.787 100.82L160.877 100.39C160.977 99.9495 161.237 99.5619 161.606 99.3016C161.976 99.0413 162.428 98.9266 162.877 98.9799C166.589 99.4444 170.218 100.427 173.657 101.9C174.084 102.082 174.426 102.421 174.612 102.846C174.798 103.272 174.814 103.753 174.657 104.19Z" fill="black"/>
<path d="M136.217 111.46C135.587 110.46 134.307 108.87 133.117 110.08C130.677 112.7 130.117 116.62 130.627 119.98C130.817 121.65 132.827 123.2 134.397 122.04C137.877 119.77 137.827 114.84 136.217 111.46ZM134.757 116.08C134.317 116.08 133.967 115.41 133.967 114.6C133.967 113.79 134.317 113.11 134.757 113.11C135.197 113.11 135.547 113.78 135.547 114.6C135.547 115.42 135.197 116.08 134.757 116.08Z" fill="black"/>
<path d="M168.806 112.14C168.226 110.6 166.436 109.57 164.986 110.53C162.986 112.74 162.456 115.94 162.376 118.93C162.376 120.68 162.456 122.88 164.116 123.93C165.896 124.64 167.326 122.93 168.316 121.76C170.616 119.08 170.146 115.14 168.806 112.14ZM167.236 115.99C166.796 115.99 166.446 115.32 166.446 114.5C166.446 113.68 166.796 113.02 167.236 113.02C167.676 113.02 168.026 113.68 168.026 114.5C168.026 115.32 167.666 115.99 167.236 115.99Z" fill="black"/>
<path d="M155.237 136.23C151.886 136.96 148.448 137.21 145.027 136.97H144.867C142.987 136.7 140.687 135.97 140.167 133.91C139.647 131.85 140.927 130.05 141.707 128.28C143.547 124.46 144.837 120.36 146.317 116.28C146.397 116.055 146.522 115.848 146.686 115.674C146.85 115.5 147.048 115.361 147.268 115.267C147.487 115.173 147.724 115.126 147.963 115.128C148.203 115.13 148.439 115.182 148.657 115.28L148.997 115.44C149.372 115.615 149.671 115.92 149.839 116.299C150.006 116.678 150.03 117.105 149.907 117.5C148.519 122.064 146.743 126.5 144.597 130.76C144.477 131.001 144.416 131.268 144.419 131.537C144.422 131.807 144.489 132.072 144.614 132.311C144.738 132.549 144.918 132.755 145.137 132.912C145.357 133.068 145.61 133.17 145.877 133.21C148.805 133.521 151.763 133.376 154.647 132.78C154.876 132.739 155.111 132.745 155.338 132.798C155.565 132.851 155.779 132.95 155.966 133.089C156.153 133.227 156.31 133.403 156.427 133.604C156.544 133.805 156.619 134.029 156.647 134.26C156.719 134.708 156.611 135.166 156.347 135.535C156.083 135.904 155.684 136.154 155.237 136.23Z" fill="black"/>
<path d="M152.167 160.57C152.191 160.993 152.062 161.41 151.803 161.745C151.544 162.079 151.172 162.309 150.757 162.39C148.067 162.89 145.167 163.31 142.667 161.93C142.331 161.735 142.086 161.416 141.984 161.041C141.883 160.667 141.934 160.267 142.127 159.93C142.274 159.569 142.539 159.267 142.877 159.073C143.216 158.879 143.61 158.804 143.997 158.86C146.08 159.12 148.186 159.15 150.277 158.95C150.506 158.928 150.737 158.953 150.957 159.022C151.176 159.091 151.38 159.203 151.555 159.352C151.73 159.502 151.874 159.685 151.977 159.89C152.081 160.096 152.142 160.32 152.157 160.55L152.167 160.57Z" fill="black"/>
<path d="M169.527 149.09C163.787 153.46 156.587 154.84 149.797 154.84C142.275 154.713 134.824 153.362 127.737 150.84C127.223 150.616 126.815 150.203 126.598 149.686C126.381 149.17 126.371 148.589 126.57 148.066C126.77 147.542 127.163 147.115 127.669 146.874C128.175 146.633 128.754 146.595 129.287 146.77C129.527 146.86 153.567 155.77 166.887 145.66C167.112 145.466 167.374 145.32 167.658 145.231C167.942 145.142 168.24 145.112 168.536 145.142C168.832 145.173 169.118 145.264 169.377 145.41C169.637 145.555 169.863 145.752 170.044 145.988C170.224 146.225 170.354 146.495 170.426 146.784C170.498 147.072 170.51 147.373 170.462 147.666C170.413 147.959 170.305 148.24 170.144 148.49C169.984 148.74 169.773 148.954 169.527 149.12V149.09Z" fill="black"/>
<path fill-rule="evenodd" clip-rule="evenodd" d="M99.6068 92.9301C99.274 92.9324 98.9476 92.8386 98.6668 92.6601C95.1468 90.4801 91.7268 84.8501 91.3568 84.2201C91.23 84.0184 91.1446 83.7934 91.1059 83.5583C91.0671 83.3232 91.0757 83.0826 91.1311 82.8509C91.1865 82.6191 91.2877 82.4007 91.4286 82.2085C91.5695 82.0164 91.7474 81.8542 91.9518 81.7317C92.1562 81.6092 92.383 81.5289 92.6189 81.4952C92.8548 81.4615 93.0951 81.4752 93.3256 81.5356C93.5561 81.596 93.7724 81.7017 93.9614 81.8467C94.1505 81.9917 94.3087 82.1731 94.4268 82.3801C95.3368 83.9001 98.2068 88.16 100.557 89.62C100.892 89.8278 101.148 90.1403 101.287 90.5088C101.427 90.8774 101.44 91.2815 101.326 91.6586C101.213 92.0357 100.977 92.3648 100.657 92.5947C100.337 92.8245 99.9505 92.9424 99.5568 92.9301H99.6068Z" fill="black"/>
<path fill-rule="evenodd" clip-rule="evenodd" d="M96.8567 104.65C92.7267 104.65 87.0168 101.97 86.3668 101.65C85.9696 101.426 85.6724 101.059 85.5353 100.624C85.3983 100.189 85.4315 99.7176 85.6284 99.306C85.8252 98.8945 86.1711 98.5731 86.5959 98.4067C87.0207 98.2404 87.4927 98.2416 87.9167 98.41C89.5067 99.17 94.2767 101.15 97.0267 101.05C97.2628 101.039 97.4986 101.076 97.7202 101.159C97.9417 101.241 98.1444 101.367 98.3161 101.529C98.4878 101.692 98.6251 101.887 98.7197 102.104C98.8143 102.32 98.8643 102.554 98.8668 102.79C98.8734 103.025 98.8337 103.259 98.7498 103.479C98.666 103.699 98.5396 103.9 98.378 104.071C98.2164 104.241 98.0227 104.379 97.808 104.475C97.5933 104.571 97.3619 104.624 97.1268 104.63L96.8567 104.65Z" fill="black"/>
<path fill-rule="evenodd" clip-rule="evenodd" d="M198.857 88.75C198.463 88.7623 198.076 88.6444 197.756 88.4145C197.436 88.1847 197.201 87.8557 197.087 87.4786C196.973 87.1015 196.987 86.6973 197.126 86.3287C197.265 85.9601 197.522 85.6478 197.857 85.44C200.217 83.97 203.077 79.72 203.987 78.2C204.106 77.9978 204.265 77.8212 204.453 77.6804C204.641 77.5396 204.855 77.4374 205.083 77.3797C205.31 77.3221 205.547 77.3101 205.78 77.3445C206.012 77.3788 206.235 77.459 206.437 77.5801C206.846 77.8235 207.141 78.219 207.259 78.68C207.378 79.141 207.308 79.63 207.067 80.04C206.687 80.67 203.267 86.3 199.747 88.48C199.464 88.654 199.139 88.7474 198.807 88.75H198.857Z" fill="black"/>
<path fill-rule="evenodd" clip-rule="evenodd" d="M203.797 98.9501C203.577 98.9501 203.367 98.9501 203.157 98.9501C202.958 98.9362 202.763 98.8828 202.585 98.793C202.407 98.7031 202.249 98.5788 202.119 98.427C201.99 98.2752 201.892 98.0991 201.832 97.909C201.771 97.719 201.749 97.5187 201.767 97.3201C201.805 96.9229 201.997 96.5564 202.301 96.2986C202.605 96.0408 202.999 95.9121 203.397 95.9401C205.697 96.1101 209.487 94.64 210.767 94.05C210.947 93.9666 211.142 93.9197 211.341 93.9117C211.54 93.9038 211.738 93.9351 211.925 94.0038C212.112 94.0725 212.283 94.1772 212.429 94.3121C212.575 94.447 212.693 94.6095 212.777 94.79C212.86 94.9706 212.907 95.1659 212.915 95.3646C212.923 95.5633 212.892 95.7616 212.823 95.9482C212.754 96.1349 212.649 96.3062 212.515 96.4524C212.38 96.5985 212.217 96.7166 212.037 96.8C211.517 97.04 207.197 98.98 203.797 98.98V98.9501Z" fill="black"/>
<path d="M52.2568 112.41C50.6653 113.178 48.9863 113.748 47.2568 114.11C45.5563 114.512 43.8281 114.786 42.0868 114.93H41.7368C41.5237 114.944 41.3099 114.944 41.0968 114.93C39.7765 115.008 38.4524 114.869 37.1768 114.52L39.4167 111.52L40.7867 112.74L42.9568 111.65L45.3768 109.23L45.0668 109.64L49.7568 111.42L50.1068 111.55L52.2568 112.41Z" fill="#EA3A3A"/>
<path d="M55.3466 110.29C54.9946 110.622 54.6204 110.929 54.2266 111.21C53.6915 111.589 53.1262 111.923 52.5365 112.21L51.1865 110.86L47.5166 107.14L49.9165 104.75L55.3466 110.29Z" fill="#EA3A3A"/>
<path d="M56.6467 108.48C56.4481 108.992 56.1526 109.46 55.7766 109.86L55.1367 107.54L56.6467 108.48Z" fill="#EA3A3A"/>
<path d="M98.5265 142.29C94.3774 143.443 90.0927 144.035 85.7865 144.05C62.9365 144.05 47.2865 125.78 41.7865 114.92C41.756 114.872 41.7293 114.822 41.7065 114.77L45.2466 113.32L49.8065 111.46L50.1565 111.59L52.2166 112.38L52.8566 112.61L52.4966 112.22L51.1466 110.87L53.0365 110.11L53.3966 109.93C53.6236 110.364 53.8808 110.782 54.1665 111.18C55.8626 113.766 57.7978 116.186 59.9465 118.41C66.9465 125.77 79.5665 134.56 96.9465 129.9L98.5265 142.29Z" fill="#EE3A3D"/>
<path d="M64.5665 82.37C64.4205 82.0845 64.1964 81.8464 63.9201 81.6835C63.6439 81.5206 63.3271 81.4397 63.0065 81.4501L1.30647 83.0601L0.796459 83.3101C0.527914 83.473 0.315202 83.7136 0.186474 84C0.048737 84.2627 -0.0147408 84.558 0.00288038 84.854C0.0205016 85.1501 0.11853 85.4357 0.28645 85.6801C0.43645 85.8601 0.436462 85.86 33.4265 121.86C33.5958 122.04 33.8027 122.181 34.0325 122.273C34.2624 122.364 34.5096 122.404 34.7565 122.39H35.0865L35.5765 122.14C35.7477 122.036 35.8944 121.896 36.0065 121.73L41.1265 114.98L42.9865 112.51L45.2265 113.35L47.2864 114.11L58.8365 118.47C59.2139 118.61 59.6291 118.61 60.0065 118.47C60.0961 118.455 60.1814 118.421 60.2565 118.37C60.5637 118.181 60.801 117.898 60.9327 117.562C61.0644 117.227 61.0833 116.857 60.9865 116.51L55.4365 96L64.3565 84.2001C64.5671 83.9493 64.6993 83.6421 64.7366 83.3167C64.774 82.9913 64.7148 82.6621 64.5665 82.37ZM34.5665 118.09L8.26655 89.4001L44.4465 104.99L39.4465 111.59L37.2065 114.59L34.5665 118.09ZM55.7864 109.86L56.1165 111.11L55.3565 110.32L49.9265 104.79L48.1165 102.93L47.7565 102.75L17.7565 89.8101L52.3565 97.0201L55.1865 107.54L55.7864 109.86ZM52.2666 112.41L50.2065 111.62L49.8565 111.49L45.1665 109.71L45.4765 109.3L47.3065 106.88L47.5865 107.18L51.2565 110.9L52.6065 112.25L52.9665 112.64L52.2666 112.41ZM52.9565 93.7101L16.2165 86.0401L59.6365 84.9201L52.9565 93.7101Z" fill="black"/>
</svg>
