<svg width="195" height="201" viewBox="0 0 195 201" fill="none" xmlns="http://www.w3.org/2000/svg">
<path fill-rule="evenodd" clip-rule="evenodd" d="M179.037 124.99C169.887 101.14 160.037 79.2301 156.127 73.9901C155.448 73.0873 154.647 72.283 153.747 71.6001C153.087 69.1901 151.747 64.7101 150.197 60.4701C153.522 59.1557 156.515 57.1207 158.96 54.5115C161.405 51.9023 163.241 48.7837 164.337 45.38C167.337 36.38 165.337 26.91 159.277 21.77C156.146 19.1555 152.174 17.7631 148.097 17.8501C145.841 17.8724 143.599 18.209 141.437 18.8501C139.888 14.0728 137.228 9.73068 133.677 6.18005C129.823 2.2764 124.582 0.054852 119.097 0H118.427C115.128 0.189285 111.9 1.03414 108.931 2.48499C105.962 3.93583 103.313 5.96365 101.137 8.45007C98.1545 11.833 95.9466 15.8258 94.6666 20.15C92.2939 19.4842 89.841 19.1477 87.3767 19.15C83.877 19.1387 80.4192 19.9112 77.2571 21.4108C74.095 22.9103 71.3088 25.0989 69.103 27.8159C66.8972 30.5329 65.3278 33.7092 64.51 37.1119C63.6921 40.5147 63.6465 44.0575 64.3767 47.4801C66.4267 56.5701 73.9866 63.7701 85.2366 67.4801C84.5466 75.3201 85.0865 80.9101 86.8865 84.4801C78.0665 98.8801 54.3265 161.25 50.8865 177.21C47.7865 191.56 52.7065 197 55.8865 198.98C56.2065 199.17 56.5465 199.35 56.8865 199.51C57.6554 199.887 58.5005 200.082 59.3566 200.08C60.8941 200.075 62.3667 199.46 63.452 198.371C64.5372 197.282 65.1466 195.807 65.1466 194.27C65.1586 193.21 64.8738 192.168 64.3242 191.261C63.7745 190.354 62.9821 189.62 62.0366 189.14C61.6066 188.46 60.8966 185.65 62.1866 179.67C62.9266 176.23 64.8966 169.8 67.7766 161.42C69.8566 162.65 71.8566 163.86 73.6866 164.97C89.1366 174.31 102.467 182.37 118.237 182.37C135.897 182.37 153.677 172.26 175.577 149.68C181.577 167.34 183.427 176.38 183.047 178.96C182.727 181.18 182.047 182.85 181.047 183.67C180.119 184.425 179.448 185.449 179.126 186.601C178.804 187.752 178.847 188.975 179.248 190.102C179.649 191.229 180.389 192.203 181.366 192.892C182.344 193.581 183.511 193.951 184.707 193.95C186.037 193.955 187.328 193.495 188.357 192.65C191.707 189.92 193.787 185.87 194.557 180.65C195.947 171.05 185.427 141.66 179.037 124.99ZM75.7166 44.9901C75.3631 43.2647 75.3999 41.4819 75.8245 39.7726C76.2491 38.0632 77.0507 36.4705 78.1705 35.111C79.2903 33.7515 80.7 32.6596 82.2963 31.9154C83.8927 31.1712 85.6353 30.7936 87.3966 30.8101C89.3069 30.8179 91.2016 31.1562 92.9967 31.8101C92.9967 33.0501 92.9966 34.2901 93.1066 35.5601C93.2225 37.0314 93.8893 38.4049 94.9738 39.406C96.0583 40.4071 97.4807 40.9621 98.9566 40.9601H99.2766C100.036 40.9106 100.779 40.7115 101.461 40.3743C102.144 40.037 102.753 39.5683 103.254 38.995C103.754 38.4217 104.137 37.755 104.38 37.0334C104.622 36.3118 104.72 35.5494 104.667 34.79C103.997 24.88 107.067 19.25 109.747 16.26C110.883 14.9208 112.274 13.8216 113.84 13.0266C115.406 12.2316 117.115 11.7568 118.867 11.63H119.187C120.401 11.6716 121.595 11.9527 122.7 12.4573C123.805 12.9618 124.8 13.6799 125.627 14.5701C128.934 17.8774 130.927 22.2732 131.237 26.9401C131.226 27.0665 131.226 27.1936 131.237 27.3201C131.237 27.4901 131.237 27.67 131.297 27.88C131.357 28.09 131.297 28.1601 131.387 28.3101C131.432 28.5077 131.492 28.7015 131.567 28.89C131.567 29.03 131.667 29.17 131.727 29.3C131.779 29.4336 131.839 29.5638 131.907 29.6901C131.967 29.8091 132.037 29.9228 132.117 30.03C132.19 30.162 132.277 30.286 132.377 30.4C132.484 30.5539 132.601 30.7009 132.727 30.8401C132.856 30.9809 132.993 31.1145 133.137 31.2401C133.273 31.3684 133.416 31.4885 133.567 31.6001C133.717 31.7001 133.867 31.81 134.037 31.91C134.186 31.9978 134.339 32.0779 134.497 32.15C134.683 32.2455 134.877 32.3258 135.077 32.39L135.557 32.55C135.738 32.5952 135.921 32.6286 136.107 32.65C136.268 32.6853 136.432 32.7055 136.597 32.7101C136.736 32.7194 136.877 32.7194 137.017 32.7101H137.407L137.857 32.66C138.038 32.633 138.219 32.5963 138.397 32.55C138.585 32.51 138.769 32.4531 138.947 32.38L139.377 32.2201L139.727 32.05C142.277 30.55 145.144 29.6698 148.097 29.4801C149.418 29.4128 150.719 29.8286 151.757 30.65C154.147 32.65 154.817 37.3401 153.337 41.7301C152.706 43.8176 151.536 45.7021 149.946 47.1942C148.355 48.6863 146.4 49.7334 144.277 50.2301C140.767 47.0501 135.857 45.78 127.277 45.78C122.867 45.78 117.137 46.1201 109.277 46.8601C107.782 46.9836 106.393 47.6821 105.404 48.8088C104.414 49.9355 103.9 51.4025 103.97 52.9006C104.04 54.3988 104.688 55.8113 105.779 56.8408C106.869 57.8703 108.317 58.4365 109.817 58.42H110.347C117.847 57.71 123.227 57.42 127.277 57.42C133.787 57.42 135.977 58.31 136.667 59.05C136.825 59.3606 137.012 59.6553 137.227 59.9301C138.414 62.3026 139.417 64.7632 140.227 67.29C138.437 67.12 136.527 67.04 134.517 67.04C133.517 67.04 132.387 67.0401 131.327 67.1001C121.387 67.5201 106.867 70.1001 96.5366 75.8601C96.4509 69.596 97.0783 63.3424 98.4066 57.2201C98.711 55.7181 98.4087 54.1566 97.5655 52.8768C96.7223 51.5971 95.4068 50.703 93.9066 50.39C93.5153 50.3067 93.1167 50.2632 92.7166 50.26C91.3843 50.2662 90.0945 50.7294 89.0626 51.572C88.0306 52.4147 87.319 53.5859 87.0466 54.89C87.0466 55.14 86.9366 55.4401 86.8666 55.8101C78.6366 52.5901 76.3366 47.7101 75.7166 44.9401V44.9901ZM118.537 170.93C106.007 170.93 94.4066 163.93 79.7266 155.04C77.3066 153.58 74.6166 151.96 71.7266 150.28C80.2566 126.82 91.7966 98.4701 96.8666 90.3501C100.337 84.7901 116.687 79.3501 131.867 78.7101C132.797 78.7101 133.697 78.65 134.557 78.65C143.257 78.65 146.457 80.52 146.837 81.02C150.487 85.88 162.217 113.02 171.227 137.43C149.817 160.55 133.487 170.88 118.537 170.88V170.93Z" fill="#EE3A3D"/>
<path d="M111.097 101.78L110.987 101.94C110.754 102.272 110.416 102.515 110.027 102.629C109.638 102.744 109.222 102.723 108.847 102.57C108.081 102.232 107.279 101.98 106.457 101.82C106.347 101.81 106.237 101.81 106.127 101.82C103.127 101.82 100.347 103.24 97.5768 104.34C97.3486 104.435 97.1031 104.482 96.8558 104.479C96.6085 104.475 96.3647 104.42 96.1395 104.318C95.9143 104.215 95.7126 104.068 95.5469 103.884C95.3813 103.7 95.2553 103.485 95.1768 103.25C95.0374 102.85 95.0408 102.414 95.1867 102.017C95.3326 101.619 95.6119 101.285 95.9769 101.07C99.1007 99.2886 102.581 98.2229 106.167 97.9501C106.998 97.8696 107.837 97.9564 108.634 98.2054C109.431 98.4545 110.169 98.8607 110.807 99.4C111.135 99.6943 111.346 100.098 111.399 100.536C111.452 100.973 111.345 101.416 111.097 101.78Z" fill="black"/>
<path d="M145.027 104.19C145.027 104.32 144.937 104.45 144.887 104.57C144.728 105.022 144.397 105.392 143.966 105.6C143.535 105.808 143.039 105.837 142.587 105.68C139.318 104.54 135.977 103.618 132.587 102.92C132.12 102.828 131.709 102.556 131.441 102.163C131.174 101.77 131.072 101.288 131.157 100.82L131.247 100.39C131.347 99.9496 131.607 99.562 131.976 99.3017C132.346 99.0414 132.798 98.9268 133.247 98.9801C136.959 99.4446 140.588 100.427 144.027 101.9C144.454 102.082 144.796 102.421 144.982 102.846C145.168 103.272 145.184 103.753 145.027 104.19Z" fill="black"/>
<path d="M106.587 111.46C105.957 110.46 104.677 108.87 103.487 110.08C101.057 112.7 100.487 116.62 100.997 119.98C101.187 121.65 103.197 123.2 104.767 122.04C108.257 119.77 108.197 114.84 106.587 111.46ZM105.127 116.08C104.687 116.08 104.337 115.41 104.337 114.6C104.337 113.79 104.687 113.11 105.127 113.11C105.567 113.11 105.917 113.78 105.917 114.6C105.917 115.42 105.567 116.08 105.127 116.08Z" fill="black"/>
<path d="M139.177 112.14C138.597 110.6 136.807 109.57 135.357 110.53C133.357 112.74 132.827 115.94 132.747 118.92C132.747 120.68 132.827 122.92 134.487 123.92C136.267 124.63 137.697 122.92 138.687 121.74C140.987 119.08 140.517 115.13 139.177 112.14ZM137.607 115.98C137.167 115.98 136.817 115.32 136.817 114.5C136.817 113.68 137.167 113.02 137.607 113.02C138.047 113.02 138.397 113.68 138.397 114.5C138.397 115.32 138.047 115.98 137.607 115.98Z" fill="black"/>
<path d="M125.607 136.23C122.255 136.956 118.818 137.205 115.397 136.97H115.237C113.357 136.71 111.057 135.97 110.537 133.92C110.017 131.87 111.297 130.06 112.077 128.29C113.917 124.47 115.207 120.37 116.687 116.29C116.767 116.065 116.892 115.858 117.056 115.684C117.22 115.51 117.418 115.371 117.638 115.277C117.858 115.183 118.094 115.136 118.334 115.138C118.573 115.14 118.809 115.192 119.027 115.29L119.367 115.45C119.73 115.623 120.021 115.918 120.189 116.284C120.357 116.649 120.391 117.062 120.287 117.45C118.898 122.018 117.118 126.458 114.967 130.72C114.847 130.962 114.786 131.228 114.789 131.497C114.792 131.767 114.859 132.032 114.984 132.271C115.108 132.509 115.288 132.715 115.507 132.872C115.727 133.028 115.98 133.13 116.247 133.17C119.178 133.481 122.14 133.336 125.027 132.74C125.252 132.708 125.481 132.721 125.701 132.778C125.92 132.835 126.127 132.935 126.307 133.073C126.488 133.211 126.639 133.383 126.752 133.58C126.866 133.777 126.939 133.995 126.967 134.22C127.052 134.667 126.957 135.129 126.702 135.506C126.447 135.883 126.053 136.143 125.607 136.23Z" fill="black"/>
<path d="M122.537 160.57C122.562 160.993 122.433 161.41 122.173 161.745C121.914 162.079 121.542 162.309 121.127 162.39C118.437 162.89 115.547 163.31 113.037 161.93C112.703 161.734 112.46 161.414 112.359 161.04C112.258 160.666 112.307 160.268 112.497 159.93C112.645 159.569 112.909 159.267 113.248 159.073C113.587 158.879 113.981 158.804 114.367 158.86C116.451 159.12 118.557 159.15 120.647 158.95C120.875 158.928 121.106 158.952 121.325 159.021C121.544 159.089 121.747 159.201 121.922 159.349C122.097 159.497 122.241 159.679 122.345 159.883C122.449 160.088 122.511 160.311 122.527 160.54C122.532 160.549 122.536 160.56 122.537 160.57Z" fill="black"/>
<path d="M139.897 149.09C134.157 153.46 126.957 154.84 120.167 154.84C112.645 154.712 105.195 153.361 98.1069 150.84C97.5931 150.616 97.1854 150.203 96.9682 149.686C96.751 149.17 96.7412 148.589 96.9406 148.066C97.14 147.542 97.5334 147.115 98.0392 146.874C98.545 146.633 99.1243 146.595 99.6568 146.77C99.8968 146.86 123.937 155.77 137.257 145.66C137.718 145.35 138.28 145.228 138.828 145.318C139.376 145.409 139.869 145.705 140.206 146.147C140.543 146.589 140.699 147.142 140.641 147.695C140.584 148.247 140.317 148.757 139.897 149.12V149.09Z" fill="black"/>
<path fill-rule="evenodd" clip-rule="evenodd" d="M69.9868 92.9301C69.6344 92.9383 69.2872 92.8445 68.9868 92.6601C65.4668 90.4801 62.0467 84.8501 61.6767 84.2201C61.4327 83.8117 61.361 83.3231 61.4773 82.8617C61.5935 82.4004 61.8883 82.004 62.2967 81.76C62.7051 81.516 63.1938 81.4443 63.6551 81.5606C64.1165 81.6768 64.5127 81.9716 64.7567 82.38C65.6567 83.9 68.5268 88.1601 70.8768 89.6201C71.2067 89.8253 71.4609 90.1323 71.601 90.4948C71.7411 90.8572 71.7594 91.2553 71.6533 91.6291C71.5471 92.0028 71.3222 92.332 71.0125 92.5667C70.7029 92.8014 70.3253 92.9289 69.9367 92.9301H69.9868Z" fill="black"/>
<path fill-rule="evenodd" clip-rule="evenodd" d="M67.227 104.65C63.097 104.65 57.3871 101.97 56.7371 101.65C56.525 101.548 56.335 101.406 56.178 101.231C56.021 101.055 55.9 100.851 55.822 100.629C55.744 100.407 55.7105 100.172 55.7234 99.9372C55.7363 99.7023 55.7952 99.4722 55.897 99.2601C55.9987 99.048 56.1413 98.8581 56.3165 98.7011C56.4917 98.5441 56.6962 98.4232 56.9181 98.3452C57.14 98.2671 57.3751 98.2337 57.61 98.2465C57.8449 98.2594 58.0749 98.3183 58.287 98.4201C59.877 99.1801 64.647 101.16 67.397 101.06C67.6331 101.049 67.8689 101.086 68.0905 101.169C68.312 101.251 68.5147 101.377 68.6864 101.539C68.8581 101.702 68.9954 101.897 69.09 102.114C69.1846 102.33 69.2346 102.564 69.2371 102.8C69.2437 103.035 69.204 103.269 69.1201 103.489C69.0363 103.709 68.9099 103.91 68.7483 104.081C68.5867 104.252 68.393 104.389 68.1783 104.485C67.9636 104.581 67.7322 104.634 67.4971 104.64L67.227 104.65Z" fill="black"/>
<path fill-rule="evenodd" clip-rule="evenodd" d="M169.227 88.75C168.833 88.7624 168.446 88.6445 168.126 88.4146C167.806 88.1847 167.571 87.8558 167.457 87.4787C167.343 87.1015 167.357 86.6973 167.496 86.3288C167.635 85.9602 167.892 85.6478 168.227 85.4401C170.587 83.9701 173.447 79.7101 174.357 78.2001C174.6 77.7917 174.995 77.4964 175.455 77.3792C175.915 77.262 176.403 77.3324 176.812 77.5751C177.22 77.8178 177.516 78.2127 177.633 78.6731C177.75 79.1335 177.68 79.6216 177.437 80.0301C177.057 80.6701 173.637 86.3001 170.117 88.4801C169.835 88.6556 169.509 88.749 169.177 88.75H169.227Z" fill="black"/>
<path fill-rule="evenodd" clip-rule="evenodd" d="M174.167 98.9501C173.947 98.9501 173.737 98.9501 173.527 98.9501C173.328 98.935 173.135 98.8807 172.957 98.7905C172.78 98.7002 172.622 98.5757 172.493 98.4242C172.364 98.2727 172.266 98.0973 172.205 97.9078C172.144 97.7183 172.121 97.5185 172.137 97.3201C172.175 96.9203 172.368 96.5512 172.674 96.2916C172.981 96.0319 173.376 95.9022 173.777 95.9301C176.067 96.1101 179.857 94.6401 181.137 94.0501C181.318 93.9667 181.513 93.9197 181.712 93.9118C181.91 93.9039 182.109 93.9351 182.295 94.0038C182.482 94.0725 182.653 94.1774 182.799 94.3123C182.945 94.4472 183.064 94.6095 183.147 94.7901C183.23 94.9707 183.277 95.1659 183.285 95.3647C183.293 95.5634 183.262 95.7618 183.193 95.9484C183.125 96.1351 183.02 96.3063 182.885 96.4524C182.75 96.5986 182.588 96.7167 182.407 96.8001C181.887 97.0401 177.567 98.9802 174.167 98.9802V98.9501Z" fill="black"/>
<path d="M68.8966 142.31C64.7476 143.463 60.4628 144.055 56.1566 144.07C33.3066 144.07 17.6666 125.8 12.1566 114.94L12.0767 114.79L15.6167 113.34L20.1766 111.48L21.5767 110.89L23.4667 110.13L23.8267 109.95C24.0489 110.387 24.3064 110.805 24.5967 111.2C26.292 113.789 28.2272 116.213 30.3767 118.44C37.3767 125.8 49.9967 134.59 67.3767 129.93L68.8966 142.31Z" fill="#EE3A3D"/>
<path d="M12.2868 115.51C16.1915 115.51 19.3568 113.701 19.3568 111.47C19.3568 109.239 16.1915 107.43 12.2868 107.43C8.38214 107.43 5.2168 109.239 5.2168 111.47C5.2168 113.701 8.38214 115.51 12.2868 115.51Z" fill="#EE3A3D"/>
<path d="M13.9567 108.68C17.8614 108.68 21.0267 106.871 21.0267 104.64C21.0267 102.409 17.8614 100.6 13.9567 100.6C10.0521 100.6 6.88672 102.409 6.88672 104.64C6.88672 106.871 10.0521 108.68 13.9567 108.68Z" fill="#EE3A3D"/>
<path d="M23.1327 111.991C26.6553 110.306 28.7304 107.309 27.7677 105.296C26.8051 103.283 23.1691 103.017 19.6466 104.702C16.1241 106.387 14.049 109.384 15.0117 111.397C15.9743 113.41 19.6102 113.676 23.1327 111.991Z" fill="#EE3A3D"/>
<path d="M31.2868 86.5501C31.0678 86.5202 30.8459 86.5202 30.6269 86.5501C27.5976 86.5542 24.5911 87.0751 21.7369 88.0901C20.7369 88.5001 20.4869 88.6201 19.7369 87.0901C19.7369 86.9701 19.6469 86.8401 19.6169 86.7201C18.9269 83.4201 17.3169 80.4 16.6169 77.13C16.5917 77.045 16.5616 76.9616 16.5268 76.88C16.2668 76.38 15.7968 76.3501 15.5268 76.8201C14.9075 77.7931 14.4326 78.8508 14.1169 79.9601C13.4869 82.4101 12.7268 84.8301 12.0068 87.2201C11.6968 88.2901 11.6268 88.3501 10.5668 88.3501C7.45683 88.2601 4.37678 88.48 1.26678 88.51C1.00134 88.5346 0.737637 88.5747 0.476867 88.63C0.126867 88.73 0.0667744 89.0701 0.00677439 89.3601C-0.00328879 89.416 -0.00210005 89.4732 0.0100703 89.5286C0.0222406 89.584 0.0451632 89.6364 0.0776972 89.6829C0.110231 89.7294 0.151746 89.7691 0.199645 89.7995C0.247545 89.8299 0.300967 89.8505 0.356872 89.8601C1.88687 90.4601 2.86686 91.7801 3.96686 92.8601C5.28686 94.1401 6.31685 95.6201 7.70685 96.8601C7.90355 97.0392 8.04343 97.2718 8.10919 97.5296C8.17495 97.7873 8.16372 98.0587 8.07684 98.3101C7.78599 99.604 7.3982 100.874 6.91681 102.11C6.66829 103.158 6.27799 104.168 5.75677 105.11C5.07822 106.146 4.56865 107.284 4.24689 108.48C4.10865 108.794 4.05351 109.139 4.08685 109.48C4.27685 110.3 4.55683 110.48 5.31683 110.08C5.74868 109.862 6.15738 109.6 6.5368 109.3C8.7068 107.38 11.2268 105.96 13.5368 104.24C13.9168 103.92 14.3868 103.77 14.7668 103.45C15.0055 103.252 15.3019 103.136 15.6119 103.12C15.9218 103.103 16.2288 103.188 16.4869 103.36C17.6079 103.895 18.6817 104.524 19.6968 105.24C20.8117 105.868 21.8545 106.616 22.8068 107.47C23.5353 108.181 24.399 108.739 25.3469 109.11C25.5439 109.232 25.7795 109.275 26.0068 109.23C26.1509 109.065 26.2408 108.859 26.2641 108.641C26.2874 108.422 26.2428 108.202 26.1368 108.01C25.6679 106.859 25.3323 105.658 25.1368 104.43C25.1124 103.772 25.0186 103.118 24.8569 102.48C24.0069 100.65 24.1969 98.64 23.8569 96.76C23.8163 96.4751 23.8431 96.1847 23.9351 95.912C24.0272 95.6393 24.1818 95.3921 24.3868 95.1901C25.4965 94.0609 26.6936 93.021 27.9669 92.0801C29.4182 90.788 30.7258 89.3429 31.8669 87.77C32.3569 87.14 32.1068 86.6401 31.2868 86.5501Z" fill="#171717"/>
</svg>
