<svg width="781" height="681" viewBox="0 0 781 681" fill="none" xmlns="http://www.w3.org/2000/svg">
<g clip-path="url(#clip0_992_528)">
<path fill-rule="evenodd" clip-rule="evenodd" d="M724.998 474.534C692.482 389.757 657.521 311.502 643.482 293.387C641.1 290.157 638.263 287.29 635.059 284.874C632.704 275.816 628.085 260.328 622.379 245.293C634.201 240.628 644.841 233.399 653.533 224.127C662.225 214.855 668.753 203.771 672.646 191.673C683.424 159.701 676.269 126.007 654.532 107.712C643.385 98.4336 629.271 93.4814 614.771 93.7629C606.765 93.8277 598.806 95.0169 591.13 97.2954C585.77 80.2688 576.459 64.7511 563.958 52.0087C550.28 38.1091 531.651 30.1958 512.151 30H509.796C498.061 30.6717 486.577 33.6763 476.018 38.8395C465.458 44.0028 456.034 51.2206 448.297 60.0699C437.731 72.1137 429.884 86.293 425.291 101.643C416.854 99.302 408.144 98.0847 399.388 98.0207C386.967 98.0172 374.702 100.79 363.491 106.137C352.28 111.484 342.407 119.271 334.593 128.925C326.779 138.58 321.222 149.859 318.328 161.938C315.435 174.017 315.28 186.591 317.872 198.738C325.208 231.073 352.108 256.614 392.051 269.747C389.605 297.553 391.507 317.389 397.938 330.07C366.6 381.243 282.185 602.967 269.868 659.666C258.818 710.659 276.389 730.041 287.982 737.015C289.117 737.752 290.297 738.417 291.515 739.007C294.349 740.335 297.442 741.016 300.572 741.001C306.033 740.977 311.262 738.79 315.115 734.92C318.969 731.05 321.132 725.811 321.132 720.35C321.132 716.607 320.1 712.937 318.15 709.741C316.201 706.546 313.41 703.949 310.083 702.235C308.543 699.88 306.006 689.827 310.625 668.633C313.252 656.405 320.227 633.58 330.462 603.691L351.474 616.372C406.452 649.522 453.822 678.233 509.886 678.233C572.654 678.233 635.874 642.004 713.676 562.028C735.233 624.795 741.573 656.948 740.215 666.096C739.829 672.339 737.301 678.257 733.059 682.852C729.874 685.557 727.588 689.168 726.507 693.204C725.426 697.241 725.6 701.511 727.007 705.446C728.413 709.381 730.986 712.793 734.381 715.23C737.776 717.666 741.833 719.009 746.011 719.082C750.767 719.125 755.385 717.49 759.053 714.462C771.562 703.569 779.435 688.309 781.063 671.803C785.139 638.29 747.913 533.769 724.998 474.534ZM357.724 190.405C356.483 184.271 356.627 177.938 358.147 171.867C359.666 165.796 362.522 160.142 366.506 155.316C370.49 150.49 375.501 146.615 381.175 143.973C386.848 141.331 393.039 139.989 399.297 140.046C406.074 140.125 412.785 141.382 419.132 143.76C419.132 148.198 419.132 152.817 419.132 157.074C419.521 162.303 421.878 167.192 425.726 170.755C429.574 174.317 434.629 176.29 439.874 176.275H441.051C443.75 176.104 446.389 175.399 448.814 174.202C451.239 173.005 453.403 171.34 455.181 169.302C456.979 167.277 458.347 164.908 459.203 162.34C460.06 159.771 460.385 157.055 460.162 154.357C457.807 119.124 469.219 99.1071 478.277 88.51C482.308 83.7384 487.255 79.8215 492.823 76.9904C498.392 74.1594 504.471 72.472 510.702 72.0262H511.789C520.505 72.3308 528.743 76.0752 534.703 82.4412C546.46 94.2148 553.542 109.857 554.63 126.46C554.582 126.881 554.582 127.307 554.63 127.728C554.548 128.39 554.548 129.06 554.63 129.721C554.587 130.264 554.587 130.808 554.63 131.351C554.8 132.028 555.012 132.693 555.264 133.343L555.808 134.793L556.532 136.242L557.256 137.42L558.163 138.779C558.553 139.318 558.975 139.831 559.43 140.318L560.879 141.677L562.419 142.945C562.908 143.408 563.455 143.804 564.049 144.122L565.68 144.937L567.763 145.843L569.484 146.387H571.386H573.197H576.005H577.635H579.538L581.53 145.843L582.98 145.209L584.248 144.665C593.337 139.36 603.542 136.259 614.046 135.608C618.729 135.352 623.342 136.837 626.998 139.775C635.512 146.93 637.957 163.505 632.704 179.083C630.442 186.504 626.275 193.202 620.617 198.51C614.96 203.818 608.009 207.55 600.46 209.335C587.961 198.013 570.481 193.575 540.139 193.575C524.47 193.575 503.909 194.753 476.103 197.379C470.65 197.885 465.622 200.535 462.123 204.747C458.624 208.96 456.942 214.389 457.445 219.841C457.98 224.935 460.371 229.653 464.163 233.095C467.956 236.536 472.883 238.461 478.005 238.5H479.907C506.536 235.964 525.194 234.786 540.048 234.786C563.235 234.786 571.024 237.956 573.469 240.583C573.993 241.702 574.63 242.764 575.371 243.753C579.658 252.164 583.233 260.92 586.059 269.929C579.719 269.295 572.926 269.023 565.771 269.023H554.449C519.125 270.563 467.498 279.62 430.816 300.18C430.478 277.9 432.696 255.655 437.428 233.881C438.499 228.538 437.415 222.988 434.412 218.442C431.409 213.895 426.73 210.719 421.396 209.607C420.011 209.473 418.616 209.473 417.23 209.607C412.491 209.646 407.906 211.302 404.234 214.299C400.561 217.296 398.022 221.455 397.033 226.09C397.033 226.996 397.032 228.084 396.398 229.352C368.139 217.577 359.989 199.462 357.724 190.405ZM509.977 638.11C465.415 638.11 424.204 613.201 372.034 581.681C362.977 576.428 353.92 570.722 343.685 564.744C374.027 481.326 415.057 380.519 433.081 351.717C445.399 331.881 503.546 312.588 557.437 310.324H567.039C597.924 310.324 609.336 317.027 610.694 318.748C623.646 336.047 665.039 432.599 697.374 519.277C621.111 600.974 563.144 637.656 509.977 637.656V638.11Z" fill="#EE3A3D"/>
<path d="M483.529 392.021V392.564C482.697 393.738 481.495 394.6 480.115 395.011C478.736 395.421 477.258 395.356 475.92 394.828C473.198 393.612 470.34 392.731 467.406 392.202H466.229C455.602 393.265 445.275 396.339 435.796 401.26C434.984 401.59 434.112 401.75 433.236 401.732C432.359 401.713 431.496 401.515 430.698 401.15C429.901 400.785 429.186 400.262 428.599 399.611C428.011 398.96 427.563 398.195 427.282 397.364C426.789 395.945 426.81 394.398 427.339 392.992C427.869 391.585 428.874 390.408 430.181 389.666C441.278 383.303 453.655 379.497 466.41 378.526C469.362 378.261 472.337 378.581 475.166 379.467C477.994 380.352 480.62 381.786 482.894 383.688C483.959 384.783 484.606 386.217 484.721 387.74C484.837 389.263 484.415 390.778 483.529 392.021Z" fill="black"/>
<path d="M604.17 400.625L603.626 401.984C603.052 403.575 601.876 404.875 600.35 405.604C598.824 406.333 597.073 406.432 595.475 405.879C583.805 401.848 571.884 398.58 559.789 396.097C558.133 395.746 556.679 394.767 555.732 393.365C554.786 391.962 554.422 390.246 554.717 388.579C554.685 388.067 554.685 387.552 554.717 387.039C555.067 385.444 556.01 384.042 557.355 383.116C558.701 382.191 560.348 381.814 561.962 382.058C575.159 383.712 588.057 387.219 600.275 392.475C601.837 393.086 603.108 394.267 603.832 395.78C604.555 397.294 604.676 399.026 604.17 400.625Z" fill="black"/>
<path d="M467.136 426.44C464.872 422.817 460.343 417.382 456.087 421.548C452.091 426.383 449.209 432.037 447.644 438.111C446.079 444.184 445.869 450.527 447.029 456.691C447.754 462.669 454.909 468.193 460.434 464.027C473.386 455.966 473.205 438.486 467.136 426.44ZM461.883 442.833C460.344 442.833 459.166 440.478 459.166 437.58C459.166 434.682 460.344 432.326 461.883 432.326C463.423 432.326 464.691 434.682 464.691 437.58C464.691 440.478 463.875 442.833 462.245 442.833H461.883Z" fill="black"/>
<path d="M583.336 428.885C582.947 427.524 582.26 426.267 581.324 425.206C580.387 424.145 579.225 423.306 577.924 422.751C576.622 422.195 575.213 421.937 573.799 421.995C572.385 422.054 571.001 422.427 569.75 423.088C563.386 431.714 560.187 442.27 560.692 452.977C560.692 459.227 560.693 467.016 566.943 471.092C573.192 475.168 578.355 467.469 581.887 463.394C585.356 458.363 587.333 452.453 587.589 446.348C587.846 440.243 586.37 434.189 583.336 428.885ZM577.72 442.561C576.181 442.561 574.913 440.207 574.913 437.218C574.913 434.229 576.181 431.965 577.72 431.965C579.26 431.965 580.529 434.319 580.529 437.218C580.529 440.116 579.26 442.561 577.72 442.561Z" fill="black"/>
<path d="M535.064 514.477C523.174 517.069 510.975 517.953 498.835 517.102H498.202C491.59 516.197 483.347 513.661 481.535 506.234C481.184 499.155 483.087 492.147 486.969 486.218C493.15 472.437 498.622 458.35 503.364 444.01C503.66 443.218 504.117 442.496 504.705 441.887C505.293 441.279 505.999 440.798 506.781 440.476C507.563 440.153 508.402 439.994 509.248 440.01C510.094 440.026 510.928 440.216 511.697 440.568L512.874 441.112C514.211 441.711 515.282 442.778 515.883 444.114C516.484 445.45 516.573 446.96 516.135 448.358C511.226 464.6 504.922 480.388 497.295 495.546C496.793 496.415 496.515 497.396 496.486 498.398C496.456 499.401 496.675 500.396 497.124 501.293C497.572 502.19 498.237 502.963 499.057 503.541C499.878 504.119 500.827 504.483 501.824 504.603C512.226 505.717 522.739 505.198 532.981 503.064C534.613 502.858 536.26 503.303 537.565 504.304C538.871 505.304 539.73 506.779 539.956 508.408C539.983 509.833 539.507 511.221 538.612 512.331C537.718 513.44 536.462 514.2 535.064 514.477Z" fill="black"/>
<path d="M524.195 601.064C524.269 602.554 523.808 604.022 522.894 605.202C521.98 606.381 520.675 607.195 519.213 607.496C509.711 610.283 499.538 609.707 490.411 605.865C489.213 605.165 488.341 604.02 487.985 602.68C487.629 601.339 487.817 599.911 488.509 598.709C489.036 597.434 489.971 596.37 491.167 595.682C492.363 594.994 493.753 594.721 495.121 594.906C502.553 595.765 510.061 595.765 517.493 594.906C518.305 594.832 519.123 594.921 519.899 595.17C520.675 595.419 521.393 595.822 522.011 596.354C522.628 596.887 523.13 597.539 523.49 598.27C523.85 599.002 524.059 599.798 524.105 600.612L524.195 601.064Z" fill="black"/>
<path d="M585.873 560.216C565.35 574.465 540.734 581.621 515.77 580.595C489.021 580.11 462.529 575.277 437.333 566.285C436.387 565.922 435.523 565.376 434.788 564.679C434.053 563.982 433.463 563.148 433.051 562.223C432.639 561.297 432.413 560.3 432.386 559.287C432.36 558.275 432.532 557.267 432.895 556.322C433.258 555.376 433.803 554.511 434.5 553.777C435.197 553.042 436.032 552.451 436.957 552.039C437.882 551.626 438.88 551.401 439.893 551.374C440.905 551.347 441.912 551.521 442.858 551.884C443.673 551.884 529.174 583.856 576.453 547.898C578.087 547.127 579.938 546.947 581.69 547.39C583.441 547.834 584.984 548.873 586.055 550.328C587.125 551.784 587.655 553.566 587.556 555.37C587.457 557.174 586.734 558.886 585.511 560.216H585.873Z" fill="black"/>
<path fill-rule="evenodd" clip-rule="evenodd" d="M337.344 360.592C336.157 360.571 334.998 360.227 333.992 359.596C323.485 351.363 314.66 341.184 307.998 329.616C307.57 328.896 307.287 328.1 307.167 327.271C307.046 326.442 307.091 325.598 307.297 324.786C307.503 323.975 307.866 323.212 308.367 322.541C308.868 321.87 309.497 321.304 310.217 320.876C310.937 320.448 311.733 320.165 312.562 320.044C313.391 319.924 314.235 319.969 315.046 320.175C315.858 320.381 316.621 320.745 317.292 321.246C317.963 321.747 318.529 322.375 318.957 323.095C324.608 332.899 331.971 341.61 340.695 348.817C341.889 349.535 342.814 350.627 343.326 351.923C343.838 353.219 343.909 354.648 343.527 355.989C343.146 357.329 342.333 358.506 341.215 359.339C340.098 360.171 338.737 360.611 337.344 360.592Z" fill="black"/>
<path fill-rule="evenodd" clip-rule="evenodd" d="M327.562 402.256C314.583 400.961 301.943 397.341 290.246 391.568C289.491 391.205 288.815 390.697 288.256 390.073C287.697 389.449 287.267 388.721 286.989 387.93C286.712 387.14 286.592 386.302 286.639 385.466C286.685 384.629 286.895 383.81 287.258 383.054C287.621 382.299 288.128 381.622 288.753 381.063C289.377 380.504 290.105 380.074 290.895 379.796C291.686 379.519 292.523 379.399 293.36 379.446C294.196 379.492 295.016 379.702 295.771 380.065C305.94 385.027 316.928 388.096 328.197 389.122C329.879 389.122 331.491 389.791 332.68 390.98C333.869 392.169 334.537 393.781 334.537 395.463C334.537 397.144 333.869 398.757 332.68 399.946C331.491 401.135 329.879 401.803 328.197 401.803L327.562 402.256Z" fill="black"/>
<path fill-rule="evenodd" clip-rule="evenodd" d="M690.128 345.738C689.036 345.721 687.967 345.43 687.017 344.891C686.068 344.353 685.269 343.586 684.693 342.659C684.203 341.938 683.867 341.122 683.706 340.264C683.545 339.407 683.564 338.526 683.759 337.676C683.955 336.826 684.324 336.024 684.843 335.323C685.362 334.622 686.02 334.037 686.776 333.602C695.526 326.396 702.918 317.684 708.605 307.878C709.014 307.097 709.584 306.411 710.277 305.866C710.97 305.321 711.769 304.929 712.625 304.715C713.48 304.501 714.372 304.47 715.24 304.625C716.108 304.781 716.934 305.117 717.662 305.614C718.416 306.051 719.072 306.636 719.593 307.334C720.113 308.033 720.486 308.83 720.689 309.677C720.893 310.524 720.922 311.404 720.776 312.262C720.629 313.121 720.309 313.94 719.836 314.671C713.047 326.153 704.133 336.236 693.569 344.38C692.568 345.019 691.407 345.364 690.218 345.376L690.128 345.738Z" fill="black"/>
<path fill-rule="evenodd" clip-rule="evenodd" d="M707.696 381.968H705.432C704.73 381.909 704.046 381.711 703.421 381.388C702.795 381.064 702.24 380.621 701.786 380.083C701.331 379.545 700.988 378.922 700.774 378.251C700.56 377.58 700.481 376.873 700.541 376.171C700.6 375.469 700.797 374.786 701.12 374.16C701.444 373.534 701.887 372.979 702.426 372.525C702.964 372.071 703.587 371.727 704.258 371.513C704.929 371.3 705.636 371.22 706.337 371.28C715.412 370.744 724.298 368.469 732.513 364.578C733.157 364.224 733.867 364.007 734.598 363.94C735.33 363.873 736.067 363.957 736.764 364.187C737.462 364.418 738.105 364.791 738.652 365.281C739.199 365.771 739.638 366.369 739.944 367.036C740.25 367.704 740.415 368.428 740.428 369.163C740.442 369.897 740.305 370.627 740.024 371.305C739.743 371.984 739.325 372.598 738.797 373.108C738.268 373.618 737.64 374.013 736.951 374.27C727.766 378.654 717.846 381.295 707.696 382.059V381.968Z" fill="black"/>
<path fill-rule="evenodd" clip-rule="evenodd" d="M20.1574 253.806L13.726 256.704C11.595 257.628 9.66941 258.965 8.05854 260.639C6.44768 262.312 5.18369 264.288 4.34142 266.453C3.49914 268.618 3.09445 270.928 3.15065 273.251C3.20686 275.573 3.72266 277.86 4.66868 279.982L111.455 513.841L131.11 556.773C135.095 565.831 162.267 603.69 171.053 599.705L175.671 597.622C184.728 593.546 173.407 548.079 169.331 539.293L149.767 496.361L42.8914 262.5C41.9669 260.381 40.6332 258.465 38.9664 256.862C37.2997 255.259 35.3326 253.999 33.1785 253.158C31.0243 252.316 28.7253 251.908 26.4131 251.957C24.101 252.006 21.8207 252.511 19.7041 253.443L20.1574 253.806Z" fill="black"/>
<path fill-rule="evenodd" clip-rule="evenodd" d="M65.2646 411.766L68.3441 418.469L106.657 400.988L103.577 394.286L65.2646 411.766Z" fill="white"/>
<path fill-rule="evenodd" clip-rule="evenodd" d="M175.402 608.673L171.325 604.145C171.172 603.9 171.092 603.617 171.092 603.329C171.092 603.04 171.172 602.758 171.325 602.514C171.361 602.221 171.471 601.942 171.646 601.704C171.82 601.467 172.053 601.277 172.321 601.155L174.858 600.068L177.303 598.981C177.554 598.847 177.834 598.776 178.118 598.776C178.403 598.776 178.683 598.847 178.934 598.981C179.196 599.136 179.42 599.346 179.592 599.596C179.764 599.846 179.88 600.131 179.93 600.431L180.654 606.498C182.013 618.092 183.371 617.006 175.854 608.673H175.402Z" fill="#231F20"/>
<path fill-rule="evenodd" clip-rule="evenodd" d="M10.1926 232.34L3.39964 235.51C2.63209 236.012 2.08356 236.787 1.86502 237.678C1.64649 238.569 1.77419 239.51 2.22214 240.311L9.73932 256.614L22.0571 250.998L14.6306 234.695C14.3204 233.818 13.6923 233.089 12.8705 232.653C12.0486 232.217 11.0929 232.105 10.1926 232.34Z" fill="black"/>
<path fill-rule="evenodd" clip-rule="evenodd" d="M8.92705 274.457C8.92705 274.457 -3.11941 282.337 0.775239 293.115C4.66989 303.893 38.6342 377.53 38.6342 377.53C39.5446 374.658 39.8462 371.628 39.5187 368.634C39.1912 365.639 38.2421 362.746 36.7325 360.139C31.8416 348.908 8.29241 296.738 8.29241 296.738C8.29241 296.738 11.8251 290.67 18.7992 301.357C25.7733 312.045 8.92705 274.185 8.92705 274.185V274.457Z" fill="black"/>
<path fill-rule="evenodd" clip-rule="evenodd" d="M121.322 476.98C121.322 476.98 154.925 491.471 130.38 514.024C105.834 536.576 80.7456 507.956 80.7456 507.956C80.7456 507.956 65.3481 460.495 91.9766 451.257C118.605 442.019 128.025 463.122 121.322 476.98Z" fill="#EE3A3D"/>
<path fill-rule="evenodd" clip-rule="evenodd" d="M139.259 428.975C139.259 428.975 95.3302 433.323 140.707 472.632L171.956 556.774C171.956 556.774 235.357 607.948 292.78 576.701C350.203 545.453 311.528 522.356 311.528 522.356C311.528 522.356 285.987 558.586 227.024 541.467C168.061 524.349 164.619 499.441 164.619 499.441C164.619 499.441 189.889 448.81 139.259 428.975Z" fill="#EE3A3D"/>
</g>
<defs>
<clipPath id="clip0_992_528">
<rect width="781" height="681" fill="white"/>
</clipPath>
</defs>
</svg>
