<svg width="213" height="123" viewBox="0 0 213 123" fill="none" xmlns="http://www.w3.org/2000/svg">
<path d="M211.498 59.2565C195.229 23.8047 152.907 0 106.156 0H105.941C59.3157 0.0813455 17.0604 23.886 0.820839 59.2565L0 61.0313L0.820839 62.8209C17.0899 98.2801 59.4117 122.07 106.171 122.07H106.378C153.026 121.996 195.266 98.1914 211.498 62.8209L212.327 61.0313L211.498 59.2565ZM106.37 113.551H106.171C63.4864 113.551 24.9213 92.5416 9.40648 61.0461C24.8769 29.6245 63.3903 8.60043 105.956 8.54127H106.171C148.833 8.54127 187.413 29.558 202.927 61.0461C187.442 92.475 148.951 113.492 106.37 113.551Z" fill="black"/>
<path d="M140.446 35.3409C140.416 35.3194 140.384 35.3019 140.35 35.2892L131.942 31.0814C131.41 30.8065 130.978 30.372 130.707 29.839L127.83 24.0857C129.517 25.0608 131.129 26.1607 132.652 27.3765C133.534 28.0667 134.382 28.7865 135.196 29.5358C137.121 31.3049 138.879 33.2482 140.446 35.3409Z" fill="black"/>
<path d="M145.275 43.5642C144.861 42.5954 144.395 41.6415 143.892 40.7245C143.267 39.5577 142.581 38.4247 141.836 37.3302C141.949 37.9172 141.865 38.525 141.598 39.0596C141.33 39.5943 140.894 40.026 140.357 40.2882L131.949 44.4886C131.42 44.7627 130.988 45.1941 130.714 45.7235L126.514 54.1317C126.285 54.5942 125.931 54.9831 125.491 55.2538C125.052 55.5244 124.545 55.6661 124.029 55.6625C123.513 55.6652 123.007 55.5232 122.568 55.2526C122.128 54.982 121.774 54.5937 121.544 54.1317L117.344 45.7235C117.072 45.1926 116.64 44.7607 116.109 44.4886L107.708 40.2882C107.247 40.058 106.859 39.704 106.588 39.2657C106.317 38.8275 106.174 38.3224 106.174 37.8072C106.174 37.2919 106.317 36.7868 106.588 36.3486C106.859 35.9104 107.247 35.5563 107.708 35.3261L116.109 31.1183C116.642 30.8455 117.074 30.4105 117.344 29.8759L121.544 21.4826C121.6 21.3708 121.662 21.2622 121.729 21.1572C120.834 20.8022 119.932 20.4769 119.008 20.2033C118.098 19.9222 117.174 19.6708 116.227 19.4638C112.937 18.668 109.563 18.2682 106.177 18.2731C100.548 18.2673 94.9729 19.3708 89.7704 21.5205C84.5678 23.6702 79.8398 26.8241 75.8566 30.8018C71.8734 34.7795 68.713 39.5031 66.5561 44.7027C64.3992 49.9023 63.2881 55.476 63.2861 61.1052C63.2861 72.4807 67.805 83.3902 75.8487 91.4339C83.8924 99.4776 94.8019 103.997 106.177 103.997C111.807 103.995 117.38 102.883 122.58 100.726C127.78 98.5696 132.503 95.4092 136.481 91.426C140.459 87.4428 143.612 82.7148 145.762 77.5122C147.912 72.3097 149.015 66.7345 149.01 61.1052C149.025 55.0593 147.752 49.0794 145.275 43.5642ZM106.192 77.6332C101.795 77.6332 97.5778 75.8864 94.4685 72.7771C91.3592 69.6678 89.6125 65.4507 89.6125 61.0535C89.6084 57.037 91.0618 53.1554 93.7029 50.1294C96.3441 47.1034 99.9935 45.1385 103.974 44.5995C104.351 44.8839 104.755 45.1316 105.179 45.339L112.722 49.1031L116.479 56.6386C117.079 57.8531 117.966 58.9036 119.062 59.6997C120.158 60.4958 121.431 61.0136 122.772 61.2087C122.729 65.5784 120.964 69.7546 117.859 72.83C114.755 75.9054 110.562 77.6314 106.192 77.6332Z" fill="#EE3A3D"/>
<path d="M142.886 30.2014L135.351 26.4299L131.586 18.9092C130.889 17.4993 129.811 16.3128 128.474 15.4842C127.137 14.6555 125.594 14.2179 124.021 14.2207C122.449 14.2196 120.907 14.6579 119.57 15.4864C118.234 16.3148 117.155 17.5004 116.456 18.9092L116.22 19.3898L112.7 26.4299L105.157 30.2014C103.75 30.9012 102.568 31.9807 101.743 33.3177C100.919 34.6546 100.485 36.1957 100.49 37.7666C100.488 39.0977 100.8 40.4105 101.401 41.598C102.003 42.7854 102.877 43.814 103.951 44.5996C104.328 44.884 104.732 45.1316 105.157 45.3391L112.7 49.1031L116.456 56.6387C117.057 57.8532 117.943 58.9037 119.039 59.6997C120.135 60.4958 121.409 61.0137 122.749 61.2088C123.17 61.2799 123.595 61.3146 124.021 61.3124C125.593 61.3183 127.135 60.8836 128.472 60.0574C129.809 59.2313 130.888 58.0469 131.586 56.6387L135.351 49.1031L142.886 45.3317C143.78 44.8912 144.589 44.2953 145.275 43.5717C146.746 42.0002 147.563 39.9268 147.56 37.7739C147.567 36.2009 147.133 34.6573 146.307 33.3187C145.481 31.9801 144.295 30.9001 142.886 30.2014ZM140.35 40.2513L131.941 44.4517C131.412 44.7258 130.981 45.1572 130.706 45.6866L126.506 54.0948C126.277 54.5573 125.923 54.9462 125.483 55.2169C125.044 55.4875 124.537 55.6292 124.021 55.6256C123.505 55.6283 122.999 55.4863 122.56 55.2157C122.121 54.9451 121.766 54.5568 121.537 54.0948L117.336 45.6866C117.064 45.1558 116.632 44.7238 116.101 44.4517L107.7 40.2513C107.239 40.0211 106.852 39.667 106.581 39.2288C106.31 38.7905 106.166 38.2855 106.166 37.7702C106.166 37.255 106.31 36.7499 106.581 36.3117C106.852 35.8735 107.239 35.5194 107.7 35.2892L116.101 31.0814C116.634 30.8086 117.067 30.3736 117.336 29.839L121.537 21.4457C121.592 21.3339 121.654 21.2253 121.721 21.1203C121.973 20.7419 122.315 20.4322 122.717 20.2191C123.118 20.0061 123.567 19.8965 124.021 19.9001C124.539 19.8961 125.048 20.0392 125.488 20.3128C125.928 20.5864 126.281 20.9793 126.506 21.4457L127.83 24.0709L130.706 29.8242C130.978 30.3573 131.41 30.7918 131.941 31.0667L140.35 35.2744C140.384 35.2872 140.416 35.3046 140.446 35.3262C140.817 35.5253 141.137 35.8091 141.378 36.1547C141.62 36.5003 141.777 36.898 141.836 37.3154C141.943 37.9 141.855 38.5034 141.587 39.0335C141.318 39.5636 140.884 39.9913 140.35 40.2513Z" fill="black"/>
</svg>
