<svg width="263" height="191" viewBox="0 0 263 191" fill="none" xmlns="http://www.w3.org/2000/svg">
<path d="M261.957 108.182V108.018C261.957 108.018 261.957 107.67 261.957 107.588C261.877 107.362 261.744 107.158 261.568 106.994C261.435 106.862 261.283 106.752 261.117 106.666C261.117 106.666 261.117 106.543 261.117 106.482C261.117 105.99 260.83 105.519 258.802 105.068C256.18 104.494 243.908 103.531 231.738 101.585C221.801 100.069 211.926 98.1022 207.153 97.4876L209.959 95.5412C222.006 87.2437 231.308 81.3637 234.545 79.151C236.238 78.1229 237.787 76.8761 239.154 75.4428C239.605 75.5657 240.076 75.4427 240.711 74.6232C241.524 72.999 242.044 71.2444 242.248 69.4398C242.66 66.4531 242.851 63.4401 242.822 60.4253C243.074 55.763 242.841 51.0871 242.125 46.4731C242.014 46.218 241.861 45.9826 241.674 45.7765C241.781 45.6125 241.831 45.4184 241.818 45.2234C241.8 44.7729 241.635 44.3408 241.347 43.9941C240.729 43.3113 239.899 42.8566 238.99 42.7033C238.701 42.6342 238.406 42.5863 238.11 42.5599H237.331L235.549 42.4165C233.008 42.2321 229.853 42.0887 226.677 42.0068C222.421 41.8506 218.159 41.9464 213.913 42.2936C215.311 39.1392 216.408 35.8604 217.192 32.5004C218.318 26.7434 217.765 25.9239 217.192 25.8215C216.618 25.719 216.311 26.2517 214.385 31.7834C213.207 35.0967 211.839 38.3392 210.287 41.4946C207.562 47.0039 204.324 52.2445 200.617 57.1472C193.815 66.3462 184.001 76.0369 173.635 85.83C175.294 83.5559 176.872 81.2408 178.326 78.8847L178.695 78.5569C183.715 72.7408 188.394 66.6389 192.709 60.2818C195.782 55.8974 198.855 51.2672 201.436 47.1697C202.727 45.1209 203.915 43.0721 204.919 41.4741C205.411 40.6136 205.882 39.8146 206.313 39.0975L207.296 37.397C207.624 36.8234 207.993 36.2497 208.197 35.7785L206.354 35.1229C205.962 34.9725 205.585 34.7874 205.227 34.5697L204.469 34.0985L203.608 33.5453C203.608 33.4429 203.608 33.3405 203.608 33.2175C203.618 33.0303 203.587 32.8432 203.516 32.6697C203.445 32.4961 203.337 32.3403 203.198 32.2136C200.73 31.5658 198.149 31.4679 195.638 31.9268C195.925 29.2839 196.069 26.9483 196.11 25.0224H196.212C199.576 25.7539 203.014 26.084 206.456 26.0058C208.771 26.0058 211.086 26.0058 212.951 26.0058C214.815 26.0058 215.43 26.0058 215.737 25.8215C216.267 25.6548 216.771 25.4133 217.232 25.1044C217.581 24.838 218.032 24.4078 217.335 23.4039C216.895 22.902 216.318 22.539 215.675 22.359C214.794 22.1042 213.887 21.9462 212.971 21.8878C211.107 21.7239 208.874 21.601 206.476 21.5395C203.049 21.2786 199.602 21.4923 196.233 22.1746H196.13C196.13 21.3346 196.13 20.6381 196.007 20.1259C195.413 14.2254 194.778 13.5698 194.204 13.6107C193.631 13.6517 193.344 14.2664 193.098 20.2488C192.744 30.0831 190.963 39.8139 187.812 49.1365C185.243 56.7517 181.914 64.0891 177.876 71.0379C174.996 76.0086 171.815 80.7981 168.349 85.3793C167.304 85.0925 165.419 84.6418 162.899 84.1501C163.345 83.8457 163.763 83.503 164.149 83.1257C166.63 80.5352 168.835 77.6925 170.725 74.6438C174.047 69.4538 176.879 63.9668 179.187 58.2536C182.805 49.204 185.449 39.7949 187.075 30.1853C187.197 28.6078 187.075 28.0341 186.788 27.8088C186.916 27.6011 187.006 27.3721 187.054 27.1327C187.116 26.9563 187.135 26.7679 187.11 26.5828C187.085 26.3977 187.017 26.2211 186.911 26.0673C186.583 25.5756 184.596 24.9405 183.264 24.0185C182.683 23.6202 182.165 23.1368 181.727 22.5844L181.297 21.9902L181.113 21.7854L181.01 21.6829H180.559C180.569 21.6013 180.569 21.5187 180.559 21.4371C180.559 21.0683 180.17 20.7405 177.917 20.5151C174.966 20.2283 161.362 20.3922 147.759 20.7815C140.977 20.9249 134.134 21.3142 128.746 21.2527C123.358 21.1912 119.363 20.72 117.928 20.6381C115.88 20.5356 115.47 20.7815 115.347 21.2527C115.224 21.7239 115.347 21.6624 115.695 21.9288C114.837 22.73 113.854 23.3873 112.786 23.8751C111.229 24.5307 109.18 24.8585 108.688 25.3707C108.565 25.5398 108.481 25.734 108.442 25.9395C108.403 26.145 108.41 26.3566 108.463 26.559C108.487 26.8446 108.61 27.1127 108.811 27.3171C108.526 27.8204 108.325 28.3672 108.217 28.9356C107.93 30.1649 107.336 33.6273 106.168 38.1141C104.863 43.3222 103.094 48.403 100.883 53.2955C98.6479 58.1773 95.9879 62.8528 92.9333 67.2682C90.2904 71.0379 88.0983 73.7628 87.3812 74.8077C87.3276 74.9212 87.266 75.0307 87.1968 75.1354C85.2505 75.1354 83.6115 75.0125 82.3617 75.0125C81.5832 75.0125 80.9481 75.0125 80.4768 75.0125C82.8534 72.472 85.1003 69.8496 87.2173 67.1452C92.3019 60.6467 96.3706 53.4142 99.2846 45.6946C101.564 39.6656 102.905 33.3225 103.259 26.8868C103.365 24.6401 103.331 22.3889 103.157 20.1463C103.022 18.7086 102.81 17.2792 102.522 15.8644C102.206 14.3042 101.733 12.7802 101.108 11.3161C101.579 11.4595 102.153 11.603 102.89 11.7669C108.2 12.6002 113.559 13.0861 118.932 13.2215C126.882 13.5903 136.757 13.6517 146.591 13.5903C156.425 13.5288 166.259 13.4059 174.126 13.4468C181.994 13.4878 187.915 13.6517 190.025 13.5698C193.098 13.3649 193.733 12.9142 193.795 12.2995C193.856 11.6849 193.405 11.3161 190.168 10.6605C184.852 9.90109 179.495 9.46322 174.126 9.34929C166.198 9.02149 156.322 9.001 146.488 9.06247C136.654 9.12393 126.841 9.20588 118.973 9.06247C111.106 8.91905 105.185 8.75516 103.095 8.81662C100.37 8.96004 99.6943 9.32882 99.5304 9.84101C99.3665 9.84101 99.2641 10.2303 99.2436 10.9064C99.2231 11.5825 99.4485 13.4059 99.6738 16.2946C99.9717 19.7575 99.9717 23.2395 99.6738 26.7024C99.0962 32.7413 97.6613 38.6672 95.4124 44.3014C94.166 47.4223 92.7221 50.4606 91.0895 53.3979L89.9217 53.0292C89.4504 52.8653 88.7539 52.6604 87.8729 52.3326C87.4426 52.1892 86.9714 51.9843 86.4797 51.7794L85.7012 51.4106L84.6768 50.9189L83.8778 50.4887C83.7419 50.411 83.5976 50.3491 83.4476 50.3043L83.0173 50.4887L81.4398 51.1648L79.1861 52.1277C77.6085 52.7833 75.9285 53.5824 74.1256 54.3814C66.9344 57.7004 58.1247 62.1872 49.5403 67.1452C40.956 72.1033 32.7609 77.512 26.3072 82.1218C23.0907 84.4369 20.3248 86.5471 18.1122 88.2681L15.3668 90.5423L14.3834 91.4027L13.9941 91.7715C13.822 91.9127 13.6642 92.0706 13.5229 92.2427C12.9826 92.9273 12.6486 93.7517 12.56 94.6193C12.5133 94.8738 12.5259 95.1356 12.5969 95.3843C12.668 95.6331 12.7956 95.862 12.9697 96.0534C12.9697 96.0534 12.9697 96.0534 12.8468 96.1559C12.7545 96.344 12.7066 96.5507 12.7066 96.7602C12.7066 96.9698 12.7545 97.1765 12.8468 97.3646C12.8468 98.1637 12.8468 99.4134 13.0312 100.991C13.1541 103.04 13.1746 105.744 13.1951 108.449C13.2156 111.153 13.1951 113.939 13.5229 116.193C13.5919 117.751 13.9388 119.284 14.5473 120.721C14.7076 120.959 14.9087 121.167 15.1414 121.335C13.318 122.729 11.6585 124.019 10.1219 125.167C8.07317 126.724 6.39314 128.076 4.95899 129.162C3.77352 130.046 2.65085 131.011 1.59904 132.05C1.05349 132.653 0.616754 133.347 0.3083 134.099C0.0506348 134.749 -0.0476797 135.452 0.0215042 136.148C0.0631423 136.617 0.198886 137.073 0.420655 137.488C0.642424 137.904 0.945613 138.27 1.31218 138.565L1.57853 138.729C1.46963 138.794 1.3776 138.883 1.30993 138.99C1.24226 139.097 1.20087 139.218 1.18926 139.344C1.17744 139.48 1.20613 139.617 1.27173 139.738C1.33732 139.858 1.43695 139.956 1.55808 140.02C1.45595 140.062 1.35954 140.118 1.27123 140.184C0.966049 140.453 0.739479 140.8 0.615604 141.188C0.555901 141.352 0.521392 141.525 0.51319 141.7C0.492467 141.815 0.492467 141.933 0.51319 142.048C0.524419 142.123 0.524419 142.199 0.51319 142.274C0.51319 142.581 0.51319 142.95 0.51319 143.36C0.51319 144.179 0.636086 145.204 0.738525 146.371C0.922915 148.707 1.14827 151.616 1.37364 154.566C1.56736 158.931 2.00515 163.281 2.68489 167.597C2.77219 167.93 2.96916 168.225 3.24416 168.433C3.51915 168.641 3.85616 168.751 4.20096 168.744C4.41085 168.766 4.62267 168.728 4.81144 168.633C5.00021 168.539 5.15809 168.392 5.26636 168.211C6.0804 168.502 6.91617 168.728 7.76587 168.887C12.0888 169.789 32.4536 172.165 52.716 175.034L81.1119 179.131C85.2095 179.746 88.7334 180.238 91.3558 180.811C93.9782 181.385 95.9451 181.959 96.9694 182.245C99.9197 183.085 100.637 183.126 100.965 182.553C101.088 182.389 101.108 182.102 100.821 181.692C101.043 181.745 101.275 181.745 101.497 181.692C101.989 181.692 102.44 181.405 102.706 180.238C102.706 180.115 102.706 179.93 102.706 179.746C104.009 178.636 105.254 177.46 106.435 176.222C108.627 174.173 113.626 168.826 120.776 162.085C121.334 162.368 121.908 162.614 122.497 162.823C129.361 165.363 188.058 178.517 195.413 178.947C196.155 179.026 196.904 179.026 197.646 178.947C198.663 178.863 199.639 178.509 200.474 177.922C203.629 176.283 216.864 166.593 229.71 156.718C236.204 151.821 242.719 146.986 247.985 143.175C253.25 139.364 257.266 136.476 258.577 135.287L258.802 135.083C259.273 135.083 259.724 134.96 260.154 134.038C261.568 131.743 262.982 110.764 261.957 108.182ZM191.725 50.0789C193.329 45.0161 194.508 39.8284 195.249 34.5697C197.597 34.9482 199.99 34.9482 202.338 34.5697C202.518 34.9107 202.73 35.2332 202.973 35.5326C203.229 35.8425 203.518 36.1241 203.834 36.3726L203.997 36.4956L204.202 36.639C204.202 36.639 204.079 36.8029 204.018 36.8848L203.915 36.9873L203.752 37.2126C203.301 37.9092 202.789 38.6673 202.235 39.4868L198.568 44.998C195.884 49.0955 192.791 53.6028 189.758 57.9872C188.877 59.2574 188.017 60.5482 187.136 61.7775C188.88 57.9652 190.412 54.0598 191.725 50.0789ZM204.018 59.2574C207.229 54.8159 210.053 50.1069 212.459 45.1824H212.623C217.232 45.9553 221.901 46.3186 226.575 46.2682C229.71 46.2682 232.844 46.2682 235.385 46.2682H237.147H238.417C238.847 46.2682 239.113 46.2682 239.257 46.2682C239.214 46.3393 239.18 46.4149 239.154 46.4936C238.431 51.1075 238.123 55.7768 238.232 60.4457C238.232 63.6008 238.232 66.592 238.069 69.0506C237.905 71.5091 237.72 73.1481 237.823 73.9062C237.86 74.102 237.914 74.2941 237.987 74.4798C236.23 75.0879 234.524 75.8347 232.885 76.713C229.382 78.4749 219.752 84.0886 207.48 92.2018C201.334 96.2993 194.573 100.909 187.402 105.785L176.257 113.448C176.862 109.903 177.068 106.302 176.872 102.712C176.747 100.522 176.424 98.3488 175.909 96.2173C188.345 86.3832 200.494 76.795 210.738 69.0711C222.252 60.3638 231.082 53.9511 234.155 51.595C238.581 48.0507 238.929 47.2516 238.581 46.7394C238.232 46.2272 237.597 46.2477 232.434 49.2594C229.054 51.1853 219.916 57.2906 208.177 65.875C198.22 73.1277 186.46 82.2652 174.495 91.6486L174.352 91.3412C185.518 80.5237 196.478 69.7676 203.936 59.2574H204.018ZM190.004 109.248C191.418 108.285 192.832 107.301 194.102 106.338C194.102 106.605 194.43 106.953 195.29 107.465C197.444 108.505 199.704 109.309 202.031 109.862C205.983 110.895 209.992 111.702 214.036 112.28C220.398 113.342 226.863 113.637 233.295 113.161C233.222 113.574 233.222 113.997 233.295 114.41C233.367 114.816 233.513 115.205 233.725 115.558C233.971 115.988 233.93 115.968 234.094 116.111H233.93L233.664 116.254H233.541L233.049 116.582L231.943 117.34L226.882 120.885C223.194 123.487 218.994 126.539 214.938 129.51C206.845 135.451 199.367 141.167 197.851 142.765L197.482 143.196C197.364 142.985 197.227 142.787 197.073 142.602C196.295 141.718 195.299 141.054 194.184 140.676C192.231 139.968 190.092 139.968 188.14 140.676C187.3 141.004 186.503 141.43 185.763 141.946L184.596 141.68L182.875 141.27L175.601 139.59C166.32 137.418 157.162 135.042 154.212 134.611C158.679 131.231 163.268 127.871 167.898 124.552C175.356 119.368 182.813 114.185 189.922 109.248H190.004ZM95.7607 69.0916C99.1036 64.6278 101.961 59.8201 104.284 54.7501C106.581 49.6518 108.326 44.3219 109.487 38.8517C110.213 35.6931 110.584 32.4633 110.594 29.2224C110.571 28.7525 110.502 28.2859 110.389 27.8292C111.737 27.8379 113.074 27.5803 114.323 27.0712C115.468 26.5886 116.465 25.811 117.211 24.8175C117.624 24.2816 117.886 23.6449 117.969 22.9737C121.527 23.8792 125.178 24.3673 128.848 24.4283C134.38 24.6946 141.141 24.4283 148.004 24.2644C161.649 23.8751 175.294 23.3015 178.203 22.7893L178.797 22.6663V22.7893C178.836 23.2654 178.961 23.7306 179.166 24.162C179.686 25.2934 180.517 26.2529 181.563 26.9278C182.786 27.7387 184.198 28.2187 185.661 28.321C185.41 28.7834 185.191 29.2626 185.005 29.7551C183.94 32.357 180.785 44.957 175.95 56.8399C173.709 62.3869 171.052 67.7564 168 72.9023C165.358 77.3071 163.104 80.4622 162.366 81.63C161.914 82.2289 161.625 82.9348 161.526 83.6788C157.101 82.8183 151.098 81.8145 144.358 80.7901C144.201 79.5211 143.812 78.2918 143.21 77.1637C142.238 75.3348 140.831 73.7729 139.113 72.6155C137.548 71.6192 135.87 70.8145 134.114 70.2184C128.502 68.2457 122.556 67.4031 116.617 67.7394C113.168 67.9473 109.796 68.8461 106.701 70.3823C105.89 70.8168 105.103 71.2955 104.345 71.8164C102.286 72.9757 100.314 74.2836 98.4446 75.7296L90.4749 75.2584C92.3563 73.3141 94.1149 71.2545 95.7402 69.0916H95.7607ZM141.018 80.3393C135.855 79.6018 130.344 78.8642 124.812 78.2906C116.986 77.3686 109.16 76.6311 102.276 76.1189C103.792 74.9511 105.021 74.0701 105.8 73.5989C106.578 73.1276 107.131 72.7384 107.664 72.4311C110.587 71.3101 113.674 70.6734 116.802 70.5462C122.387 70.4242 127.946 71.3484 133.192 73.2711C136.243 74.1446 138.854 76.1339 140.506 78.8437C140.723 79.323 140.888 79.8245 140.998 80.3393H141.018ZM93.8963 79.5198L97.5841 79.8681C105.39 80.6466 114.876 81.6096 124.362 82.7159C130.016 83.3715 135.712 84.0681 141.018 84.7647C142.124 84.9491 143.21 85.072 144.296 85.2154C154.028 86.4652 162.161 87.592 166.177 87.9813L168.062 88.1042H169.332C169.294 88.3829 169.294 88.6655 169.332 88.9442C169.361 89.1263 169.409 89.3048 169.476 89.4769C169.476 89.7637 169.66 90.1325 169.824 90.5627C170.111 91.4642 170.479 92.6115 170.848 93.9842V94.23C171.26 95.8558 171.575 97.5045 171.791 99.1676C171.955 100.356 172.098 101.626 172.159 102.896C172.467 108.162 171.934 113.55 171.914 116.213C169.639 117.791 167.365 119.409 165.091 121.048C161.916 123.302 158.781 125.617 155.708 127.912C155.708 127.707 155.708 127.461 155.708 127.236C155.805 124.636 155.626 122.033 155.175 119.471C154.786 117.217 154.376 114.964 153.946 113.079C153.7 111.931 153.475 111.03 153.229 110.149C152.983 109.268 152.942 109.227 152.819 108.899C152.772 108.76 152.717 108.623 152.655 108.489C152.584 108.31 152.494 108.139 152.389 107.977C152.171 107.655 151.901 107.371 151.59 107.137C152.184 107.014 152.389 106.769 152.45 106.461C152.512 106.154 152.45 105.867 151.754 105.478C151.35 105.265 150.933 105.08 150.504 104.925L149.008 104.412C147.062 103.757 141.592 102.487 134.237 101.052L129.893 100.212C122.661 98.8807 114.118 97.4466 105.554 96.2788C100.084 95.5208 94.6133 94.8651 89.4709 94.23L86.3568 93.9227C78.1054 92.9772 69.8102 92.4643 61.5052 92.3861H61.1569C63.5745 90.5013 66.0125 88.5345 68.3891 86.5062C71.79 83.6174 75.1091 80.5647 78.2437 77.4096C78.9179 77.6024 79.6018 77.7597 80.2924 77.8808C82.4232 78.352 87.2992 78.8437 93.8963 79.4993V79.5198ZM124.628 103.675L123.235 104.351C116.129 107.682 108.1 108.492 100.473 106.646C97.0656 105.901 93.99 104.076 91.7041 101.442C91.1004 100.676 90.6231 99.8181 90.2905 98.9012C95.0436 99.4749 100.084 100.11 105.124 100.827C111.885 101.729 118.604 102.732 124.689 103.675H124.628ZM83.8573 64.6457C78.3364 71.4616 72.1605 77.7198 65.4183 83.3305C58.6164 89.1286 51.3842 94.4759 44.4799 99.6183L42.9023 100.827L43.0252 100.643C43.1329 100.475 43.1902 100.279 43.1902 100.079C43.1902 99.8796 43.1329 99.684 43.0252 99.5158C41.5708 98.1185 39.8867 96.982 38.0467 96.1559C36.7341 95.4575 35.363 94.8747 33.9492 94.4144C34.3527 94.1277 34.7176 93.7903 35.035 93.4105C35.4683 92.8816 35.8141 92.2867 36.0594 91.6486C36.2449 91.1733 36.3755 90.6784 36.4487 90.1734C36.4991 89.9094 36.5333 89.6426 36.5511 89.3744C36.5511 89.3744 36.5511 89.231 36.5511 89.1695H36.6945L37.0019 89.0057L38.3131 88.2681L41.2633 86.5881L48.1062 82.634L63.5539 73.4759C68.7169 70.3823 73.6134 67.3296 77.4651 64.9735C79.0114 63.9173 80.6267 62.9659 82.3002 62.1257C83.168 61.7136 84.0939 61.4372 85.0456 61.3062C85.4685 61.2768 85.893 61.2768 86.3158 61.3062C85.6602 62.3921 84.7997 63.5394 83.9188 64.6457H83.8573ZM14.9775 95.4798C14.995 95.4104 15.0303 95.3468 15.0799 95.2954C15.3215 94.9422 15.6191 94.6308 15.961 94.3735L16.637 93.9637L17.7229 93.2671L20.6322 91.2183L28.9911 85.5637C35.5062 81.2203 43.7218 75.9754 52.1628 71.1199C60.6037 66.2643 69.1881 61.675 76.1744 58.1716L81.0914 55.7335L83.2631 54.6682L83.509 54.5453C83.509 54.5453 83.509 54.5453 83.6524 54.5453L84.4924 54.8731L85.4144 55.2009C86.029 55.4057 86.5822 55.5492 87.0944 55.6721C87.8883 55.8675 88.6968 55.9977 89.5119 56.0614H89.7373C88.9178 57.3726 88.0778 58.7043 87.1559 60.0155C86.5832 59.506 85.8682 59.1842 85.1071 59.0935C83.8128 58.9753 82.5086 59.1577 81.2963 59.6262C79.4251 60.3856 77.6224 61.3041 75.908 62.3716C71.9334 64.6252 66.9754 67.514 61.8125 70.5667L46.4057 79.7862L39.6857 83.8837L33.5394 87.7149C33.5394 88.2476 33.6624 88.7598 33.6828 89.231C33.7037 89.4491 33.7037 89.6686 33.6828 89.8866C33.6632 90.2328 33.6082 90.576 33.5189 90.911C33.3884 91.376 33.217 91.8285 33.0067 92.2632C32.6238 92.9068 32.321 93.5948 32.1053 94.312C31.9312 94.3867 31.7743 94.496 31.644 94.6334C31.5136 94.7707 31.4126 94.9333 31.3472 95.111C31.2419 95.28 31.1861 95.4752 31.1861 95.6744C31.1861 95.8736 31.2419 96.0688 31.3472 96.2378C32.88 97.4701 34.5675 98.4963 36.3667 99.2905C38.0406 100.311 39.8664 101.058 41.7755 101.503L37.1862 104.945C37.0788 104.765 36.9479 104.599 36.797 104.453C33.3155 102.413 29.6363 100.732 25.8156 99.4339C23.2751 98.4505 20.7346 97.549 18.6449 96.8934C17.6205 96.5656 16.596 96.2993 16.1043 96.1764L15.5921 96.033C15.4379 95.7991 15.2263 95.6086 14.9775 95.4798ZM17.3541 100.704C19.4029 101.606 21.8614 102.63 24.4019 103.613C27.7408 104.947 31.1626 106.062 34.6458 106.953L25.2214 113.96L17.7434 119.655C17.7434 118.856 17.7434 117.607 17.8458 116.049C17.8458 113.898 17.9482 111.194 17.8458 108.449C17.902 105.86 17.7582 103.271 17.4156 100.704H17.3541ZM2.5005 136.312C2.70477 135.473 3.21659 134.742 3.93461 134.263C4.54924 133.751 5.71705 132.993 7.21266 131.948L12.56 128.199L27.7824 117.299C33.6623 113.017 40.2594 108.203 47.2252 103.163C50.954 100.417 54.7852 97.6105 58.6164 94.6808C59.5305 95.0551 60.4868 95.3165 61.4642 95.4593C64.353 95.992 74.4739 97.0574 86.8485 98.5325C87.2741 100.35 88.0846 102.054 89.2251 103.531C91.9335 106.756 95.6262 109.002 99.7353 109.924C108.12 111.997 116.963 111.115 124.771 107.424C126.541 106.605 128.246 105.653 129.873 104.576L138.908 105.99C136.347 107.772 128.439 114.185 120.469 120.454C111.966 127.113 103.3 133.566 101.661 135.267L101.292 135.677C98.4947 134.923 95.556 134.86 92.7285 135.492C90.8582 135.807 89.0476 136.408 87.3607 137.275C86.2021 137.809 85.3031 138.782 84.8612 139.979C84.6346 139.893 84.4017 139.825 84.1646 139.774C78.6329 138.32 31.7365 132.173 26.0205 132.317C25.5902 132.317 25.2419 132.317 24.955 132.317C25.2732 132.033 25.5615 131.717 25.8156 131.374C26.4627 130.489 26.8718 129.452 27.0038 128.363C27.086 127.811 27.0297 127.248 26.8399 126.724L27.2087 126.58C34.4577 123.227 41.3263 119.106 47.6965 114.288C54.1856 109.659 60.1307 104.312 65.4183 98.3481C66.3813 96.9344 66.2788 96.5246 65.951 96.1968C65.6232 95.869 65.3159 95.8076 63.9023 96.8319C62.0379 98.1841 54.2321 105.355 45.6682 111.604C37.1043 117.852 28.0487 123.282 26.2458 124.716C25.1804 125.597 24.9346 126.068 24.9756 126.437C24.8429 126.492 24.724 126.576 24.6272 126.683C24.1848 127.64 23.6854 128.571 23.1317 129.469C22.3122 130.596 21.1853 131.21 21.0829 131.682C20.9696 132.077 20.9696 132.495 21.0829 132.89C21.0981 133.079 21.163 133.259 21.271 133.414C21.379 133.569 21.5262 133.692 21.6975 133.771C22.3315 133.868 22.9797 133.753 23.5414 133.444L23.7463 133.321C23.7463 133.628 24.238 133.976 25.9999 134.427C31.5521 135.902 78.3461 142.028 84.0827 141.885C85.9881 141.885 86.5207 141.557 86.6641 141.188H86.8895C87.5313 140.742 88.2179 140.364 88.9383 140.061C90.4463 139.533 91.9948 139.129 93.5685 138.852C97.0104 138.176 100.534 138.238 101.333 137.91C101.518 137.826 101.685 137.708 101.825 137.562C102.271 137.432 102.703 137.26 103.116 137.049C109.938 132.811 116.499 128.165 122.763 123.138C129.186 118.306 135.278 113.05 140.998 107.404C141.247 107.098 141.467 106.768 141.653 106.42C144.726 106.891 147.062 107.219 148.414 107.342C140.863 114.373 132.95 121.006 124.71 127.215C112.95 136.127 103.73 142.499 100.637 144.999C99.469 145.962 98.588 146.72 97.8299 147.355C96.1277 147.398 94.4245 147.343 92.7285 147.191C89.7988 146.945 86.07 146.474 81.8495 146.044L67.8564 144.671C62.8574 144.2 57.6125 143.769 52.3267 143.093C31.2653 140.635 10.1629 138.463 5.57366 138.504C4.6722 138.504 3.97562 138.504 3.52489 138.647C3.52489 138.463 3.23804 138.258 3.05365 137.848C2.74506 137.394 2.57432 136.861 2.56196 136.312H2.5005ZM98.0963 179.684C96.2152 178.726 94.2371 177.97 92.1958 177.431C89.348 176.632 85.7422 175.956 81.6856 175.218C73.4905 173.702 63.4105 172.042 53.2486 170.608C32.8838 167.699 12.3961 165.855 7.95025 166.04C7.26442 166.048 6.57995 166.103 5.90148 166.203C6.36467 162.266 6.44013 158.293 6.12681 154.341C5.93706 151.521 5.57443 148.716 5.04096 145.941C4.79511 144.753 4.54929 143.708 4.30343 142.909C4.18051 142.499 4.05755 142.151 3.95512 141.864V141.762H3.81169L3.40197 141.639C3.23692 141.59 3.07858 141.522 2.93073 141.434L2.76685 141.27C2.7573 141.147 2.7573 141.024 2.76685 140.901C2.76685 140.901 2.76685 140.901 2.76685 140.778C3.50613 141.025 4.25852 141.23 5.02052 141.393C9.50733 142.417 30.5687 145.142 51.6506 147.539C56.9159 148.215 62.2427 148.625 67.2827 149.035L81.3783 150.121C85.6602 150.407 89.3685 150.715 92.3802 150.756C93.9138 150.783 95.4474 150.701 96.9694 150.51C96.9217 150.616 96.8807 150.726 96.8465 150.838C96.1499 153.829 98.4241 178.107 99.8582 180.873C99.3166 180.442 98.7487 180.045 98.1578 179.684H98.0963ZM104.243 174.603C103.669 175.382 103.177 176.038 102.788 176.652C102.542 168.887 100.842 152.743 99.6738 150.489C99.5653 150.296 99.442 150.111 99.3051 149.936H99.5304C99.9811 150.162 101.313 149.752 105.841 147.211C109.262 145.326 118.502 139.344 130.323 130.821C136.47 126.498 143.067 121.499 150.074 116.131C150.279 117.463 150.483 118.897 150.729 120.331C151.139 122.892 151.487 125.392 151.61 127.359C151.713 128.936 151.61 130.186 151.774 130.903C141.797 138.504 132.495 146.146 124.915 153.132C117.57 159.792 110.71 166.967 104.386 174.603H104.243ZM123.214 160.262C124.669 158.93 126.205 157.558 127.783 156.164C132.475 152.067 137.802 147.58 143.518 143.032L143.866 143.196C148.599 145.347 189.656 155.324 194.839 155.365H195.167C194.884 157.071 194.78 158.801 194.86 160.528C194.86 162.27 194.86 164.298 194.86 166.306C194.86 169.604 195.031 172.9 195.372 176.181C186.357 173.108 130.467 160.631 123.358 160.201L123.214 160.262ZM257.204 133.095H257.081C253.183 135.218 249.395 137.536 245.731 140.041C240.24 143.667 233.582 148.441 227.087 153.378C214.303 163.151 201.764 173.026 198.998 175.689C199.396 172.503 199.546 169.29 199.449 166.081C199.551 162.373 199.095 158.671 198.097 155.099C198.445 154.915 198.835 154.71 199.306 154.423C202.42 152.538 215.696 142.376 229.32 132.706C241.613 123.917 253.906 115.25 258.187 111.788C257.334 118.836 257.053 125.941 257.347 133.034L257.204 133.095ZM257.573 108.51C254.356 110.169 240.302 119.327 226.616 129.1C212.93 138.873 199.879 149.485 197.462 152.21C197.186 152.511 196.926 152.825 196.683 153.153C196.301 152.898 195.896 152.679 195.475 152.497C191.172 150.448 156.548 142.048 146.611 140.553C148.414 139.119 150.279 137.725 152.143 136.271C152.451 136.477 152.773 136.662 153.106 136.824C160.195 139.327 167.434 141.38 174.782 142.97L182.116 144.609L186.214 145.429C186.829 145.757 187.136 145.081 187.525 144.773C187.736 144.557 187.969 144.365 188.222 144.2C188.538 143.966 188.882 143.773 189.246 143.626C190.554 143.12 191.988 143.041 193.344 143.401C194.14 143.613 194.9 143.945 195.597 144.384C195.981 144.612 196.378 144.817 196.786 144.999C196.786 144.999 196.786 144.999 196.786 145.101C196.786 145.203 197.441 145.511 199.08 144.65C201.129 143.626 208.73 138.258 216.864 132.358C220.961 129.407 225.059 126.334 228.706 123.609L233.623 119.86L236.04 117.975L237.618 116.746L238.314 116.193L238.724 115.783L236.45 114.82C236.208 114.747 235.99 114.613 235.815 114.431C235.718 114.358 235.629 114.276 235.549 114.185C235.419 114.024 235.302 113.853 235.2 113.673C234.872 113.099 234.729 112.73 234.565 112.464C234.642 112.394 234.703 112.308 234.746 112.213C234.788 112.118 234.81 112.015 234.811 111.911C234.811 111.542 234.586 111.214 233.172 110.907C231.328 110.538 222.764 110.149 214.323 108.858C210.103 108.244 205.903 107.445 202.543 106.809C199.183 106.174 196.745 105.457 195.823 105.355H195.331L203.403 99.7617L203.834 99.9666C212.639 102.744 221.656 104.799 230.795 106.113C243.088 108.162 255.729 108.51 258.413 107.998L258.946 107.895C258.526 108.066 258.116 108.257 257.716 108.469L257.573 108.51Z" fill="black"/>
<path d="M172.038 116.255C169.764 117.833 167.49 119.451 165.216 121.09C162.04 123.344 158.905 125.659 155.832 127.954C155.832 127.749 155.832 127.503 155.832 127.278C155.929 124.678 155.75 122.075 155.299 119.513C154.91 117.259 154.5 115.005 154.07 113.12C153.824 111.973 153.599 111.072 153.353 110.191C153.107 109.31 153.066 109.269 152.943 108.941C152.896 108.802 152.841 108.665 152.78 108.531C152.708 108.352 152.619 108.181 152.513 108.019C152.295 107.697 152.025 107.413 151.714 107.179C152.308 107.056 152.513 106.81 152.575 106.503C152.636 106.196 152.575 105.909 151.878 105.52C151.475 105.306 151.057 105.122 150.628 104.966L149.133 104.454C147.186 103.799 141.716 102.528 134.361 101.094L130.018 100.254C122.785 98.9225 114.242 97.4883 105.678 96.3205C100.208 95.5624 94.7377 94.9068 89.5953 94.2717L86.4811 93.9644C78.2298 93.0188 69.9345 92.506 61.6295 92.4278H61.2812C63.6988 90.543 66.1368 88.5761 68.5134 86.5479C71.9144 83.6591 75.2334 80.6064 78.368 77.4513C79.0422 77.6441 79.7261 77.8014 80.4168 77.9225C82.3017 78.2503 87.1777 78.742 93.7748 79.4181L97.4626 79.7664C105.268 80.545 114.754 81.5079 124.24 82.6142C129.895 83.2698 135.59 83.9664 140.897 84.663C142.003 84.8474 143.089 84.9703 144.175 85.1137C153.906 86.3635 162.04 87.4903 166.056 87.8795L167.94 88.0025H169.211C169.172 88.2811 169.172 88.5638 169.211 88.8425C169.24 89.0246 169.288 89.2032 169.354 89.3752C169.354 89.662 169.538 90.0308 169.702 90.461C169.989 91.3625 170.358 92.5098 170.727 93.8824V94.1283C171.138 95.7541 171.453 97.4028 171.669 99.0658C171.833 100.254 171.977 101.524 172.038 102.795C172.591 108.183 172.058 113.592 172.038 116.255Z" fill="#EE3A3D"/>
<path d="M86.6858 24.1826C86.7285 24.5107 86.8747 24.8167 87.1031 25.0562C87.3315 25.2956 87.6303 25.4561 87.956 25.5143C88.4477 25.6372 88.919 25.6167 89.5131 24.8177C91.1123 20.9298 91.7315 16.7084 91.316 12.525C90.9882 6.76797 88.796 1.35922 87.7921 0.498735C87.5744 0.24566 87.2751 0.0764977 86.946 0.0203978C86.6169 -0.0357022 86.2785 0.0247565 85.9892 0.1914C85.518 0.37579 85.1492 0.642146 85.1083 1.58458C85.0673 2.52702 86.5424 7.73091 86.8087 12.8938C87.0751 18.0567 86.4809 22.9328 86.6858 24.1826Z" fill="#EE3A3D"/>
<path d="M98.424 187.696C96.867 187.163 89.6553 186.59 82.4846 185.647C75.3139 184.705 68.1431 183.598 66.5246 183.906C65.3158 184.111 65.07 184.582 64.9471 185.196C64.8241 185.811 64.947 186.139 65.9919 186.754C71.1801 188.509 76.5581 189.644 82.0133 190.134C89.3684 191.035 96.785 191.076 98.4035 190.544C99.5713 190.134 99.7967 189.642 99.7967 189.007C99.7967 188.372 99.6123 188.085 98.424 187.696Z" fill="#EE3A3D"/>
<path d="M47.7573 180.935C45.4513 180.696 43.1227 181.056 40.9963 181.98C40.8094 182.196 40.6765 182.454 40.6088 182.732C40.5411 183.01 40.5406 183.3 40.6071 183.578C40.6075 183.829 40.6693 184.076 40.7872 184.297C40.9051 184.519 41.0753 184.708 41.2831 184.848C43.4099 185.347 45.5958 185.547 47.7778 185.442C49.9363 185.687 52.1211 185.548 54.2314 185.033C54.4522 184.851 54.6294 184.623 54.75 184.364C54.8706 184.105 54.9314 183.823 54.928 183.537C54.9852 183.287 54.9756 183.027 54.9 182.783C54.8245 182.538 54.6857 182.318 54.4978 182.144C52.3711 181.237 50.0666 180.824 47.7573 180.935Z" fill="#EE3A3D"/>
</svg>
